<?xml version="1.0" encoding="utf-8"?>
<svg xmlns="http://www.w3.org/2000/svg" xmlns:xlink="http://www.w3.org/1999/xlink" width="600" height="400" viewBox="0 0 2400 1600">
<defs>
  <clipPath id="clip600">
    <rect x="0" y="0" width="2400" height="1600"/>
  </clipPath>
</defs>
<path clip-path="url(#clip600)" d="
M0 1600 L2400 1600 L2400 0 L0 0  Z
  " fill="#ffffff" fill-rule="evenodd" fill-opacity="1"/>
<defs>
  <clipPath id="clip601">
    <rect x="480" y="0" width="1681" height="1600"/>
  </clipPath>
</defs>
<path clip-path="url(#clip600)" d="
M234.125 1410.9 L2352.76 1410.9 L2352.76 123.472 L234.125 123.472  Z
  " fill="#ffffff" fill-rule="evenodd" fill-opacity="1"/>
<defs>
  <clipPath id="clip602">
    <rect x="234" y="123" width="2120" height="1288"/>
  </clipPath>
</defs>
<polyline clip-path="url(#clip602)" style="stroke:#000000; stroke-linecap:butt; stroke-linejoin:round; stroke-width:2; stroke-opacity:0.1; fill:none" points="
  539.211,1410.9 539.211,123.472 
  "/>
<polyline clip-path="url(#clip602)" style="stroke:#000000; stroke-linecap:butt; stroke-linejoin:round; stroke-width:2; stroke-opacity:0.1; fill:none" points="
  916.326,1410.9 916.326,123.472 
  "/>
<polyline clip-path="url(#clip602)" style="stroke:#000000; stroke-linecap:butt; stroke-linejoin:round; stroke-width:2; stroke-opacity:0.1; fill:none" points="
  1293.44,1410.9 1293.44,123.472 
  "/>
<polyline clip-path="url(#clip602)" style="stroke:#000000; stroke-linecap:butt; stroke-linejoin:round; stroke-width:2; stroke-opacity:0.1; fill:none" points="
  1670.56,1410.9 1670.56,123.472 
  "/>
<polyline clip-path="url(#clip602)" style="stroke:#000000; stroke-linecap:butt; stroke-linejoin:round; stroke-width:2; stroke-opacity:0.1; fill:none" points="
  2047.67,1410.9 2047.67,123.472 
  "/>
<polyline clip-path="url(#clip600)" style="stroke:#000000; stroke-linecap:butt; stroke-linejoin:round; stroke-width:4; stroke-opacity:1; fill:none" points="
  234.125,1410.9 2352.76,1410.9 
  "/>
<polyline clip-path="url(#clip600)" style="stroke:#000000; stroke-linecap:butt; stroke-linejoin:round; stroke-width:4; stroke-opacity:1; fill:none" points="
  539.211,1410.9 539.211,1392 
  "/>
<polyline clip-path="url(#clip600)" style="stroke:#000000; stroke-linecap:butt; stroke-linejoin:round; stroke-width:4; stroke-opacity:1; fill:none" points="
  916.326,1410.9 916.326,1392 
  "/>
<polyline clip-path="url(#clip600)" style="stroke:#000000; stroke-linecap:butt; stroke-linejoin:round; stroke-width:4; stroke-opacity:1; fill:none" points="
  1293.44,1410.9 1293.44,1392 
  "/>
<polyline clip-path="url(#clip600)" style="stroke:#000000; stroke-linecap:butt; stroke-linejoin:round; stroke-width:4; stroke-opacity:1; fill:none" points="
  1670.56,1410.9 1670.56,1392 
  "/>
<polyline clip-path="url(#clip600)" style="stroke:#000000; stroke-linecap:butt; stroke-linejoin:round; stroke-width:4; stroke-opacity:1; fill:none" points="
  2047.67,1410.9 2047.67,1392 
  "/>
<path clip-path="url(#clip600)" d="M450.797 1485.02 L467.117 1485.02 L467.117 1488.96 L445.172 1488.96 L445.172 1485.02 Q447.834 1482.27 452.418 1477.64 Q457.024 1472.98 458.205 1471.64 Q460.45 1469.12 461.33 1467.38 Q462.232 1465.62 462.232 1463.93 Q462.232 1461.18 460.288 1459.44 Q458.367 1457.71 455.265 1457.71 Q453.066 1457.71 450.612 1458.47 Q448.182 1459.23 445.404 1460.79 L445.404 1456.06 Q448.228 1454.93 450.682 1454.35 Q453.135 1453.77 455.172 1453.77 Q460.543 1453.77 463.737 1456.46 Q466.932 1459.14 466.932 1463.63 Q466.932 1465.76 466.121 1467.68 Q465.334 1469.58 463.228 1472.17 Q462.649 1472.85 459.547 1476.06 Q456.445 1479.26 450.797 1485.02 Z" fill="#000000" fill-rule="evenodd" fill-opacity="1" /><path clip-path="url(#clip600)" d="M476.931 1483.08 L481.816 1483.08 L481.816 1488.96 L476.931 1488.96 L476.931 1483.08 Z" fill="#000000" fill-rule="evenodd" fill-opacity="1" /><path clip-path="url(#clip600)" d="M502.001 1457.48 Q498.39 1457.48 496.561 1461.04 Q494.755 1464.58 494.755 1471.71 Q494.755 1478.82 496.561 1482.38 Q498.39 1485.92 502.001 1485.92 Q505.635 1485.92 507.441 1482.38 Q509.269 1478.82 509.269 1471.71 Q509.269 1464.58 507.441 1461.04 Q505.635 1457.48 502.001 1457.48 M502.001 1453.77 Q507.811 1453.77 510.866 1458.38 Q513.945 1462.96 513.945 1471.71 Q513.945 1480.44 510.866 1485.04 Q507.811 1489.63 502.001 1489.63 Q496.191 1489.63 493.112 1485.04 Q490.056 1480.44 490.056 1471.71 Q490.056 1462.96 493.112 1458.38 Q496.191 1453.77 502.001 1453.77 Z" fill="#000000" fill-rule="evenodd" fill-opacity="1" /><path clip-path="url(#clip600)" d="M550.334 1463.49 L539.755 1474.12 L550.334 1484.7 L547.579 1487.5 L536.954 1476.87 L526.329 1487.5 L523.598 1484.7 L534.153 1474.12 L523.598 1463.49 L526.329 1460.69 L536.954 1471.32 L547.579 1460.69 L550.334 1463.49 Z" fill="#000000" fill-rule="evenodd" fill-opacity="1" /><path clip-path="url(#clip600)" d="M562.695 1485.02 L570.334 1485.02 L570.334 1458.66 L562.024 1460.32 L562.024 1456.06 L570.287 1454.4 L574.963 1454.4 L574.963 1485.02 L582.602 1485.02 L582.602 1488.96 L562.695 1488.96 L562.695 1485.02 Z" fill="#000000" fill-rule="evenodd" fill-opacity="1" /><path clip-path="url(#clip600)" d="M602.047 1457.48 Q598.435 1457.48 596.607 1461.04 Q594.801 1464.58 594.801 1471.71 Q594.801 1478.82 596.607 1482.38 Q598.435 1485.92 602.047 1485.92 Q605.681 1485.92 607.486 1482.38 Q609.315 1478.82 609.315 1471.71 Q609.315 1464.58 607.486 1461.04 Q605.681 1457.48 602.047 1457.48 M602.047 1453.77 Q607.857 1453.77 610.912 1458.38 Q613.991 1462.96 613.991 1471.71 Q613.991 1480.44 610.912 1485.04 Q607.857 1489.63 602.047 1489.63 Q596.236 1489.63 593.158 1485.04 Q590.102 1480.44 590.102 1471.71 Q590.102 1462.96 593.158 1458.38 Q596.236 1453.77 602.047 1453.77 Z" fill="#000000" fill-rule="evenodd" fill-opacity="1" /><path clip-path="url(#clip600)" d="M623.621 1448.21 Q620.912 1448.21 619.351 1449.66 Q617.809 1451.11 617.809 1453.65 Q617.809 1456.19 619.351 1457.63 Q620.912 1459.08 623.621 1459.08 Q626.329 1459.08 627.89 1457.63 Q629.451 1456.17 629.451 1453.65 Q629.451 1451.11 627.89 1449.66 Q626.348 1448.21 623.621 1448.21 M619.821 1446.59 Q617.376 1445.99 616.003 1444.32 Q614.649 1442.64 614.649 1440.24 Q614.649 1436.87 617.038 1434.91 Q619.445 1432.96 623.621 1432.96 Q627.815 1432.96 630.203 1434.91 Q632.592 1436.87 632.592 1440.24 Q632.592 1442.64 631.219 1444.32 Q629.865 1445.99 627.438 1446.59 Q630.184 1447.23 631.708 1449.1 Q633.25 1450.96 633.25 1453.65 Q633.25 1457.73 630.749 1459.91 Q628.266 1462.09 623.621 1462.09 Q618.975 1462.09 616.474 1459.91 Q613.991 1457.73 613.991 1453.65 Q613.991 1450.96 615.533 1449.1 Q617.075 1447.23 619.821 1446.59 M618.43 1440.59 Q618.43 1442.78 619.784 1444 Q621.157 1445.22 623.621 1445.22 Q626.066 1445.22 627.438 1444 Q628.83 1442.78 628.83 1440.59 Q628.83 1438.41 627.438 1437.19 Q626.066 1435.97 623.621 1435.97 Q621.157 1435.97 619.784 1437.19 Q618.43 1438.41 618.43 1440.59 Z" fill="#000000" fill-rule="evenodd" fill-opacity="1" /><path clip-path="url(#clip600)" d="M837.31 1458.47 L825.505 1476.92 L837.31 1476.92 L837.31 1458.47 M836.083 1454.4 L841.963 1454.4 L841.963 1476.92 L846.893 1476.92 L846.893 1480.81 L841.963 1480.81 L841.963 1488.96 L837.31 1488.96 L837.31 1480.81 L821.708 1480.81 L821.708 1476.29 L836.083 1454.4 Z" fill="#000000" fill-rule="evenodd" fill-opacity="1" /><path clip-path="url(#clip600)" d="M854.625 1483.08 L859.509 1483.08 L859.509 1488.96 L854.625 1488.96 L854.625 1483.08 Z" fill="#000000" fill-rule="evenodd" fill-opacity="1" /><path clip-path="url(#clip600)" d="M879.694 1457.48 Q876.083 1457.48 874.254 1461.04 Q872.449 1464.58 872.449 1471.71 Q872.449 1478.82 874.254 1482.38 Q876.083 1485.92 879.694 1485.92 Q883.328 1485.92 885.134 1482.38 Q886.963 1478.82 886.963 1471.71 Q886.963 1464.58 885.134 1461.04 Q883.328 1457.48 879.694 1457.48 M879.694 1453.77 Q885.504 1453.77 888.56 1458.38 Q891.639 1462.96 891.639 1471.71 Q891.639 1480.44 888.56 1485.04 Q885.504 1489.63 879.694 1489.63 Q873.884 1489.63 870.805 1485.04 Q867.75 1480.44 867.75 1471.71 Q867.75 1462.96 870.805 1458.38 Q873.884 1453.77 879.694 1453.77 Z" fill="#000000" fill-rule="evenodd" fill-opacity="1" /><path clip-path="url(#clip600)" d="M928.027 1463.49 L917.449 1474.12 L928.027 1484.7 L925.273 1487.5 L914.648 1476.87 L904.023 1487.5 L901.291 1484.7 L911.847 1474.12 L901.291 1463.49 L904.023 1460.69 L914.648 1471.32 L925.273 1460.69 L928.027 1463.49 Z" fill="#000000" fill-rule="evenodd" fill-opacity="1" /><path clip-path="url(#clip600)" d="M940.388 1485.02 L948.027 1485.02 L948.027 1458.66 L939.717 1460.32 L939.717 1456.06 L947.981 1454.4 L952.657 1454.4 L952.657 1485.02 L960.296 1485.02 L960.296 1488.96 L940.388 1488.96 L940.388 1485.02 Z" fill="#000000" fill-rule="evenodd" fill-opacity="1" /><path clip-path="url(#clip600)" d="M979.74 1457.48 Q976.129 1457.48 974.3 1461.04 Q972.495 1464.58 972.495 1471.71 Q972.495 1478.82 974.3 1482.38 Q976.129 1485.92 979.74 1485.92 Q983.374 1485.92 985.18 1482.38 Q987.008 1478.82 987.008 1471.71 Q987.008 1464.58 985.18 1461.04 Q983.374 1457.48 979.74 1457.48 M979.74 1453.77 Q985.55 1453.77 988.606 1458.38 Q991.684 1462.96 991.684 1471.71 Q991.684 1480.44 988.606 1485.04 Q985.55 1489.63 979.74 1489.63 Q973.93 1489.63 970.851 1485.04 Q967.796 1480.44 967.796 1471.71 Q967.796 1462.96 970.851 1458.38 Q973.93 1453.77 979.74 1453.77 Z" fill="#000000" fill-rule="evenodd" fill-opacity="1" /><path clip-path="url(#clip600)" d="M1001.31 1448.21 Q998.606 1448.21 997.045 1449.66 Q995.502 1451.11 995.502 1453.65 Q995.502 1456.19 997.045 1457.63 Q998.606 1459.08 1001.31 1459.08 Q1004.02 1459.08 1005.58 1457.63 Q1007.14 1456.17 1007.14 1453.65 Q1007.14 1451.11 1005.58 1449.66 Q1004.04 1448.21 1001.31 1448.21 M997.515 1446.59 Q995.07 1445.99 993.697 1444.32 Q992.343 1442.64 992.343 1440.24 Q992.343 1436.87 994.731 1434.91 Q997.139 1432.96 1001.31 1432.96 Q1005.51 1432.96 1007.9 1434.91 Q1010.29 1436.87 1010.29 1440.24 Q1010.29 1442.64 1008.91 1444.32 Q1007.56 1445.99 1005.13 1446.59 Q1007.88 1447.23 1009.4 1449.1 Q1010.94 1450.96 1010.94 1453.65 Q1010.94 1457.73 1008.44 1459.91 Q1005.96 1462.09 1001.31 1462.09 Q996.668 1462.09 994.167 1459.91 Q991.684 1457.73 991.684 1453.65 Q991.684 1450.96 993.227 1449.1 Q994.769 1447.23 997.515 1446.59 M996.123 1440.59 Q996.123 1442.78 997.477 1444 Q998.85 1445.22 1001.31 1445.22 Q1003.76 1445.22 1005.13 1444 Q1006.52 1442.78 1006.52 1440.59 Q1006.52 1438.41 1005.13 1437.19 Q1003.76 1435.97 1001.31 1435.97 Q998.85 1435.97 997.477 1437.19 Q996.123 1438.41 996.123 1440.59 Z" fill="#000000" fill-rule="evenodd" fill-opacity="1" /><path clip-path="url(#clip600)" d="M1211.66 1469.81 Q1208.51 1469.81 1206.66 1471.97 Q1204.83 1474.12 1204.83 1477.87 Q1204.83 1481.6 1206.66 1483.77 Q1208.51 1485.92 1211.66 1485.92 Q1214.81 1485.92 1216.64 1483.77 Q1218.49 1481.6 1218.49 1477.87 Q1218.49 1474.12 1216.64 1471.97 Q1214.81 1469.81 1211.66 1469.81 M1220.94 1455.16 L1220.94 1459.42 Q1219.18 1458.59 1217.38 1458.15 Q1215.59 1457.71 1213.83 1457.71 Q1209.21 1457.71 1206.75 1460.83 Q1204.32 1463.96 1203.97 1470.28 Q1205.34 1468.26 1207.4 1467.2 Q1209.46 1466.11 1211.94 1466.11 Q1217.14 1466.11 1220.15 1469.28 Q1223.19 1472.43 1223.19 1477.87 Q1223.19 1483.19 1220.04 1486.41 Q1216.89 1489.63 1211.66 1489.63 Q1205.66 1489.63 1202.49 1485.04 Q1199.32 1480.44 1199.32 1471.71 Q1199.32 1463.52 1203.21 1458.66 Q1207.1 1453.77 1213.65 1453.77 Q1215.41 1453.77 1217.19 1454.12 Q1219 1454.47 1220.94 1455.16 Z" fill="#000000" fill-rule="evenodd" fill-opacity="1" /><path clip-path="url(#clip600)" d="M1231.24 1483.08 L1236.13 1483.08 L1236.13 1488.96 L1231.24 1488.96 L1231.24 1483.08 Z" fill="#000000" fill-rule="evenodd" fill-opacity="1" /><path clip-path="url(#clip600)" d="M1256.31 1457.48 Q1252.7 1457.48 1250.87 1461.04 Q1249.07 1464.58 1249.07 1471.71 Q1249.07 1478.82 1250.87 1482.38 Q1252.7 1485.92 1256.31 1485.92 Q1259.95 1485.92 1261.75 1482.38 Q1263.58 1478.82 1263.58 1471.71 Q1263.58 1464.58 1261.75 1461.04 Q1259.95 1457.48 1256.31 1457.48 M1256.31 1453.77 Q1262.12 1453.77 1265.18 1458.38 Q1268.26 1462.96 1268.26 1471.71 Q1268.26 1480.44 1265.18 1485.04 Q1262.12 1489.63 1256.31 1489.63 Q1250.5 1489.63 1247.42 1485.04 Q1244.37 1480.44 1244.37 1471.71 Q1244.37 1462.96 1247.42 1458.38 Q1250.5 1453.77 1256.31 1453.77 Z" fill="#000000" fill-rule="evenodd" fill-opacity="1" /><path clip-path="url(#clip600)" d="M1304.64 1463.49 L1294.07 1474.12 L1304.64 1484.7 L1301.89 1487.5 L1291.26 1476.87 L1280.64 1487.5 L1277.91 1484.7 L1288.46 1474.12 L1277.91 1463.49 L1280.64 1460.69 L1291.26 1471.32 L1301.89 1460.69 L1304.64 1463.49 Z" fill="#000000" fill-rule="evenodd" fill-opacity="1" /><path clip-path="url(#clip600)" d="M1317.01 1485.02 L1324.64 1485.02 L1324.64 1458.66 L1316.33 1460.32 L1316.33 1456.06 L1324.6 1454.4 L1329.27 1454.4 L1329.27 1485.02 L1336.91 1485.02 L1336.91 1488.96 L1317.01 1488.96 L1317.01 1485.02 Z" fill="#000000" fill-rule="evenodd" fill-opacity="1" /><path clip-path="url(#clip600)" d="M1356.36 1457.48 Q1352.75 1457.48 1350.92 1461.04 Q1349.11 1464.58 1349.11 1471.71 Q1349.11 1478.82 1350.92 1482.38 Q1352.75 1485.92 1356.36 1485.92 Q1359.99 1485.92 1361.8 1482.38 Q1363.63 1478.82 1363.63 1471.71 Q1363.63 1464.58 1361.8 1461.04 Q1359.99 1457.48 1356.36 1457.48 M1356.36 1453.77 Q1362.17 1453.77 1365.22 1458.38 Q1368.3 1462.96 1368.3 1471.71 Q1368.3 1480.44 1365.22 1485.04 Q1362.17 1489.63 1356.36 1489.63 Q1350.55 1489.63 1347.47 1485.04 Q1344.41 1480.44 1344.41 1471.71 Q1344.41 1462.96 1347.47 1458.38 Q1350.55 1453.77 1356.36 1453.77 Z" fill="#000000" fill-rule="evenodd" fill-opacity="1" /><path clip-path="url(#clip600)" d="M1377.93 1448.21 Q1375.22 1448.21 1373.66 1449.66 Q1372.12 1451.11 1372.12 1453.65 Q1372.12 1456.19 1373.66 1457.63 Q1375.22 1459.08 1377.93 1459.08 Q1380.64 1459.08 1382.2 1457.63 Q1383.76 1456.17 1383.76 1453.65 Q1383.76 1451.11 1382.2 1449.66 Q1380.66 1448.21 1377.93 1448.21 M1374.13 1446.59 Q1371.69 1445.99 1370.31 1444.32 Q1368.96 1442.64 1368.96 1440.24 Q1368.96 1436.87 1371.35 1434.91 Q1373.76 1432.96 1377.93 1432.96 Q1382.13 1432.96 1384.51 1434.91 Q1386.9 1436.87 1386.9 1440.24 Q1386.9 1442.64 1385.53 1444.32 Q1384.18 1445.99 1381.75 1446.59 Q1384.49 1447.23 1386.02 1449.1 Q1387.56 1450.96 1387.56 1453.65 Q1387.56 1457.73 1385.06 1459.91 Q1382.58 1462.09 1377.93 1462.09 Q1373.29 1462.09 1370.78 1459.91 Q1368.3 1457.73 1368.3 1453.65 Q1368.3 1450.96 1369.84 1449.1 Q1371.39 1447.23 1374.13 1446.59 M1372.74 1440.59 Q1372.74 1442.78 1374.09 1444 Q1375.47 1445.22 1377.93 1445.22 Q1380.38 1445.22 1381.75 1444 Q1383.14 1442.78 1383.14 1440.59 Q1383.14 1438.41 1381.75 1437.19 Q1380.38 1435.97 1377.93 1435.97 Q1375.47 1435.97 1374.09 1437.19 Q1372.74 1438.41 1372.74 1440.59 Z" fill="#000000" fill-rule="evenodd" fill-opacity="1" /><path clip-path="url(#clip600)" d="M1588.24 1472.54 Q1584.91 1472.54 1582.99 1474.33 Q1581.09 1476.11 1581.09 1479.23 Q1581.09 1482.36 1582.99 1484.14 Q1584.91 1485.92 1588.24 1485.92 Q1591.57 1485.92 1593.5 1484.14 Q1595.42 1482.34 1595.42 1479.23 Q1595.42 1476.11 1593.5 1474.33 Q1591.6 1472.54 1588.24 1472.54 M1583.57 1470.55 Q1580.56 1469.81 1578.87 1467.75 Q1577.2 1465.69 1577.2 1462.73 Q1577.2 1458.59 1580.14 1456.18 Q1583.1 1453.77 1588.24 1453.77 Q1593.4 1453.77 1596.34 1456.18 Q1599.28 1458.59 1599.28 1462.73 Q1599.28 1465.69 1597.59 1467.75 Q1595.93 1469.81 1592.94 1470.55 Q1596.32 1471.34 1598.19 1473.63 Q1600.09 1475.92 1600.09 1479.23 Q1600.09 1484.26 1597.01 1486.94 Q1593.96 1489.63 1588.24 1489.63 Q1582.52 1489.63 1579.44 1486.94 Q1576.39 1484.26 1576.39 1479.23 Q1576.39 1475.92 1578.29 1473.63 Q1580.19 1471.34 1583.57 1470.55 M1581.85 1463.17 Q1581.85 1465.85 1583.52 1467.36 Q1585.21 1468.86 1588.24 1468.86 Q1591.25 1468.86 1592.94 1467.36 Q1594.65 1465.85 1594.65 1463.17 Q1594.65 1460.48 1592.94 1458.98 Q1591.25 1457.48 1588.24 1457.48 Q1585.21 1457.48 1583.52 1458.98 Q1581.85 1460.48 1581.85 1463.17 Z" fill="#000000" fill-rule="evenodd" fill-opacity="1" /><path clip-path="url(#clip600)" d="M1608.4 1483.08 L1613.29 1483.08 L1613.29 1488.96 L1608.4 1488.96 L1608.4 1483.08 Z" fill="#000000" fill-rule="evenodd" fill-opacity="1" /><path clip-path="url(#clip600)" d="M1633.47 1457.48 Q1629.86 1457.48 1628.03 1461.04 Q1626.23 1464.58 1626.23 1471.71 Q1626.23 1478.82 1628.03 1482.38 Q1629.86 1485.92 1633.47 1485.92 Q1637.11 1485.92 1638.91 1482.38 Q1640.74 1478.82 1640.74 1471.71 Q1640.74 1464.58 1638.91 1461.04 Q1637.11 1457.48 1633.47 1457.48 M1633.47 1453.77 Q1639.28 1453.77 1642.34 1458.38 Q1645.42 1462.96 1645.42 1471.71 Q1645.42 1480.44 1642.34 1485.04 Q1639.28 1489.63 1633.47 1489.63 Q1627.66 1489.63 1624.58 1485.04 Q1621.53 1480.44 1621.53 1471.71 Q1621.53 1462.96 1624.58 1458.38 Q1627.66 1453.77 1633.47 1453.77 Z" fill="#000000" fill-rule="evenodd" fill-opacity="1" /><path clip-path="url(#clip600)" d="M1681.81 1463.49 L1671.23 1474.12 L1681.81 1484.7 L1679.05 1487.5 L1668.43 1476.87 L1657.8 1487.5 L1655.07 1484.7 L1665.62 1474.12 L1655.07 1463.49 L1657.8 1460.69 L1668.43 1471.32 L1679.05 1460.69 L1681.81 1463.49 Z" fill="#000000" fill-rule="evenodd" fill-opacity="1" /><path clip-path="url(#clip600)" d="M1694.17 1485.02 L1701.81 1485.02 L1701.81 1458.66 L1693.5 1460.32 L1693.5 1456.06 L1701.76 1454.4 L1706.43 1454.4 L1706.43 1485.02 L1714.07 1485.02 L1714.07 1488.96 L1694.17 1488.96 L1694.17 1485.02 Z" fill="#000000" fill-rule="evenodd" fill-opacity="1" /><path clip-path="url(#clip600)" d="M1733.52 1457.48 Q1729.91 1457.48 1728.08 1461.04 Q1726.27 1464.58 1726.27 1471.71 Q1726.27 1478.82 1728.08 1482.38 Q1729.91 1485.92 1733.52 1485.92 Q1737.15 1485.92 1738.96 1482.38 Q1740.79 1478.82 1740.79 1471.71 Q1740.79 1464.58 1738.96 1461.04 Q1737.15 1457.48 1733.52 1457.48 M1733.52 1453.77 Q1739.33 1453.77 1742.38 1458.38 Q1745.46 1462.96 1745.46 1471.71 Q1745.46 1480.44 1742.38 1485.04 Q1739.33 1489.63 1733.52 1489.63 Q1727.71 1489.63 1724.63 1485.04 Q1721.57 1480.44 1721.57 1471.71 Q1721.57 1462.96 1724.63 1458.38 Q1727.71 1453.77 1733.52 1453.77 Z" fill="#000000" fill-rule="evenodd" fill-opacity="1" /><path clip-path="url(#clip600)" d="M1755.09 1448.21 Q1752.38 1448.21 1750.82 1449.66 Q1749.28 1451.11 1749.28 1453.65 Q1749.28 1456.19 1750.82 1457.63 Q1752.38 1459.08 1755.09 1459.08 Q1757.8 1459.08 1759.36 1457.63 Q1760.92 1456.17 1760.92 1453.65 Q1760.92 1451.11 1759.36 1449.66 Q1757.82 1448.21 1755.09 1448.21 M1751.29 1446.59 Q1748.85 1445.99 1747.47 1444.32 Q1746.12 1442.64 1746.12 1440.24 Q1746.12 1436.87 1748.51 1434.91 Q1750.92 1432.96 1755.09 1432.96 Q1759.29 1432.96 1761.67 1434.91 Q1764.06 1436.87 1764.06 1440.24 Q1764.06 1442.64 1762.69 1444.32 Q1761.34 1445.99 1758.91 1446.59 Q1761.66 1447.23 1763.18 1449.1 Q1764.72 1450.96 1764.72 1453.65 Q1764.72 1457.73 1762.22 1459.91 Q1759.74 1462.09 1755.09 1462.09 Q1750.45 1462.09 1747.95 1459.91 Q1745.46 1457.73 1745.46 1453.65 Q1745.46 1450.96 1747 1449.1 Q1748.55 1447.23 1751.29 1446.59 M1749.9 1440.59 Q1749.9 1442.78 1751.26 1444 Q1752.63 1445.22 1755.09 1445.22 Q1757.54 1445.22 1758.91 1444 Q1760.3 1442.78 1760.3 1440.59 Q1760.3 1438.41 1758.91 1437.19 Q1757.54 1435.97 1755.09 1435.97 Q1752.63 1435.97 1751.26 1437.19 Q1749.9 1438.41 1749.9 1440.59 Z" fill="#000000" fill-rule="evenodd" fill-opacity="1" /><path clip-path="url(#clip600)" d="M1955.11 1485.02 L1962.75 1485.02 L1962.75 1458.66 L1954.44 1460.32 L1954.44 1456.06 L1962.71 1454.4 L1967.38 1454.4 L1967.38 1485.02 L1975.02 1485.02 L1975.02 1488.96 L1955.11 1488.96 L1955.11 1485.02 Z" fill="#000000" fill-rule="evenodd" fill-opacity="1" /><path clip-path="url(#clip600)" d="M1984.47 1483.08 L1989.35 1483.08 L1989.35 1488.96 L1984.47 1488.96 L1984.47 1483.08 Z" fill="#000000" fill-rule="evenodd" fill-opacity="1" /><path clip-path="url(#clip600)" d="M2009.54 1457.48 Q2005.92 1457.48 2004.1 1461.04 Q2002.29 1464.58 2002.29 1471.71 Q2002.29 1478.82 2004.1 1482.38 Q2005.92 1485.92 2009.54 1485.92 Q2013.17 1485.92 2014.97 1482.38 Q2016.8 1478.82 2016.8 1471.71 Q2016.8 1464.58 2014.97 1461.04 Q2013.17 1457.48 2009.54 1457.48 M2009.54 1453.77 Q2015.35 1453.77 2018.4 1458.38 Q2021.48 1462.96 2021.48 1471.71 Q2021.48 1480.44 2018.4 1485.04 Q2015.35 1489.63 2009.54 1489.63 Q2003.73 1489.63 2000.65 1485.04 Q1997.59 1480.44 1997.59 1471.71 Q1997.59 1462.96 2000.65 1458.38 Q2003.73 1453.77 2009.54 1453.77 Z" fill="#000000" fill-rule="evenodd" fill-opacity="1" /><path clip-path="url(#clip600)" d="M2057.87 1463.49 L2047.29 1474.12 L2057.87 1484.7 L2055.11 1487.5 L2044.49 1476.87 L2033.86 1487.5 L2031.13 1484.7 L2041.69 1474.12 L2031.13 1463.49 L2033.86 1460.69 L2044.49 1471.32 L2055.11 1460.69 L2057.87 1463.49 Z" fill="#000000" fill-rule="evenodd" fill-opacity="1" /><path clip-path="url(#clip600)" d="M2070.23 1485.02 L2077.87 1485.02 L2077.87 1458.66 L2069.56 1460.32 L2069.56 1456.06 L2077.82 1454.4 L2082.5 1454.4 L2082.5 1485.02 L2090.14 1485.02 L2090.14 1488.96 L2070.23 1488.96 L2070.23 1485.02 Z" fill="#000000" fill-rule="evenodd" fill-opacity="1" /><path clip-path="url(#clip600)" d="M2109.58 1457.48 Q2105.97 1457.48 2104.14 1461.04 Q2102.34 1464.58 2102.34 1471.71 Q2102.34 1478.82 2104.14 1482.38 Q2105.97 1485.92 2109.58 1485.92 Q2113.22 1485.92 2115.02 1482.38 Q2116.85 1478.82 2116.85 1471.71 Q2116.85 1464.58 2115.02 1461.04 Q2113.22 1457.48 2109.58 1457.48 M2109.58 1453.77 Q2115.39 1453.77 2118.45 1458.38 Q2121.53 1462.96 2121.53 1471.71 Q2121.53 1480.44 2118.45 1485.04 Q2115.39 1489.63 2109.58 1489.63 Q2103.77 1489.63 2100.69 1485.04 Q2097.64 1480.44 2097.64 1471.71 Q2097.64 1462.96 2100.69 1458.38 Q2103.77 1453.77 2109.58 1453.77 Z" fill="#000000" fill-rule="evenodd" fill-opacity="1" /><path clip-path="url(#clip600)" d="M2123.33 1460.96 L2123.33 1457.5 Q2124.76 1458.18 2126.23 1458.54 Q2127.69 1458.89 2129.1 1458.89 Q2132.87 1458.89 2134.84 1456.37 Q2136.83 1453.84 2137.12 1448.68 Q2136.03 1450.3 2134.35 1451.16 Q2132.68 1452.03 2130.65 1452.03 Q2126.43 1452.03 2123.97 1449.49 Q2121.53 1446.93 2121.53 1442.51 Q2121.53 1438.19 2124.08 1435.57 Q2126.64 1432.96 2130.89 1432.96 Q2135.76 1432.96 2138.32 1436.7 Q2140.9 1440.43 2140.9 1447.53 Q2140.9 1454.17 2137.74 1458.14 Q2134.6 1462.09 2129.27 1462.09 Q2127.84 1462.09 2126.38 1461.81 Q2124.91 1461.53 2123.33 1460.96 M2130.89 1449.06 Q2133.45 1449.06 2134.94 1447.31 Q2136.44 1445.56 2136.44 1442.51 Q2136.44 1439.48 2134.94 1437.74 Q2133.45 1435.97 2130.89 1435.97 Q2128.33 1435.97 2126.83 1437.74 Q2125.34 1439.48 2125.34 1442.51 Q2125.34 1445.56 2126.83 1447.31 Q2128.33 1449.06 2130.89 1449.06 Z" fill="#000000" fill-rule="evenodd" fill-opacity="1" /><path clip-path="url(#clip600)" d="M1071.39 1567.41 L1071.39 1554.64 L1060.89 1554.64 L1060.89 1549.36 L1077.75 1549.36 L1077.75 1569.76 Q1074.03 1572.4 1069.54 1573.77 Q1065.06 1575.11 1059.96 1575.11 Q1048.82 1575.11 1042.52 1568.62 Q1036.25 1562.09 1036.25 1550.47 Q1036.25 1538.82 1042.52 1532.33 Q1048.82 1525.81 1059.96 1525.81 Q1064.61 1525.81 1068.78 1526.95 Q1072.98 1528.1 1076.51 1530.33 L1076.51 1537.17 Q1072.95 1534.15 1068.94 1532.62 Q1064.93 1531.09 1060.5 1531.09 Q1051.78 1531.09 1047.39 1535.96 Q1043.03 1540.83 1043.03 1550.47 Q1043.03 1560.09 1047.39 1564.96 Q1051.78 1569.82 1060.5 1569.82 Q1063.91 1569.82 1066.58 1569.25 Q1069.26 1568.65 1071.39 1567.41 Z" fill="#000000" fill-rule="evenodd" fill-opacity="1" /><path clip-path="url(#clip600)" d="M1119.74 1554.9 L1119.74 1557.76 L1092.81 1557.76 Q1093.19 1563.81 1096.44 1566.99 Q1099.72 1570.14 1105.54 1570.14 Q1108.91 1570.14 1112.07 1569.32 Q1115.25 1568.49 1118.37 1566.83 L1118.37 1572.37 Q1115.22 1573.71 1111.91 1574.41 Q1108.6 1575.11 1105.19 1575.11 Q1096.66 1575.11 1091.66 1570.14 Q1086.7 1565.18 1086.7 1556.71 Q1086.7 1547.96 1091.41 1542.83 Q1096.15 1537.68 1104.17 1537.68 Q1111.37 1537.68 1115.54 1542.33 Q1119.74 1546.94 1119.74 1554.9 M1113.88 1553.18 Q1113.82 1548.37 1111.17 1545.51 Q1108.56 1542.64 1104.24 1542.64 Q1099.33 1542.64 1096.37 1545.41 Q1093.45 1548.18 1093 1553.21 L1113.88 1553.18 Z" fill="#000000" fill-rule="evenodd" fill-opacity="1" /><path clip-path="url(#clip600)" d="M1158.98 1552.67 L1158.98 1574.19 L1153.12 1574.19 L1153.12 1552.86 Q1153.12 1547.8 1151.15 1545.29 Q1149.18 1542.77 1145.23 1542.77 Q1140.49 1542.77 1137.75 1545.79 Q1135.01 1548.82 1135.01 1554.04 L1135.01 1574.19 L1129.13 1574.19 L1129.13 1538.54 L1135.01 1538.54 L1135.01 1544.08 Q1137.11 1540.86 1139.95 1539.27 Q1142.81 1537.68 1146.54 1537.68 Q1152.68 1537.68 1155.83 1541.5 Q1158.98 1545.29 1158.98 1552.67 Z" fill="#000000" fill-rule="evenodd" fill-opacity="1" /><path clip-path="url(#clip600)" d="M1201.15 1554.9 L1201.15 1557.76 L1174.23 1557.76 Q1174.61 1563.81 1177.86 1566.99 Q1181.13 1570.14 1186.96 1570.14 Q1190.33 1570.14 1193.48 1569.32 Q1196.67 1568.49 1199.79 1566.83 L1199.79 1572.37 Q1196.63 1573.71 1193.32 1574.41 Q1190.01 1575.11 1186.61 1575.11 Q1178.08 1575.11 1173.08 1570.14 Q1168.12 1565.18 1168.12 1556.71 Q1168.12 1547.96 1172.83 1542.83 Q1177.57 1537.68 1185.59 1537.68 Q1192.78 1537.68 1196.95 1542.33 Q1201.15 1546.94 1201.15 1554.9 M1195.3 1553.18 Q1195.23 1548.37 1192.59 1545.51 Q1189.98 1542.64 1185.65 1542.64 Q1180.75 1542.64 1177.79 1545.41 Q1174.86 1548.18 1174.42 1553.21 L1195.3 1553.18 Z" fill="#000000" fill-rule="evenodd" fill-opacity="1" /><path clip-path="url(#clip600)" d="M1231.42 1544.01 Q1230.44 1543.44 1229.26 1543.18 Q1228.11 1542.9 1226.71 1542.9 Q1221.75 1542.9 1219.07 1546.14 Q1216.43 1549.36 1216.43 1555.41 L1216.43 1574.19 L1210.54 1574.19 L1210.54 1538.54 L1216.43 1538.54 L1216.43 1544.08 Q1218.28 1540.83 1221.24 1539.27 Q1224.2 1537.68 1228.43 1537.68 Q1229.04 1537.68 1229.77 1537.77 Q1230.5 1537.84 1231.39 1538 L1231.42 1544.01 Z" fill="#000000" fill-rule="evenodd" fill-opacity="1" /><path clip-path="url(#clip600)" d="M1253.77 1556.27 Q1246.67 1556.27 1243.93 1557.89 Q1241.19 1559.51 1241.19 1563.43 Q1241.19 1566.55 1243.23 1568.39 Q1245.3 1570.21 1248.83 1570.21 Q1253.7 1570.21 1256.63 1566.77 Q1259.59 1563.3 1259.59 1557.57 L1259.59 1556.27 L1253.77 1556.27 M1265.45 1553.85 L1265.45 1574.19 L1259.59 1574.19 L1259.59 1568.77 Q1257.59 1572.02 1254.59 1573.58 Q1251.6 1575.11 1247.27 1575.11 Q1241.8 1575.11 1238.55 1572.05 Q1235.34 1568.97 1235.34 1563.81 Q1235.34 1557.79 1239.35 1554.74 Q1243.39 1551.68 1251.38 1551.68 L1259.59 1551.68 L1259.59 1551.11 Q1259.59 1547.07 1256.92 1544.87 Q1254.28 1542.64 1249.47 1542.64 Q1246.41 1542.64 1243.52 1543.38 Q1240.62 1544.11 1237.95 1545.57 L1237.95 1540.16 Q1241.16 1538.92 1244.19 1538.31 Q1247.21 1537.68 1250.07 1537.68 Q1257.81 1537.68 1261.63 1541.69 Q1265.45 1545.7 1265.45 1553.85 Z" fill="#000000" fill-rule="evenodd" fill-opacity="1" /><path clip-path="url(#clip600)" d="M1283.3 1528.42 L1283.3 1538.54 L1295.37 1538.54 L1295.37 1543.09 L1283.3 1543.09 L1283.3 1562.44 Q1283.3 1566.8 1284.48 1568.04 Q1285.69 1569.28 1289.35 1569.28 L1295.37 1569.28 L1295.37 1574.19 L1289.35 1574.19 Q1282.57 1574.19 1279.99 1571.67 Q1277.42 1569.12 1277.42 1562.44 L1277.42 1543.09 L1273.12 1543.09 L1273.12 1538.54 L1277.42 1538.54 L1277.42 1528.42 L1283.3 1528.42 Z" fill="#000000" fill-rule="evenodd" fill-opacity="1" /><path clip-path="url(#clip600)" d="M1303.07 1538.54 L1308.93 1538.54 L1308.93 1574.19 L1303.07 1574.19 L1303.07 1538.54 M1303.07 1524.66 L1308.93 1524.66 L1308.93 1532.08 L1303.07 1532.08 L1303.07 1524.66 Z" fill="#000000" fill-rule="evenodd" fill-opacity="1" /><path clip-path="url(#clip600)" d="M1334.99 1542.64 Q1330.28 1542.64 1327.54 1546.34 Q1324.81 1550 1324.81 1556.39 Q1324.81 1562.79 1327.51 1566.48 Q1330.25 1570.14 1334.99 1570.14 Q1339.67 1570.14 1342.41 1566.45 Q1345.15 1562.76 1345.15 1556.39 Q1345.15 1550.06 1342.41 1546.37 Q1339.67 1542.64 1334.99 1542.64 M1334.99 1537.68 Q1342.63 1537.68 1346.99 1542.64 Q1351.35 1547.61 1351.35 1556.39 Q1351.35 1565.15 1346.99 1570.14 Q1342.63 1575.11 1334.99 1575.11 Q1327.32 1575.11 1322.96 1570.14 Q1318.63 1565.15 1318.63 1556.39 Q1318.63 1547.61 1322.96 1542.64 Q1327.32 1537.68 1334.99 1537.68 Z" fill="#000000" fill-rule="evenodd" fill-opacity="1" /><path clip-path="url(#clip600)" d="M1390.69 1552.67 L1390.69 1574.19 L1384.84 1574.19 L1384.84 1552.86 Q1384.84 1547.8 1382.86 1545.29 Q1380.89 1542.77 1376.94 1542.77 Q1372.2 1542.77 1369.46 1545.79 Q1366.73 1548.82 1366.73 1554.04 L1366.73 1574.19 L1360.84 1574.19 L1360.84 1538.54 L1366.73 1538.54 L1366.73 1544.08 Q1368.83 1540.86 1371.66 1539.27 Q1374.52 1537.68 1378.25 1537.68 Q1384.39 1537.68 1387.54 1541.5 Q1390.69 1545.29 1390.69 1552.67 Z" fill="#000000" fill-rule="evenodd" fill-opacity="1" /><path clip-path="url(#clip600)" d="M1448.75 1539.91 L1448.75 1545.38 Q1446.27 1544.01 1443.75 1543.34 Q1441.27 1542.64 1438.72 1542.64 Q1433.02 1542.64 1429.87 1546.27 Q1426.72 1549.87 1426.72 1556.39 Q1426.72 1562.92 1429.87 1566.55 Q1433.02 1570.14 1438.72 1570.14 Q1441.27 1570.14 1443.75 1569.47 Q1446.27 1568.77 1448.75 1567.41 L1448.75 1572.82 Q1446.3 1573.96 1443.66 1574.54 Q1441.05 1575.11 1438.09 1575.11 Q1430.03 1575.11 1425.29 1570.05 Q1420.55 1564.99 1420.55 1556.39 Q1420.55 1547.67 1425.32 1542.68 Q1430.13 1537.68 1438.47 1537.68 Q1441.17 1537.68 1443.75 1538.25 Q1446.33 1538.79 1448.75 1539.91 Z" fill="#000000" fill-rule="evenodd" fill-opacity="1" /><path clip-path="url(#clip600)" d="M1472.75 1542.64 Q1468.04 1542.64 1465.3 1546.34 Q1462.56 1550 1462.56 1556.39 Q1462.56 1562.79 1465.27 1566.48 Q1468 1570.14 1472.75 1570.14 Q1477.43 1570.14 1480.16 1566.45 Q1482.9 1562.76 1482.9 1556.39 Q1482.9 1550.06 1480.16 1546.37 Q1477.43 1542.64 1472.75 1542.64 M1472.75 1537.68 Q1480.39 1537.68 1484.75 1542.64 Q1489.11 1547.61 1489.11 1556.39 Q1489.11 1565.15 1484.75 1570.14 Q1480.39 1575.11 1472.75 1575.11 Q1465.08 1575.11 1460.72 1570.14 Q1456.39 1565.15 1456.39 1556.39 Q1456.39 1547.61 1460.72 1542.64 Q1465.08 1537.68 1472.75 1537.68 Z" fill="#000000" fill-rule="evenodd" fill-opacity="1" /><path clip-path="url(#clip600)" d="M1521.54 1539.59 L1521.54 1545.13 Q1519.06 1543.85 1516.38 1543.22 Q1513.71 1542.58 1510.85 1542.58 Q1506.48 1542.58 1504.29 1543.92 Q1502.12 1545.25 1502.12 1547.93 Q1502.12 1549.96 1503.68 1551.14 Q1505.24 1552.29 1509.95 1553.34 L1511.96 1553.78 Q1518.2 1555.12 1520.81 1557.57 Q1523.45 1559.99 1523.45 1564.35 Q1523.45 1569.32 1519.5 1572.21 Q1515.59 1575.11 1508.71 1575.11 Q1505.85 1575.11 1502.73 1574.54 Q1499.64 1573.99 1496.2 1572.88 L1496.2 1566.83 Q1499.45 1568.52 1502.6 1569.38 Q1505.75 1570.21 1508.84 1570.21 Q1512.98 1570.21 1515.21 1568.81 Q1517.43 1567.37 1517.43 1564.8 Q1517.43 1562.41 1515.81 1561.14 Q1514.22 1559.86 1508.78 1558.68 L1506.74 1558.21 Q1501.3 1557.06 1498.88 1554.71 Q1496.46 1552.32 1496.46 1548.18 Q1496.46 1543.15 1500.02 1540.42 Q1503.59 1537.68 1510.15 1537.68 Q1513.39 1537.68 1516.26 1538.16 Q1519.12 1538.63 1521.54 1539.59 Z" fill="#000000" fill-rule="evenodd" fill-opacity="1" /><path clip-path="url(#clip600)" d="M1538.57 1528.42 L1538.57 1538.54 L1550.63 1538.54 L1550.63 1543.09 L1538.57 1543.09 L1538.57 1562.44 Q1538.57 1566.8 1539.75 1568.04 Q1540.96 1569.28 1544.62 1569.28 L1550.63 1569.28 L1550.63 1574.19 L1544.62 1574.19 Q1537.84 1574.19 1535.26 1571.67 Q1532.68 1569.12 1532.68 1562.44 L1532.68 1543.09 L1528.38 1543.09 L1528.38 1538.54 L1532.68 1538.54 L1532.68 1528.42 L1538.57 1528.42 Z" fill="#000000" fill-rule="evenodd" fill-opacity="1" /><polyline clip-path="url(#clip602)" style="stroke:#000000; stroke-linecap:butt; stroke-linejoin:round; stroke-width:2; stroke-opacity:0.1; fill:none" points="
  234.125,1374.46 2352.76,1374.46 
  "/>
<polyline clip-path="url(#clip602)" style="stroke:#000000; stroke-linecap:butt; stroke-linejoin:round; stroke-width:2; stroke-opacity:0.1; fill:none" points="
  234.125,1092.01 2352.76,1092.01 
  "/>
<polyline clip-path="url(#clip602)" style="stroke:#000000; stroke-linecap:butt; stroke-linejoin:round; stroke-width:2; stroke-opacity:0.1; fill:none" points="
  234.125,809.552 2352.76,809.552 
  "/>
<polyline clip-path="url(#clip602)" style="stroke:#000000; stroke-linecap:butt; stroke-linejoin:round; stroke-width:2; stroke-opacity:0.1; fill:none" points="
  234.125,527.099 2352.76,527.099 
  "/>
<polyline clip-path="url(#clip602)" style="stroke:#000000; stroke-linecap:butt; stroke-linejoin:round; stroke-width:2; stroke-opacity:0.1; fill:none" points="
  234.125,244.645 2352.76,244.645 
  "/>
<polyline clip-path="url(#clip600)" style="stroke:#000000; stroke-linecap:butt; stroke-linejoin:round; stroke-width:4; stroke-opacity:1; fill:none" points="
  234.125,1410.9 234.125,123.472 
  "/>
<polyline clip-path="url(#clip600)" style="stroke:#000000; stroke-linecap:butt; stroke-linejoin:round; stroke-width:4; stroke-opacity:1; fill:none" points="
  234.125,1374.46 253.023,1374.46 
  "/>
<polyline clip-path="url(#clip600)" style="stroke:#000000; stroke-linecap:butt; stroke-linejoin:round; stroke-width:4; stroke-opacity:1; fill:none" points="
  234.125,1092.01 253.023,1092.01 
  "/>
<polyline clip-path="url(#clip600)" style="stroke:#000000; stroke-linecap:butt; stroke-linejoin:round; stroke-width:4; stroke-opacity:1; fill:none" points="
  234.125,809.552 253.023,809.552 
  "/>
<polyline clip-path="url(#clip600)" style="stroke:#000000; stroke-linecap:butt; stroke-linejoin:round; stroke-width:4; stroke-opacity:1; fill:none" points="
  234.125,527.099 253.023,527.099 
  "/>
<polyline clip-path="url(#clip600)" style="stroke:#000000; stroke-linecap:butt; stroke-linejoin:round; stroke-width:4; stroke-opacity:1; fill:none" points="
  234.125,244.645 253.023,244.645 
  "/>
<path clip-path="url(#clip600)" d="M186.181 1360.26 Q182.57 1360.26 180.741 1363.82 Q178.936 1367.37 178.936 1374.49 Q178.936 1381.6 180.741 1385.17 Q182.57 1388.71 186.181 1388.71 Q189.815 1388.71 191.621 1385.17 Q193.45 1381.6 193.45 1374.49 Q193.45 1367.37 191.621 1363.82 Q189.815 1360.26 186.181 1360.26 M186.181 1356.56 Q191.991 1356.56 195.047 1361.16 Q198.125 1365.74 198.125 1374.49 Q198.125 1383.22 195.047 1387.83 Q191.991 1392.41 186.181 1392.41 Q180.371 1392.41 177.292 1387.83 Q174.237 1383.22 174.237 1374.49 Q174.237 1365.74 177.292 1361.16 Q180.371 1356.56 186.181 1356.56 Z" fill="#000000" fill-rule="evenodd" fill-opacity="1" /><path clip-path="url(#clip600)" d="M146.066 1074.73 L164.422 1074.73 L164.422 1078.66 L150.348 1078.66 L150.348 1087.13 Q151.366 1086.79 152.385 1086.62 Q153.403 1086.44 154.422 1086.44 Q160.209 1086.44 163.589 1089.61 Q166.968 1092.78 166.968 1098.2 Q166.968 1103.78 163.496 1106.88 Q160.024 1109.96 153.704 1109.96 Q151.528 1109.96 149.26 1109.59 Q147.015 1109.22 144.607 1108.48 L144.607 1103.78 Q146.691 1104.91 148.913 1105.47 Q151.135 1106.02 153.612 1106.02 Q157.616 1106.02 159.954 1103.92 Q162.292 1101.81 162.292 1098.2 Q162.292 1094.59 159.954 1092.48 Q157.616 1090.37 153.612 1090.37 Q151.737 1090.37 149.862 1090.79 Q148.01 1091.21 146.066 1092.09 L146.066 1074.73 Z" fill="#000000" fill-rule="evenodd" fill-opacity="1" /><path clip-path="url(#clip600)" d="M186.181 1077.8 Q182.57 1077.8 180.741 1081.37 Q178.936 1084.91 178.936 1092.04 Q178.936 1099.15 180.741 1102.71 Q182.57 1106.25 186.181 1106.25 Q189.815 1106.25 191.621 1102.71 Q193.45 1099.15 193.45 1092.04 Q193.45 1084.91 191.621 1081.37 Q189.815 1077.8 186.181 1077.8 M186.181 1074.1 Q191.991 1074.1 195.047 1078.71 Q198.125 1083.29 198.125 1092.04 Q198.125 1100.77 195.047 1105.37 Q191.991 1109.96 186.181 1109.96 Q180.371 1109.96 177.292 1105.37 Q174.237 1100.77 174.237 1092.04 Q174.237 1083.29 177.292 1078.71 Q180.371 1074.1 186.181 1074.1 Z" fill="#000000" fill-rule="evenodd" fill-opacity="1" /><path clip-path="url(#clip600)" d="M116.668 822.897 L124.306 822.897 L124.306 796.532 L115.996 798.198 L115.996 793.939 L124.26 792.272 L128.936 792.272 L128.936 822.897 L136.575 822.897 L136.575 826.832 L116.668 826.832 L116.668 822.897 Z" fill="#000000" fill-rule="evenodd" fill-opacity="1" /><path clip-path="url(#clip600)" d="M156.019 795.351 Q152.408 795.351 150.579 798.916 Q148.774 802.458 148.774 809.587 Q148.774 816.694 150.579 820.258 Q152.408 823.8 156.019 823.8 Q159.653 823.8 161.459 820.258 Q163.288 816.694 163.288 809.587 Q163.288 802.458 161.459 798.916 Q159.653 795.351 156.019 795.351 M156.019 791.647 Q161.829 791.647 164.885 796.254 Q167.964 800.837 167.964 809.587 Q167.964 818.314 164.885 822.92 Q161.829 827.504 156.019 827.504 Q150.209 827.504 147.13 822.92 Q144.075 818.314 144.075 809.587 Q144.075 800.837 147.13 796.254 Q150.209 791.647 156.019 791.647 Z" fill="#000000" fill-rule="evenodd" fill-opacity="1" /><path clip-path="url(#clip600)" d="M186.181 795.351 Q182.57 795.351 180.741 798.916 Q178.936 802.458 178.936 809.587 Q178.936 816.694 180.741 820.258 Q182.57 823.8 186.181 823.8 Q189.815 823.8 191.621 820.258 Q193.45 816.694 193.45 809.587 Q193.45 802.458 191.621 798.916 Q189.815 795.351 186.181 795.351 M186.181 791.647 Q191.991 791.647 195.047 796.254 Q198.125 800.837 198.125 809.587 Q198.125 818.314 195.047 822.92 Q191.991 827.504 186.181 827.504 Q180.371 827.504 177.292 822.92 Q174.237 818.314 174.237 809.587 Q174.237 800.837 177.292 796.254 Q180.371 791.647 186.181 791.647 Z" fill="#000000" fill-rule="evenodd" fill-opacity="1" /><path clip-path="url(#clip600)" d="M116.668 540.443 L124.306 540.443 L124.306 514.078 L115.996 515.745 L115.996 511.485 L124.26 509.819 L128.936 509.819 L128.936 540.443 L136.575 540.443 L136.575 544.379 L116.668 544.379 L116.668 540.443 Z" fill="#000000" fill-rule="evenodd" fill-opacity="1" /><path clip-path="url(#clip600)" d="M146.066 509.819 L164.422 509.819 L164.422 513.754 L150.348 513.754 L150.348 522.226 Q151.366 521.879 152.385 521.717 Q153.403 521.532 154.422 521.532 Q160.209 521.532 163.589 524.703 Q166.968 527.874 166.968 533.291 Q166.968 538.869 163.496 541.971 Q160.024 545.05 153.704 545.05 Q151.528 545.05 149.26 544.68 Q147.015 544.309 144.607 543.568 L144.607 538.869 Q146.691 540.004 148.913 540.559 Q151.135 541.115 153.612 541.115 Q157.616 541.115 159.954 539.008 Q162.292 536.902 162.292 533.291 Q162.292 529.68 159.954 527.573 Q157.616 525.467 153.612 525.467 Q151.737 525.467 149.862 525.883 Q148.01 526.3 146.066 527.18 L146.066 509.819 Z" fill="#000000" fill-rule="evenodd" fill-opacity="1" /><path clip-path="url(#clip600)" d="M186.181 512.897 Q182.57 512.897 180.741 516.462 Q178.936 520.004 178.936 527.133 Q178.936 534.24 180.741 537.805 Q182.57 541.346 186.181 541.346 Q189.815 541.346 191.621 537.805 Q193.45 534.24 193.45 527.133 Q193.45 520.004 191.621 516.462 Q189.815 512.897 186.181 512.897 M186.181 509.194 Q191.991 509.194 195.047 513.8 Q198.125 518.383 198.125 527.133 Q198.125 535.86 195.047 540.467 Q191.991 545.05 186.181 545.05 Q180.371 545.05 177.292 540.467 Q174.237 535.86 174.237 527.133 Q174.237 518.383 177.292 513.8 Q180.371 509.194 186.181 509.194 Z" fill="#000000" fill-rule="evenodd" fill-opacity="1" /><path clip-path="url(#clip600)" d="M119.885 257.99 L136.204 257.99 L136.204 261.925 L114.26 261.925 L114.26 257.99 Q116.922 255.235 121.505 250.605 Q126.112 245.953 127.292 244.61 Q129.538 242.087 130.417 240.351 Q131.32 238.592 131.32 236.902 Q131.32 234.147 129.376 232.411 Q127.455 230.675 124.353 230.675 Q122.154 230.675 119.7 231.439 Q117.269 232.203 114.492 233.754 L114.492 229.031 Q117.316 227.897 119.769 227.319 Q122.223 226.74 124.26 226.74 Q129.63 226.74 132.825 229.425 Q136.019 232.11 136.019 236.601 Q136.019 238.73 135.209 240.652 Q134.422 242.55 132.316 245.142 Q131.737 245.814 128.635 249.031 Q125.533 252.226 119.885 257.99 Z" fill="#000000" fill-rule="evenodd" fill-opacity="1" /><path clip-path="url(#clip600)" d="M156.019 230.444 Q152.408 230.444 150.579 234.008 Q148.774 237.55 148.774 244.68 Q148.774 251.786 150.579 255.351 Q152.408 258.892 156.019 258.892 Q159.653 258.892 161.459 255.351 Q163.288 251.786 163.288 244.68 Q163.288 237.55 161.459 234.008 Q159.653 230.444 156.019 230.444 M156.019 226.74 Q161.829 226.74 164.885 231.346 Q167.964 235.93 167.964 244.68 Q167.964 253.406 164.885 258.013 Q161.829 262.596 156.019 262.596 Q150.209 262.596 147.13 258.013 Q144.075 253.406 144.075 244.68 Q144.075 235.93 147.13 231.346 Q150.209 226.74 156.019 226.74 Z" fill="#000000" fill-rule="evenodd" fill-opacity="1" /><path clip-path="url(#clip600)" d="M186.181 230.444 Q182.57 230.444 180.741 234.008 Q178.936 237.55 178.936 244.68 Q178.936 251.786 180.741 255.351 Q182.57 258.892 186.181 258.892 Q189.815 258.892 191.621 255.351 Q193.45 251.786 193.45 244.68 Q193.45 237.55 191.621 234.008 Q189.815 230.444 186.181 230.444 M186.181 226.74 Q191.991 226.74 195.047 231.346 Q198.125 235.93 198.125 244.68 Q198.125 253.406 195.047 258.013 Q191.991 262.596 186.181 262.596 Q180.371 262.596 177.292 258.013 Q174.237 253.406 174.237 244.68 Q174.237 235.93 177.292 231.346 Q180.371 226.74 186.181 226.74 Z" fill="#000000" fill-rule="evenodd" fill-opacity="1" /><path clip-path="url(#clip600)" d="M20.8447 966.176 Q20.8447 973.179 26.0645 977.316 Q31.2844 981.422 40.2919 981.422 Q49.2675 981.422 54.4874 977.316 Q59.7073 973.179 59.7073 966.176 Q59.7073 959.174 54.4874 955.1 Q49.2675 950.994 40.2919 950.994 Q31.2844 950.994 26.0645 955.1 Q20.8447 959.174 20.8447 966.176 M63.1448 957.169 L72.4069 948.703 L72.4069 956.469 L64.7999 963.503 Q64.8635 964.553 64.8954 965.126 Q64.9272 965.667 64.9272 966.176 Q64.9272 976.202 58.2432 982.218 Q51.5274 988.202 40.2919 988.202 Q29.0246 988.202 22.3406 982.218 Q15.6248 976.202 15.6248 966.176 Q15.6248 956.182 22.3406 950.198 Q29.0246 944.215 40.2919 944.215 Q48.5673 944.215 54.4556 947.557 Q60.3439 950.867 63.1448 957.169 Z" fill="#000000" fill-rule="evenodd" fill-opacity="1" /><path clip-path="url(#clip600)" d="M18.2347 928.619 L28.3562 928.619 L28.3562 916.556 L32.9077 916.556 L32.9077 928.619 L52.2594 928.619 Q56.6199 928.619 57.8613 927.441 Q59.1026 926.232 59.1026 922.571 L59.1026 916.556 L64.0042 916.556 L64.0042 922.571 Q64.0042 929.351 61.4897 931.929 Q58.9434 934.507 52.2594 934.507 L32.9077 934.507 L32.9077 938.804 L28.3562 938.804 L28.3562 934.507 L18.2347 934.507 L18.2347 928.619 Z" fill="#000000" fill-rule="evenodd" fill-opacity="1" /><path clip-path="url(#clip600)" d="M33.7671 885.396 L14.479 885.396 L14.479 879.539 L64.0042 879.539 L64.0042 885.396 L58.657 885.396 Q61.8398 887.242 63.3994 890.074 Q64.9272 892.875 64.9272 896.822 Q64.9272 903.283 59.771 907.357 Q54.6147 911.399 46.212 911.399 Q37.8093 911.399 32.6531 907.357 Q27.4968 903.283 27.4968 896.822 Q27.4968 892.875 29.0564 890.074 Q30.5842 887.242 33.7671 885.396 M46.212 905.352 Q52.6732 905.352 56.3653 902.71 Q60.0256 900.037 60.0256 895.39 Q60.0256 890.743 56.3653 888.069 Q52.6732 885.396 46.212 885.396 Q39.7508 885.396 36.0905 888.069 Q32.3984 890.743 32.3984 895.39 Q32.3984 900.037 36.0905 902.71 Q39.7508 905.352 46.212 905.352 Z" fill="#000000" fill-rule="evenodd" fill-opacity="1" /><path clip-path="url(#clip600)" d="M29.4065 824.03 L34.9447 824.03 Q33.6716 826.513 33.035 829.186 Q32.3984 831.86 32.3984 834.725 Q32.3984 839.085 33.7352 841.281 Q35.072 843.446 37.7456 843.446 Q39.7826 843.446 40.9603 841.886 Q42.1061 840.326 43.1565 835.616 L43.6021 833.611 Q44.9389 827.372 47.3897 824.762 Q49.8086 822.12 54.1691 822.12 Q59.1344 822.12 62.0308 826.067 Q64.9272 829.982 64.9272 836.857 Q64.9272 839.722 64.3543 842.841 Q63.8132 845.928 62.6992 849.366 L56.6518 849.366 Q58.3387 846.119 59.198 842.968 Q60.0256 839.817 60.0256 836.73 Q60.0256 832.592 58.6251 830.364 Q57.1929 828.136 54.6147 828.136 Q52.2276 828.136 50.9545 829.759 Q49.6813 831.351 48.5037 836.793 L48.0262 838.83 Q46.8804 844.273 44.5251 846.692 Q42.138 849.111 38.0002 849.111 Q32.9713 849.111 30.2341 845.546 Q27.4968 841.981 27.4968 835.425 Q27.4968 832.178 27.9743 829.314 Q28.4517 826.449 29.4065 824.03 Z" fill="#000000" fill-rule="evenodd" fill-opacity="1" /><path clip-path="url(#clip600)" d="M29.7248 787.141 L35.1993 787.141 Q33.8307 789.624 33.1623 792.138 Q32.4621 794.621 32.4621 797.167 Q32.4621 802.864 36.0905 806.015 Q39.6872 809.166 46.212 809.166 Q52.7369 809.166 56.3653 806.015 Q59.9619 802.864 59.9619 797.167 Q59.9619 794.621 59.2935 792.138 Q58.5933 789.624 57.2247 787.141 L62.6355 787.141 Q63.7814 789.592 64.3543 792.233 Q64.9272 794.843 64.9272 797.803 Q64.9272 805.856 59.8664 810.599 Q54.8057 815.341 46.212 815.341 Q37.491 815.341 32.4939 810.567 Q27.4968 805.761 27.4968 797.421 Q27.4968 794.716 28.0697 792.138 Q28.6108 789.56 29.7248 787.141 Z" fill="#000000" fill-rule="evenodd" fill-opacity="1" /><path clip-path="url(#clip600)" d="M44.7161 746.464 L47.5806 746.464 L47.5806 773.391 Q53.6281 773.009 56.8109 769.762 Q59.9619 766.484 59.9619 760.66 Q59.9619 757.286 59.1344 754.135 Q58.3069 750.952 56.6518 747.833 L62.1899 747.833 Q63.5267 750.984 64.227 754.294 Q64.9272 757.604 64.9272 761.01 Q64.9272 769.54 59.9619 774.537 Q54.9967 779.502 46.5303 779.502 Q37.7774 779.502 32.6531 774.791 Q27.4968 770.049 27.4968 762.028 Q27.4968 754.835 32.1438 750.665 Q36.7589 746.464 44.7161 746.464 M42.9973 752.32 Q38.1912 752.384 35.3266 755.026 Q32.4621 757.636 32.4621 761.965 Q32.4621 766.866 35.2312 769.826 Q38.0002 772.754 43.0292 773.2 L42.9973 752.32 Z" fill="#000000" fill-rule="evenodd" fill-opacity="1" /><path clip-path="url(#clip600)" d="M42.4881 707.219 L64.0042 707.219 L64.0042 713.076 L42.679 713.076 Q37.6183 713.076 35.1038 715.049 Q32.5894 717.023 32.5894 720.969 Q32.5894 725.712 35.6131 728.449 Q38.6368 731.186 43.8567 731.186 L64.0042 731.186 L64.0042 737.075 L28.3562 737.075 L28.3562 731.186 L33.8944 731.186 Q30.6797 729.086 29.0883 726.253 Q27.4968 723.388 27.4968 719.664 Q27.4968 713.521 31.3163 710.37 Q35.1038 707.219 42.4881 707.219 Z" fill="#000000" fill-rule="evenodd" fill-opacity="1" /><path clip-path="url(#clip600)" d="M46.0847 679.338 Q46.0847 686.435 47.7079 689.173 Q49.3312 691.91 53.2461 691.91 Q56.3653 691.91 58.2114 689.873 Q60.0256 687.804 60.0256 684.271 Q60.0256 679.401 56.5881 676.473 Q53.1188 673.513 47.3897 673.513 L46.0847 673.513 L46.0847 679.338 M43.6657 667.657 L64.0042 667.657 L64.0042 673.513 L58.5933 673.513 Q61.8398 675.518 63.3994 678.51 Q64.9272 681.502 64.9272 685.831 Q64.9272 691.305 61.8716 694.552 Q58.7843 697.766 53.6281 697.766 Q47.6125 697.766 44.5569 693.756 Q41.5014 689.714 41.5014 681.725 L41.5014 673.513 L40.9285 673.513 Q36.8862 673.513 34.6901 676.187 Q32.4621 678.828 32.4621 683.634 Q32.4621 686.69 33.1941 689.586 Q33.9262 692.483 35.3903 695.156 L29.9795 695.156 Q28.7381 691.942 28.1334 688.918 Q27.4968 685.894 27.4968 683.03 Q27.4968 675.295 31.5072 671.476 Q35.5176 667.657 43.6657 667.657 Z" fill="#000000" fill-rule="evenodd" fill-opacity="1" /><path clip-path="url(#clip600)" d="M33.8307 634.937 Q33.2578 635.924 33.0032 637.101 Q32.7167 638.247 32.7167 639.647 Q32.7167 644.613 35.9632 647.286 Q39.1779 649.928 45.2253 649.928 L64.0042 649.928 L64.0042 655.816 L28.3562 655.816 L28.3562 649.928 L33.8944 649.928 Q30.6479 648.082 29.0883 645.122 Q27.4968 642.162 27.4968 637.929 Q27.4968 637.324 27.5923 636.592 Q27.656 635.86 27.8151 634.969 L33.8307 634.937 Z" fill="#000000" fill-rule="evenodd" fill-opacity="1" /><path clip-path="url(#clip600)" d="M28.3562 628.794 L28.3562 622.937 L64.0042 622.937 L64.0042 628.794 L28.3562 628.794 M14.479 628.794 L14.479 622.937 L21.895 622.937 L21.895 628.794 L14.479 628.794 Z" fill="#000000" fill-rule="evenodd" fill-opacity="1" /><path clip-path="url(#clip600)" d="M32.4621 596.87 Q32.4621 601.581 36.1542 604.318 Q39.8145 607.055 46.212 607.055 Q52.6095 607.055 56.3017 604.35 Q59.9619 601.612 59.9619 596.87 Q59.9619 592.191 56.2698 589.454 Q52.5777 586.717 46.212 586.717 Q39.8781 586.717 36.186 589.454 Q32.4621 592.191 32.4621 596.87 M27.4968 596.87 Q27.4968 589.231 32.4621 584.871 Q37.4273 580.51 46.212 580.51 Q54.9649 580.51 59.9619 584.871 Q64.9272 589.231 64.9272 596.87 Q64.9272 604.541 59.9619 608.901 Q54.9649 613.23 46.212 613.23 Q37.4273 613.23 32.4621 608.901 Q27.4968 604.541 27.4968 596.87 Z" fill="#000000" fill-rule="evenodd" fill-opacity="1" /><path clip-path="url(#clip600)" d="M29.4065 548.077 L34.9447 548.077 Q33.6716 550.559 33.035 553.233 Q32.3984 555.907 32.3984 558.771 Q32.3984 563.132 33.7352 565.328 Q35.072 567.492 37.7456 567.492 Q39.7826 567.492 40.9603 565.933 Q42.1061 564.373 43.1565 559.662 L43.6021 557.657 Q44.9389 551.419 47.3897 548.809 Q49.8086 546.167 54.1691 546.167 Q59.1344 546.167 62.0308 550.114 Q64.9272 554.029 64.9272 560.904 Q64.9272 563.768 64.3543 566.887 Q63.8132 569.975 62.6992 573.412 L56.6518 573.412 Q58.3387 570.166 59.198 567.015 Q60.0256 563.864 60.0256 560.776 Q60.0256 556.639 58.6251 554.411 Q57.1929 552.183 54.6147 552.183 Q52.2276 552.183 50.9545 553.806 Q49.6813 555.397 48.5037 560.84 L48.0262 562.877 Q46.8804 568.32 44.5251 570.739 Q42.138 573.158 38.0002 573.158 Q32.9713 573.158 30.2341 569.593 Q27.4968 566.028 27.4968 559.471 Q27.4968 556.225 27.9743 553.36 Q28.4517 550.496 29.4065 548.077 Z" fill="#000000" fill-rule="evenodd" fill-opacity="1" /><path clip-path="url(#clip600)" d="M560.47 63.9476 L560.47 47.7034 L547.102 47.7034 L547.102 40.9789 L568.572 40.9789 L568.572 66.9452 Q563.832 70.3075 558.121 72.0494 Q552.409 73.7508 545.927 73.7508 Q531.749 73.7508 523.728 65.4869 Q515.748 57.1826 515.748 42.3968 Q515.748 27.5705 523.728 19.3066 Q531.749 11.0023 545.927 11.0023 Q551.842 11.0023 557.148 12.4606 Q562.496 13.9189 566.992 16.7545 L566.992 25.464 Q562.455 21.6156 557.351 19.6712 Q552.247 17.7268 546.616 17.7268 Q535.516 17.7268 529.926 23.9246 Q524.377 30.1225 524.377 42.3968 Q524.377 54.6305 529.926 60.8284 Q535.516 67.0263 546.616 67.0263 Q550.95 67.0263 554.353 66.2971 Q557.756 65.5274 560.47 63.9476 Z" fill="#000000" fill-rule="evenodd" fill-opacity="1" /><path clip-path="url(#clip600)" d="M622.003 48.0275 L622.003 51.6733 L587.733 51.6733 Q588.219 59.3701 592.351 63.421 Q596.523 67.4314 603.936 67.4314 Q608.23 67.4314 612.241 66.3781 Q616.292 65.3249 620.261 63.2184 L620.261 70.267 Q616.251 71.9684 612.038 72.8596 Q607.825 73.7508 603.491 73.7508 Q592.634 73.7508 586.274 67.4314 Q579.955 61.1119 579.955 50.3365 Q579.955 39.1965 585.95 32.6746 Q591.986 26.1121 602.194 26.1121 Q611.349 26.1121 616.656 32.0264 Q622.003 37.9003 622.003 48.0275 M614.55 45.84 Q614.469 39.7232 611.106 36.0774 Q607.785 32.4315 602.275 32.4315 Q596.037 32.4315 592.27 35.9558 Q588.543 39.4801 587.976 45.8805 L614.55 45.84 Z" fill="#000000" fill-rule="evenodd" fill-opacity="1" /><path clip-path="url(#clip600)" d="M671.951 45.1919 L671.951 72.576 L664.497 72.576 L664.497 45.4349 Q664.497 38.994 661.986 35.7938 Q659.474 32.5936 654.451 32.5936 Q648.415 32.5936 644.931 36.4419 Q641.448 40.2903 641.448 46.9338 L641.448 72.576 L633.953 72.576 L633.953 27.2059 L641.448 27.2059 L641.448 34.2544 Q644.121 30.163 647.727 28.1376 Q651.372 26.1121 656.112 26.1121 Q663.93 26.1121 667.941 30.9732 Q671.951 35.7938 671.951 45.1919 Z" fill="#000000" fill-rule="evenodd" fill-opacity="1" /><path clip-path="url(#clip600)" d="M725.625 48.0275 L725.625 51.6733 L691.355 51.6733 Q691.841 59.3701 695.973 63.421 Q700.145 67.4314 707.558 67.4314 Q711.852 67.4314 715.863 66.3781 Q719.914 65.3249 723.884 63.2184 L723.884 70.267 Q719.873 71.9684 715.66 72.8596 Q711.447 73.7508 707.113 73.7508 Q696.256 73.7508 689.896 67.4314 Q683.577 61.1119 683.577 50.3365 Q683.577 39.1965 689.572 32.6746 Q695.608 26.1121 705.817 26.1121 Q714.972 26.1121 720.278 32.0264 Q725.625 37.9003 725.625 48.0275 M718.172 45.84 Q718.091 39.7232 714.729 36.0774 Q711.407 32.4315 705.898 32.4315 Q699.659 32.4315 695.892 35.9558 Q692.165 39.4801 691.598 45.8805 L718.172 45.84 Z" fill="#000000" fill-rule="evenodd" fill-opacity="1" /><path clip-path="url(#clip600)" d="M764.15 34.1734 Q762.894 33.4443 761.395 33.1202 Q759.937 32.7556 758.154 32.7556 Q751.835 32.7556 748.432 36.8875 Q745.07 40.9789 745.07 48.6757 L745.07 72.576 L737.576 72.576 L737.576 27.2059 L745.07 27.2059 L745.07 34.2544 Q747.419 30.1225 751.187 28.1376 Q754.954 26.1121 760.342 26.1121 Q761.111 26.1121 762.043 26.2337 Q762.975 26.3147 764.109 26.5172 L764.15 34.1734 Z" fill="#000000" fill-rule="evenodd" fill-opacity="1" /><path clip-path="url(#clip600)" d="M792.587 49.7694 Q783.553 49.7694 780.07 51.8354 Q776.586 53.9013 776.586 58.8839 Q776.586 62.8538 779.178 65.2034 Q781.811 67.5124 786.308 67.5124 Q792.506 67.5124 796.233 63.1374 Q800 58.7219 800 51.4303 L800 49.7694 L792.587 49.7694 M807.454 46.6907 L807.454 72.576 L800 72.576 L800 65.6895 Q797.448 69.8214 793.64 71.8063 Q789.832 73.7508 784.323 73.7508 Q777.355 73.7508 773.224 69.8619 Q769.132 65.9325 769.132 59.3701 Q769.132 51.7138 774.236 47.825 Q779.381 43.9361 789.549 43.9361 L800 43.9361 L800 43.2069 Q800 38.0623 796.597 35.2672 Q793.235 32.4315 787.118 32.4315 Q783.229 32.4315 779.543 33.3632 Q775.857 34.295 772.454 36.1584 L772.454 29.2718 Q776.545 27.692 780.394 26.9223 Q784.242 26.1121 787.888 26.1121 Q797.732 26.1121 802.593 31.2163 Q807.454 36.3204 807.454 46.6907 Z" fill="#000000" fill-rule="evenodd" fill-opacity="1" /><path clip-path="url(#clip600)" d="M830.179 14.324 L830.179 27.2059 L845.532 27.2059 L845.532 32.9987 L830.179 32.9987 L830.179 57.6282 Q830.179 63.1779 831.678 64.7578 Q833.217 66.3376 837.876 66.3376 L845.532 66.3376 L845.532 72.576 L837.876 72.576 Q829.248 72.576 825.966 69.3758 Q822.685 66.1351 822.685 57.6282 L822.685 32.9987 L817.216 32.9987 L817.216 27.2059 L822.685 27.2059 L822.685 14.324 L830.179 14.324 Z" fill="#000000" fill-rule="evenodd" fill-opacity="1" /><path clip-path="url(#clip600)" d="M855.335 27.2059 L862.789 27.2059 L862.789 72.576 L855.335 72.576 L855.335 27.2059 M855.335 9.54393 L862.789 9.54393 L862.789 18.9825 L855.335 18.9825 L855.335 9.54393 Z" fill="#000000" fill-rule="evenodd" fill-opacity="1" /><path clip-path="url(#clip600)" d="M895.966 32.4315 Q889.971 32.4315 886.487 37.1306 Q883.003 41.7891 883.003 49.9314 Q883.003 58.0738 886.446 62.7728 Q889.93 67.4314 895.966 67.4314 Q901.921 67.4314 905.405 62.7323 Q908.888 58.0333 908.888 49.9314 Q908.888 41.8701 905.405 37.1711 Q901.921 32.4315 895.966 32.4315 M895.966 26.1121 Q905.688 26.1121 911.238 32.4315 Q916.788 38.7509 916.788 49.9314 Q916.788 61.0714 911.238 67.4314 Q905.688 73.7508 895.966 73.7508 Q886.203 73.7508 880.654 67.4314 Q875.144 61.0714 875.144 49.9314 Q875.144 38.7509 880.654 32.4315 Q886.203 26.1121 895.966 26.1121 Z" fill="#000000" fill-rule="evenodd" fill-opacity="1" /><path clip-path="url(#clip600)" d="M966.857 45.1919 L966.857 72.576 L959.403 72.576 L959.403 45.4349 Q959.403 38.994 956.892 35.7938 Q954.38 32.5936 949.357 32.5936 Q943.321 32.5936 939.837 36.4419 Q936.353 40.2903 936.353 46.9338 L936.353 72.576 L928.859 72.576 L928.859 27.2059 L936.353 27.2059 L936.353 34.2544 Q939.027 30.163 942.632 28.1376 Q946.278 26.1121 951.018 26.1121 Q958.836 26.1121 962.846 30.9732 Q966.857 35.7938 966.857 45.1919 Z" fill="#000000" fill-rule="evenodd" fill-opacity="1" /><path clip-path="url(#clip600)" d="M1040.75 28.9478 L1040.75 35.9153 Q1037.59 34.1734 1034.39 33.3227 Q1031.23 32.4315 1027.98 32.4315 Q1020.73 32.4315 1016.72 37.0496 Q1012.71 41.6271 1012.71 49.9314 Q1012.71 58.2358 1016.72 62.8538 Q1020.73 67.4314 1027.98 67.4314 Q1031.23 67.4314 1034.39 66.5807 Q1037.59 65.6895 1040.75 63.9476 L1040.75 70.8341 Q1037.63 72.2924 1034.26 73.0216 Q1030.94 73.7508 1027.17 73.7508 Q1016.93 73.7508 1010.89 67.3098 Q1004.85 60.8689 1004.85 49.9314 Q1004.85 38.832 1010.93 32.472 Q1017.05 26.1121 1027.66 26.1121 Q1031.1 26.1121 1034.39 26.8413 Q1037.67 27.5299 1040.75 28.9478 Z" fill="#000000" fill-rule="evenodd" fill-opacity="1" /><path clip-path="url(#clip600)" d="M1071.29 32.4315 Q1065.29 32.4315 1061.81 37.1306 Q1058.33 41.7891 1058.33 49.9314 Q1058.33 58.0738 1061.77 62.7728 Q1065.25 67.4314 1071.29 67.4314 Q1077.24 67.4314 1080.73 62.7323 Q1084.21 58.0333 1084.21 49.9314 Q1084.21 41.8701 1080.73 37.1711 Q1077.24 32.4315 1071.29 32.4315 M1071.29 26.1121 Q1081.01 26.1121 1086.56 32.4315 Q1092.11 38.7509 1092.11 49.9314 Q1092.11 61.0714 1086.56 67.4314 Q1081.01 73.7508 1071.29 73.7508 Q1061.53 73.7508 1055.98 67.4314 Q1050.47 61.0714 1050.47 49.9314 Q1050.47 38.7509 1055.98 32.4315 Q1061.53 26.1121 1071.29 26.1121 Z" fill="#000000" fill-rule="evenodd" fill-opacity="1" /><path clip-path="url(#clip600)" d="M1133.39 28.5427 L1133.39 35.5912 Q1130.23 33.9709 1126.83 33.1607 Q1123.42 32.3505 1119.78 32.3505 Q1114.23 32.3505 1111.43 34.0519 Q1108.68 35.7533 1108.68 39.156 Q1108.68 41.7486 1110.66 43.2475 Q1112.65 44.7058 1118.64 46.0426 L1121.2 46.6097 Q1129.14 48.3111 1132.46 51.4303 Q1135.82 54.509 1135.82 60.0587 Q1135.82 66.3781 1130.8 70.0644 Q1125.81 73.7508 1117.06 73.7508 Q1113.42 73.7508 1109.45 73.0216 Q1105.52 72.3329 1101.14 70.9151 L1101.14 63.2184 Q1105.28 65.3654 1109.29 66.4591 Q1113.3 67.5124 1117.23 67.5124 Q1122.49 67.5124 1125.33 65.73 Q1128.16 63.9071 1128.16 60.6258 Q1128.16 57.5877 1126.1 55.9673 Q1124.07 54.3469 1117.15 52.8481 L1114.55 52.2405 Q1107.63 50.7821 1104.55 47.7845 Q1101.47 44.7463 1101.47 39.4801 Q1101.47 33.0797 1106.01 29.5959 Q1110.54 26.1121 1118.89 26.1121 Q1123.02 26.1121 1126.66 26.7198 Q1130.31 27.3274 1133.39 28.5427 Z" fill="#000000" fill-rule="evenodd" fill-opacity="1" /><path clip-path="url(#clip600)" d="M1155.06 14.324 L1155.06 27.2059 L1170.41 27.2059 L1170.41 32.9987 L1155.06 32.9987 L1155.06 57.6282 Q1155.06 63.1779 1156.56 64.7578 Q1158.1 66.3376 1162.76 66.3376 L1170.41 66.3376 L1170.41 72.576 L1162.76 72.576 Q1154.13 72.576 1150.85 69.3758 Q1147.57 66.1351 1147.57 57.6282 L1147.57 32.9987 L1142.1 32.9987 L1142.1 27.2059 L1147.57 27.2059 L1147.57 14.324 L1155.06 14.324 Z" fill="#000000" fill-rule="evenodd" fill-opacity="1" /><path clip-path="url(#clip600)" d="M1206.59 27.2059 L1214.04 27.2059 L1214.04 72.576 L1206.59 72.576 L1206.59 27.2059 M1206.59 9.54393 L1214.04 9.54393 L1214.04 18.9825 L1206.59 18.9825 L1206.59 9.54393 Z" fill="#000000" fill-rule="evenodd" fill-opacity="1" /><path clip-path="url(#clip600)" d="M1267.35 45.1919 L1267.35 72.576 L1259.9 72.576 L1259.9 45.4349 Q1259.9 38.994 1257.39 35.7938 Q1254.88 32.5936 1249.85 32.5936 Q1243.82 32.5936 1240.33 36.4419 Q1236.85 40.2903 1236.85 46.9338 L1236.85 72.576 L1229.36 72.576 L1229.36 27.2059 L1236.85 27.2059 L1236.85 34.2544 Q1239.52 30.163 1243.13 28.1376 Q1246.77 26.1121 1251.51 26.1121 Q1259.33 26.1121 1263.34 30.9732 Q1267.35 35.7938 1267.35 45.1919 Z" fill="#000000" fill-rule="evenodd" fill-opacity="1" /><path clip-path="url(#clip600)" d="M1338.45 34.0924 L1338.45 9.54393 L1345.9 9.54393 L1345.9 72.576 L1338.45 72.576 L1338.45 65.7705 Q1336.1 69.8214 1332.49 71.8063 Q1328.93 73.7508 1323.9 73.7508 Q1315.68 73.7508 1310.49 67.1883 Q1305.35 60.6258 1305.35 49.9314 Q1305.35 39.2371 1310.49 32.6746 Q1315.68 26.1121 1323.9 26.1121 Q1328.93 26.1121 1332.49 28.0971 Q1336.1 30.0415 1338.45 34.0924 M1313.05 49.9314 Q1313.05 58.1548 1316.41 62.8538 Q1319.81 67.5124 1325.73 67.5124 Q1331.64 67.5124 1335.04 62.8538 Q1338.45 58.1548 1338.45 49.9314 Q1338.45 41.7081 1335.04 37.0496 Q1331.64 32.3505 1325.73 32.3505 Q1319.81 32.3505 1316.41 37.0496 Q1313.05 41.7081 1313.05 49.9314 Z" fill="#000000" fill-rule="evenodd" fill-opacity="1" /><path clip-path="url(#clip600)" d="M1361.25 27.2059 L1368.71 27.2059 L1368.71 72.576 L1361.25 72.576 L1361.25 27.2059 M1361.25 9.54393 L1368.71 9.54393 L1368.71 18.9825 L1361.25 18.9825 L1361.25 9.54393 Z" fill="#000000" fill-rule="evenodd" fill-opacity="1" /><path clip-path="url(#clip600)" d="M1407.27 9.54393 L1407.27 15.7418 L1400.14 15.7418 Q1396.13 15.7418 1394.55 17.3622 Q1393.01 18.9825 1393.01 23.1955 L1393.01 27.2059 L1405.29 27.2059 L1405.29 32.9987 L1393.01 32.9987 L1393.01 72.576 L1385.52 72.576 L1385.52 32.9987 L1378.39 32.9987 L1378.39 27.2059 L1385.52 27.2059 L1385.52 24.0462 Q1385.52 16.471 1389.04 13.0277 Q1392.57 9.54393 1400.22 9.54393 L1407.27 9.54393 Z" fill="#000000" fill-rule="evenodd" fill-opacity="1" /><path clip-path="url(#clip600)" d="M1436.48 9.54393 L1436.48 15.7418 L1429.35 15.7418 Q1425.34 15.7418 1423.76 17.3622 Q1422.22 18.9825 1422.22 23.1955 L1422.22 27.2059 L1434.49 27.2059 L1434.49 32.9987 L1422.22 32.9987 L1422.22 72.576 L1414.72 72.576 L1414.72 32.9987 L1407.6 32.9987 L1407.6 27.2059 L1414.72 27.2059 L1414.72 24.0462 Q1414.72 16.471 1418.25 13.0277 Q1421.77 9.54393 1429.43 9.54393 L1436.48 9.54393 Z" fill="#000000" fill-rule="evenodd" fill-opacity="1" /><path clip-path="url(#clip600)" d="M1481.52 48.0275 L1481.52 51.6733 L1447.25 51.6733 Q1447.74 59.3701 1451.87 63.421 Q1456.04 67.4314 1463.46 67.4314 Q1467.75 67.4314 1471.76 66.3781 Q1475.81 65.3249 1479.78 63.2184 L1479.78 70.267 Q1475.77 71.9684 1471.56 72.8596 Q1467.35 73.7508 1463.01 73.7508 Q1452.16 73.7508 1445.8 67.4314 Q1439.48 61.1119 1439.48 50.3365 Q1439.48 39.1965 1445.47 32.6746 Q1451.51 26.1121 1461.72 26.1121 Q1470.87 26.1121 1476.18 32.0264 Q1481.52 37.9003 1481.52 48.0275 M1474.07 45.84 Q1473.99 39.7232 1470.63 36.0774 Q1467.31 32.4315 1461.8 32.4315 Q1455.56 32.4315 1451.79 35.9558 Q1448.06 39.4801 1447.5 45.8805 L1474.07 45.84 Z" fill="#000000" fill-rule="evenodd" fill-opacity="1" /><path clip-path="url(#clip600)" d="M1520.05 34.1734 Q1518.79 33.4443 1517.29 33.1202 Q1515.84 32.7556 1514.05 32.7556 Q1507.73 32.7556 1504.33 36.8875 Q1500.97 40.9789 1500.97 48.6757 L1500.97 72.576 L1493.47 72.576 L1493.47 27.2059 L1500.97 27.2059 L1500.97 34.2544 Q1503.32 30.1225 1507.09 28.1376 Q1510.85 26.1121 1516.24 26.1121 Q1517.01 26.1121 1517.94 26.2337 Q1518.87 26.3147 1520.01 26.5172 L1520.05 34.1734 Z" fill="#000000" fill-rule="evenodd" fill-opacity="1" /><path clip-path="url(#clip600)" d="M1564.85 48.0275 L1564.85 51.6733 L1530.58 51.6733 Q1531.07 59.3701 1535.2 63.421 Q1539.37 67.4314 1546.78 67.4314 Q1551.08 67.4314 1555.09 66.3781 Q1559.14 65.3249 1563.11 63.2184 L1563.11 70.267 Q1559.1 71.9684 1554.89 72.8596 Q1550.67 73.7508 1546.34 73.7508 Q1535.48 73.7508 1529.12 67.4314 Q1522.8 61.1119 1522.8 50.3365 Q1522.8 39.1965 1528.8 32.6746 Q1534.83 26.1121 1545.04 26.1121 Q1554.2 26.1121 1559.5 32.0264 Q1564.85 37.9003 1564.85 48.0275 M1557.4 45.84 Q1557.32 39.7232 1553.95 36.0774 Q1550.63 32.4315 1545.12 32.4315 Q1538.88 32.4315 1535.12 35.9558 Q1531.39 39.4801 1530.82 45.8805 L1557.4 45.84 Z" fill="#000000" fill-rule="evenodd" fill-opacity="1" /><path clip-path="url(#clip600)" d="M1614.8 45.1919 L1614.8 72.576 L1607.35 72.576 L1607.35 45.4349 Q1607.35 38.994 1604.83 35.7938 Q1602.32 32.5936 1597.3 32.5936 Q1591.26 32.5936 1587.78 36.4419 Q1584.3 40.2903 1584.3 46.9338 L1584.3 72.576 L1576.8 72.576 L1576.8 27.2059 L1584.3 27.2059 L1584.3 34.2544 Q1586.97 30.163 1590.57 28.1376 Q1594.22 26.1121 1598.96 26.1121 Q1606.78 26.1121 1610.79 30.9732 Q1614.8 35.7938 1614.8 45.1919 Z" fill="#000000" fill-rule="evenodd" fill-opacity="1" /><path clip-path="url(#clip600)" d="M1637.04 14.324 L1637.04 27.2059 L1652.39 27.2059 L1652.39 32.9987 L1637.04 32.9987 L1637.04 57.6282 Q1637.04 63.1779 1638.54 64.7578 Q1640.08 66.3376 1644.74 66.3376 L1652.39 66.3376 L1652.39 72.576 L1644.74 72.576 Q1636.11 72.576 1632.83 69.3758 Q1629.54 66.1351 1629.54 57.6282 L1629.54 32.9987 L1624.08 32.9987 L1624.08 27.2059 L1629.54 27.2059 L1629.54 14.324 L1637.04 14.324 Z" fill="#000000" fill-rule="evenodd" fill-opacity="1" /><path clip-path="url(#clip600)" d="M1717.49 28.5427 L1717.49 35.5912 Q1714.33 33.9709 1710.93 33.1607 Q1707.52 32.3505 1703.88 32.3505 Q1698.33 32.3505 1695.53 34.0519 Q1692.78 35.7533 1692.78 39.156 Q1692.78 41.7486 1694.76 43.2475 Q1696.75 44.7058 1702.74 46.0426 L1705.3 46.6097 Q1713.24 48.3111 1716.56 51.4303 Q1719.92 54.509 1719.92 60.0587 Q1719.92 66.3781 1714.9 70.0644 Q1709.91 73.7508 1701.16 73.7508 Q1697.52 73.7508 1693.55 73.0216 Q1689.62 72.3329 1685.24 70.9151 L1685.24 63.2184 Q1689.38 65.3654 1693.39 66.4591 Q1697.4 67.5124 1701.33 67.5124 Q1706.59 67.5124 1709.43 65.73 Q1712.26 63.9071 1712.26 60.6258 Q1712.26 57.5877 1710.2 55.9673 Q1708.17 54.3469 1701.25 52.8481 L1698.65 52.2405 Q1691.73 50.7821 1688.65 47.7845 Q1685.57 44.7463 1685.57 39.4801 Q1685.57 33.0797 1690.11 29.5959 Q1694.64 26.1121 1702.99 26.1121 Q1707.12 26.1121 1710.76 26.7198 Q1714.41 27.3274 1717.49 28.5427 Z" fill="#000000" fill-rule="evenodd" fill-opacity="1" /><path clip-path="url(#clip600)" d="M1764.44 28.9478 L1764.44 35.9153 Q1761.28 34.1734 1758.08 33.3227 Q1754.92 32.4315 1751.68 32.4315 Q1744.43 32.4315 1740.42 37.0496 Q1736.41 41.6271 1736.41 49.9314 Q1736.41 58.2358 1740.42 62.8538 Q1744.43 67.4314 1751.68 67.4314 Q1754.92 67.4314 1758.08 66.5807 Q1761.28 65.6895 1764.44 63.9476 L1764.44 70.8341 Q1761.32 72.2924 1757.96 73.0216 Q1754.64 73.7508 1750.87 73.7508 Q1740.62 73.7508 1734.58 67.3098 Q1728.55 60.8689 1728.55 49.9314 Q1728.55 38.832 1734.62 32.472 Q1740.74 26.1121 1751.35 26.1121 Q1754.8 26.1121 1758.08 26.8413 Q1761.36 27.5299 1764.44 28.9478 Z" fill="#000000" fill-rule="evenodd" fill-opacity="1" /><path clip-path="url(#clip600)" d="M1816.21 48.0275 L1816.21 51.6733 L1781.94 51.6733 Q1782.43 59.3701 1786.56 63.421 Q1790.73 67.4314 1798.14 67.4314 Q1802.44 67.4314 1806.45 66.3781 Q1810.5 65.3249 1814.47 63.2184 L1814.47 70.267 Q1810.46 71.9684 1806.24 72.8596 Q1802.03 73.7508 1797.7 73.7508 Q1786.84 73.7508 1780.48 67.4314 Q1774.16 61.1119 1774.16 50.3365 Q1774.16 39.1965 1780.16 32.6746 Q1786.19 26.1121 1796.4 26.1121 Q1805.56 26.1121 1810.86 32.0264 Q1816.21 37.9003 1816.21 48.0275 M1808.76 45.84 Q1808.68 39.7232 1805.31 36.0774 Q1801.99 32.4315 1796.48 32.4315 Q1790.24 32.4315 1786.48 35.9558 Q1782.75 39.4801 1782.18 45.8805 L1808.76 45.84 Z" fill="#000000" fill-rule="evenodd" fill-opacity="1" /><path clip-path="url(#clip600)" d="M1866.16 45.1919 L1866.16 72.576 L1858.7 72.576 L1858.7 45.4349 Q1858.7 38.994 1856.19 35.7938 Q1853.68 32.5936 1848.66 32.5936 Q1842.62 32.5936 1839.14 36.4419 Q1835.65 40.2903 1835.65 46.9338 L1835.65 72.576 L1828.16 72.576 L1828.16 27.2059 L1835.65 27.2059 L1835.65 34.2544 Q1838.33 30.163 1841.93 28.1376 Q1845.58 26.1121 1850.32 26.1121 Q1858.14 26.1121 1862.15 30.9732 Q1866.16 35.7938 1866.16 45.1919 Z" fill="#000000" fill-rule="evenodd" fill-opacity="1" /><path clip-path="url(#clip600)" d="M1901.64 49.7694 Q1892.61 49.7694 1889.13 51.8354 Q1885.64 53.9013 1885.64 58.8839 Q1885.64 62.8538 1888.23 65.2034 Q1890.87 67.5124 1895.36 67.5124 Q1901.56 67.5124 1905.29 63.1374 Q1909.06 58.7219 1909.06 51.4303 L1909.06 49.7694 L1901.64 49.7694 M1916.51 46.6907 L1916.51 72.576 L1909.06 72.576 L1909.06 65.6895 Q1906.5 69.8214 1902.7 71.8063 Q1898.89 73.7508 1893.38 73.7508 Q1886.41 73.7508 1882.28 69.8619 Q1878.19 65.9325 1878.19 59.3701 Q1878.19 51.7138 1883.29 47.825 Q1888.44 43.9361 1898.61 43.9361 L1909.06 43.9361 L1909.06 43.2069 Q1909.06 38.0623 1905.65 35.2672 Q1902.29 32.4315 1896.17 32.4315 Q1892.29 32.4315 1888.6 33.3632 Q1884.91 34.295 1881.51 36.1584 L1881.51 29.2718 Q1885.6 27.692 1889.45 26.9223 Q1893.3 26.1121 1896.94 26.1121 Q1906.79 26.1121 1911.65 31.2163 Q1916.51 36.3204 1916.51 46.6907 Z" fill="#000000" fill-rule="evenodd" fill-opacity="1" /><path clip-path="url(#clip600)" d="M1958.15 34.1734 Q1956.9 33.4443 1955.4 33.1202 Q1953.94 32.7556 1952.16 32.7556 Q1945.84 32.7556 1942.44 36.8875 Q1939.07 40.9789 1939.07 48.6757 L1939.07 72.576 L1931.58 72.576 L1931.58 27.2059 L1939.07 27.2059 L1939.07 34.2544 Q1941.42 30.1225 1945.19 28.1376 Q1948.96 26.1121 1954.35 26.1121 Q1955.12 26.1121 1956.05 26.2337 Q1956.98 26.3147 1958.11 26.5172 L1958.15 34.1734 Z" fill="#000000" fill-rule="evenodd" fill-opacity="1" /><path clip-path="url(#clip600)" d="M1965.97 27.2059 L1973.43 27.2059 L1973.43 72.576 L1965.97 72.576 L1965.97 27.2059 M1965.97 9.54393 L1973.43 9.54393 L1973.43 18.9825 L1965.97 18.9825 L1965.97 9.54393 Z" fill="#000000" fill-rule="evenodd" fill-opacity="1" /><path clip-path="url(#clip600)" d="M2006.6 32.4315 Q2000.61 32.4315 1997.12 37.1306 Q1993.64 41.7891 1993.64 49.9314 Q1993.64 58.0738 1997.08 62.7728 Q2000.57 67.4314 2006.6 67.4314 Q2012.56 67.4314 2016.04 62.7323 Q2019.52 58.0333 2019.52 49.9314 Q2019.52 41.8701 2016.04 37.1711 Q2012.56 32.4315 2006.6 32.4315 M2006.6 26.1121 Q2016.32 26.1121 2021.87 32.4315 Q2027.42 38.7509 2027.42 49.9314 Q2027.42 61.0714 2021.87 67.4314 Q2016.32 73.7508 2006.6 73.7508 Q1996.84 73.7508 1991.29 67.4314 Q1985.78 61.0714 1985.78 49.9314 Q1985.78 38.7509 1991.29 32.4315 Q1996.84 26.1121 2006.6 26.1121 Z" fill="#000000" fill-rule="evenodd" fill-opacity="1" /><path clip-path="url(#clip600)" d="M2068.7 28.5427 L2068.7 35.5912 Q2065.54 33.9709 2062.14 33.1607 Q2058.74 32.3505 2055.09 32.3505 Q2049.54 32.3505 2046.75 34.0519 Q2043.99 35.7533 2043.99 39.156 Q2043.99 41.7486 2045.98 43.2475 Q2047.96 44.7058 2053.96 46.0426 L2056.51 46.6097 Q2064.45 48.3111 2067.77 51.4303 Q2071.13 54.509 2071.13 60.0587 Q2071.13 66.3781 2066.11 70.0644 Q2061.13 73.7508 2052.38 73.7508 Q2048.73 73.7508 2044.76 73.0216 Q2040.83 72.3329 2036.46 70.9151 L2036.46 63.2184 Q2040.59 65.3654 2044.6 66.4591 Q2048.61 67.5124 2052.54 67.5124 Q2057.81 67.5124 2060.64 65.73 Q2063.48 63.9071 2063.48 60.6258 Q2063.48 57.5877 2061.41 55.9673 Q2059.39 54.3469 2052.46 52.8481 L2049.87 52.2405 Q2042.94 50.7821 2039.86 47.7845 Q2036.78 44.7463 2036.78 39.4801 Q2036.78 33.0797 2041.32 29.5959 Q2045.86 26.1121 2054.2 26.1121 Q2058.33 26.1121 2061.98 26.7198 Q2065.62 27.3274 2068.7 28.5427 Z" fill="#000000" fill-rule="evenodd" fill-opacity="1" /><path clip-path="url(#clip602)" d="
M350.654 301.136 L350.654 1374.46 L539.211 1374.46 L539.211 301.136 L350.654 301.136 L350.654 301.136  Z
  " fill="#009af9" fill-rule="evenodd" fill-opacity="1"/>
<polyline clip-path="url(#clip602)" style="stroke:#000000; stroke-linecap:butt; stroke-linejoin:round; stroke-width:4; stroke-opacity:1; fill:none" points="
  350.654,301.136 350.654,1374.46 539.211,1374.46 539.211,301.136 350.654,301.136 
  "/>
<path clip-path="url(#clip602)" d="
M539.211 707.869 L539.211 1374.46 L727.769 1374.46 L727.769 707.869 L539.211 707.869 L539.211 707.869  Z
  " fill="#009af9" fill-rule="evenodd" fill-opacity="1"/>
<polyline clip-path="url(#clip602)" style="stroke:#000000; stroke-linecap:butt; stroke-linejoin:round; stroke-width:4; stroke-opacity:1; fill:none" points="
  539.211,707.869 539.211,1374.46 727.769,1374.46 727.769,707.869 539.211,707.869 
  "/>
<path clip-path="url(#clip602)" d="
M727.769 159.909 L727.769 1374.46 L916.326 1374.46 L916.326 159.909 L727.769 159.909 L727.769 159.909  Z
  " fill="#009af9" fill-rule="evenodd" fill-opacity="1"/>
<polyline clip-path="url(#clip602)" style="stroke:#000000; stroke-linecap:butt; stroke-linejoin:round; stroke-width:4; stroke-opacity:1; fill:none" points="
  727.769,159.909 727.769,1374.46 916.326,1374.46 916.326,159.909 727.769,159.909 
  "/>
<path clip-path="url(#clip602)" d="
M916.326 826.5 L916.326 1374.46 L1104.88 1374.46 L1104.88 826.5 L916.326 826.5 L916.326 826.5  Z
  " fill="#009af9" fill-rule="evenodd" fill-opacity="1"/>
<polyline clip-path="url(#clip602)" style="stroke:#000000; stroke-linecap:butt; stroke-linejoin:round; stroke-width:4; stroke-opacity:1; fill:none" points="
  916.326,826.5 916.326,1374.46 1104.88,1374.46 1104.88,826.5 916.326,826.5 
  "/>
<path clip-path="url(#clip602)" d="
M1104.88 871.692 L1104.88 1374.46 L1293.44 1374.46 L1293.44 871.692 L1104.88 871.692 L1104.88 871.692  Z
  " fill="#009af9" fill-rule="evenodd" fill-opacity="1"/>
<polyline clip-path="url(#clip602)" style="stroke:#000000; stroke-linecap:butt; stroke-linejoin:round; stroke-width:4; stroke-opacity:1; fill:none" points="
  1104.88,871.692 1104.88,1374.46 1293.44,1374.46 1293.44,871.692 1104.88,871.692 
  "/>
<path clip-path="url(#clip602)" d="
M1293.44 1086.36 L1293.44 1374.46 L1482 1374.46 L1482 1086.36 L1293.44 1086.36 L1293.44 1086.36  Z
  " fill="#009af9" fill-rule="evenodd" fill-opacity="1"/>
<polyline clip-path="url(#clip602)" style="stroke:#000000; stroke-linecap:butt; stroke-linejoin:round; stroke-width:4; stroke-opacity:1; fill:none" points="
  1293.44,1086.36 1293.44,1374.46 1482,1374.46 1482,1086.36 1293.44,1086.36 
  "/>
<path clip-path="url(#clip602)" d="
M1482 1227.58 L1482 1374.46 L1670.56 1374.46 L1670.56 1227.58 L1482 1227.58 L1482 1227.58  Z
  " fill="#009af9" fill-rule="evenodd" fill-opacity="1"/>
<polyline clip-path="url(#clip602)" style="stroke:#000000; stroke-linecap:butt; stroke-linejoin:round; stroke-width:4; stroke-opacity:1; fill:none" points="
  1482,1227.58 1482,1374.46 1670.56,1374.46 1670.56,1227.58 1482,1227.58 
  "/>
<path clip-path="url(#clip602)" d="
M1670.56 1171.09 L1670.56 1374.46 L1859.11 1374.46 L1859.11 1171.09 L1670.56 1171.09 L1670.56 1171.09  Z
  " fill="#009af9" fill-rule="evenodd" fill-opacity="1"/>
<polyline clip-path="url(#clip602)" style="stroke:#000000; stroke-linecap:butt; stroke-linejoin:round; stroke-width:4; stroke-opacity:1; fill:none" points="
  1670.56,1171.09 1670.56,1374.46 1859.11,1374.46 1859.11,1171.09 1670.56,1171.09 
  "/>
<path clip-path="url(#clip602)" d="
M1859.11 1176.74 L1859.11 1374.46 L2047.67 1374.46 L2047.67 1176.74 L1859.11 1176.74 L1859.11 1176.74  Z
  " fill="#009af9" fill-rule="evenodd" fill-opacity="1"/>
<polyline clip-path="url(#clip602)" style="stroke:#000000; stroke-linecap:butt; stroke-linejoin:round; stroke-width:4; stroke-opacity:1; fill:none" points="
  1859.11,1176.74 1859.11,1374.46 2047.67,1374.46 2047.67,1176.74 1859.11,1176.74 
  "/>
<path clip-path="url(#clip602)" d="
M2047.67 1334.92 L2047.67 1374.46 L2236.23 1374.46 L2236.23 1334.92 L2047.67 1334.92 L2047.67 1334.92  Z
  " fill="#009af9" fill-rule="evenodd" fill-opacity="1"/>
<polyline clip-path="url(#clip602)" style="stroke:#000000; stroke-linecap:butt; stroke-linejoin:round; stroke-width:4; stroke-opacity:1; fill:none" points="
  2047.67,1334.92 2047.67,1374.46 2236.23,1374.46 2236.23,1334.92 2047.67,1334.92 
  "/>
<circle clip-path="url(#clip602)" style="fill:#009af9; stroke:none; fill-opacity:0" cx="444.933" cy="301.136" r="2"/>
<circle clip-path="url(#clip602)" style="fill:#009af9; stroke:none; fill-opacity:0" cx="633.49" cy="707.869" r="2"/>
<circle clip-path="url(#clip602)" style="fill:#009af9; stroke:none; fill-opacity:0" cx="822.047" cy="159.909" r="2"/>
<circle clip-path="url(#clip602)" style="fill:#009af9; stroke:none; fill-opacity:0" cx="1010.6" cy="826.5" r="2"/>
<circle clip-path="url(#clip602)" style="fill:#009af9; stroke:none; fill-opacity:0" cx="1199.16" cy="871.692" r="2"/>
<circle clip-path="url(#clip602)" style="fill:#009af9; stroke:none; fill-opacity:0" cx="1387.72" cy="1086.36" r="2"/>
<circle clip-path="url(#clip602)" style="fill:#009af9; stroke:none; fill-opacity:0" cx="1576.28" cy="1227.58" r="2"/>
<circle clip-path="url(#clip602)" style="fill:#009af9; stroke:none; fill-opacity:0" cx="1764.83" cy="1171.09" r="2"/>
<circle clip-path="url(#clip602)" style="fill:#009af9; stroke:none; fill-opacity:0" cx="1953.39" cy="1176.74" r="2"/>
<circle clip-path="url(#clip602)" style="fill:#009af9; stroke:none; fill-opacity:0" cx="2141.95" cy="1334.92" r="2"/>
</svg>
