<?xml version="1.0" encoding="utf-8"?>
<svg xmlns="http://www.w3.org/2000/svg" xmlns:xlink="http://www.w3.org/1999/xlink" width="600" height="400" viewBox="0 0 2400 1600">
<defs>
  <clipPath id="clip640">
    <rect x="0" y="0" width="2400" height="1600"/>
  </clipPath>
</defs>
<path clip-path="url(#clip640)" d="
M0 1600 L2400 1600 L2400 0 L0 0  Z
  " fill="#ffffff" fill-rule="evenodd" fill-opacity="1"/>
<defs>
  <clipPath id="clip641">
    <rect x="480" y="0" width="1681" height="1600"/>
  </clipPath>
</defs>
<path clip-path="url(#clip640)" d="
M339.495 1423.18 L2352.76 1423.18 L2352.76 123.472 L339.495 123.472  Z
  " fill="#ffffff" fill-rule="evenodd" fill-opacity="1"/>
<defs>
  <clipPath id="clip642">
    <rect x="339" y="123" width="2014" height="1301"/>
  </clipPath>
</defs>
<polyline clip-path="url(#clip642)" style="stroke:#000000; stroke-linecap:butt; stroke-linejoin:round; stroke-width:2; stroke-opacity:0.1; fill:none" points="
  394.274,1423.18 394.274,123.472 
  "/>
<polyline clip-path="url(#clip642)" style="stroke:#000000; stroke-linecap:butt; stroke-linejoin:round; stroke-width:2; stroke-opacity:0.1; fill:none" points="
  834.436,1423.18 834.436,123.472 
  "/>
<polyline clip-path="url(#clip642)" style="stroke:#000000; stroke-linecap:butt; stroke-linejoin:round; stroke-width:2; stroke-opacity:0.1; fill:none" points="
  1274.6,1423.18 1274.6,123.472 
  "/>
<polyline clip-path="url(#clip642)" style="stroke:#000000; stroke-linecap:butt; stroke-linejoin:round; stroke-width:2; stroke-opacity:0.1; fill:none" points="
  1714.76,1423.18 1714.76,123.472 
  "/>
<polyline clip-path="url(#clip642)" style="stroke:#000000; stroke-linecap:butt; stroke-linejoin:round; stroke-width:2; stroke-opacity:0.1; fill:none" points="
  2154.92,1423.18 2154.92,123.472 
  "/>
<polyline clip-path="url(#clip640)" style="stroke:#000000; stroke-linecap:butt; stroke-linejoin:round; stroke-width:4; stroke-opacity:1; fill:none" points="
  339.495,1423.18 2352.76,1423.18 
  "/>
<polyline clip-path="url(#clip640)" style="stroke:#000000; stroke-linecap:butt; stroke-linejoin:round; stroke-width:4; stroke-opacity:1; fill:none" points="
  394.274,1423.18 394.274,1404.28 
  "/>
<polyline clip-path="url(#clip640)" style="stroke:#000000; stroke-linecap:butt; stroke-linejoin:round; stroke-width:4; stroke-opacity:1; fill:none" points="
  834.436,1423.18 834.436,1404.28 
  "/>
<polyline clip-path="url(#clip640)" style="stroke:#000000; stroke-linecap:butt; stroke-linejoin:round; stroke-width:4; stroke-opacity:1; fill:none" points="
  1274.6,1423.18 1274.6,1404.28 
  "/>
<polyline clip-path="url(#clip640)" style="stroke:#000000; stroke-linecap:butt; stroke-linejoin:round; stroke-width:4; stroke-opacity:1; fill:none" points="
  1714.76,1423.18 1714.76,1404.28 
  "/>
<polyline clip-path="url(#clip640)" style="stroke:#000000; stroke-linecap:butt; stroke-linejoin:round; stroke-width:4; stroke-opacity:1; fill:none" points="
  2154.92,1423.18 2154.92,1404.28 
  "/>
<path clip-path="url(#clip640)" d="M394.274 1454.1 Q390.662 1454.1 388.834 1457.66 Q387.028 1461.2 387.028 1468.33 Q387.028 1475.44 388.834 1479.01 Q390.662 1482.55 394.274 1482.55 Q397.908 1482.55 399.713 1479.01 Q401.542 1475.44 401.542 1468.33 Q401.542 1461.2 399.713 1457.66 Q397.908 1454.1 394.274 1454.1 M394.274 1450.39 Q400.084 1450.39 403.139 1455 Q406.218 1459.58 406.218 1468.33 Q406.218 1477.06 403.139 1481.67 Q400.084 1486.25 394.274 1486.25 Q388.463 1486.25 385.385 1481.67 Q382.329 1477.06 382.329 1468.33 Q382.329 1459.58 385.385 1455 Q388.463 1450.39 394.274 1450.39 Z" fill="#000000" fill-rule="evenodd" fill-opacity="1" /><path clip-path="url(#clip640)" d="M798.129 1481.64 L814.448 1481.64 L814.448 1485.58 L792.504 1485.58 L792.504 1481.64 Q795.166 1478.89 799.749 1474.26 Q804.355 1469.61 805.536 1468.27 Q807.781 1465.74 808.661 1464.01 Q809.564 1462.25 809.564 1460.56 Q809.564 1457.8 807.619 1456.07 Q805.698 1454.33 802.596 1454.33 Q800.397 1454.33 797.943 1455.09 Q795.513 1455.86 792.735 1457.41 L792.735 1452.69 Q795.559 1451.55 798.013 1450.97 Q800.467 1450.39 802.504 1450.39 Q807.874 1450.39 811.068 1453.08 Q814.263 1455.77 814.263 1460.26 Q814.263 1462.39 813.453 1464.31 Q812.666 1466.2 810.559 1468.8 Q809.98 1469.47 806.879 1472.69 Q803.777 1475.88 798.129 1481.64 Z" fill="#000000" fill-rule="evenodd" fill-opacity="1" /><path clip-path="url(#clip640)" d="M834.263 1454.1 Q830.652 1454.1 828.823 1457.66 Q827.017 1461.2 827.017 1468.33 Q827.017 1475.44 828.823 1479.01 Q830.652 1482.55 834.263 1482.55 Q837.897 1482.55 839.702 1479.01 Q841.531 1475.44 841.531 1468.33 Q841.531 1461.2 839.702 1457.66 Q837.897 1454.1 834.263 1454.1 M834.263 1450.39 Q840.073 1450.39 843.128 1455 Q846.207 1459.58 846.207 1468.33 Q846.207 1477.06 843.128 1481.67 Q840.073 1486.25 834.263 1486.25 Q828.453 1486.25 825.374 1481.67 Q822.318 1477.06 822.318 1468.33 Q822.318 1459.58 825.374 1455 Q828.453 1450.39 834.263 1450.39 Z" fill="#000000" fill-rule="evenodd" fill-opacity="1" /><path clip-path="url(#clip640)" d="M864.425 1454.1 Q860.813 1454.1 858.985 1457.66 Q857.179 1461.2 857.179 1468.33 Q857.179 1475.44 858.985 1479.01 Q860.813 1482.55 864.425 1482.55 Q868.059 1482.55 869.864 1479.01 Q871.693 1475.44 871.693 1468.33 Q871.693 1461.2 869.864 1457.66 Q868.059 1454.1 864.425 1454.1 M864.425 1450.39 Q870.235 1450.39 873.29 1455 Q876.369 1459.58 876.369 1468.33 Q876.369 1477.06 873.29 1481.67 Q870.235 1486.25 864.425 1486.25 Q858.614 1486.25 855.536 1481.67 Q852.48 1477.06 852.48 1468.33 Q852.48 1459.58 855.536 1455 Q858.614 1450.39 864.425 1450.39 Z" fill="#000000" fill-rule="evenodd" fill-opacity="1" /><path clip-path="url(#clip640)" d="M1247.69 1455.09 L1235.88 1473.54 L1247.69 1473.54 L1247.69 1455.09 M1246.46 1451.02 L1252.34 1451.02 L1252.34 1473.54 L1257.27 1473.54 L1257.27 1477.43 L1252.34 1477.43 L1252.34 1485.58 L1247.69 1485.58 L1247.69 1477.43 L1232.09 1477.43 L1232.09 1472.92 L1246.46 1451.02 Z" fill="#000000" fill-rule="evenodd" fill-opacity="1" /><path clip-path="url(#clip640)" d="M1275 1454.1 Q1271.39 1454.1 1269.56 1457.66 Q1267.76 1461.2 1267.76 1468.33 Q1267.76 1475.44 1269.56 1479.01 Q1271.39 1482.55 1275 1482.55 Q1278.64 1482.55 1280.44 1479.01 Q1282.27 1475.44 1282.27 1468.33 Q1282.27 1461.2 1280.44 1457.66 Q1278.64 1454.1 1275 1454.1 M1275 1450.39 Q1280.81 1450.39 1283.87 1455 Q1286.95 1459.58 1286.95 1468.33 Q1286.95 1477.06 1283.87 1481.67 Q1280.81 1486.25 1275 1486.25 Q1269.19 1486.25 1266.12 1481.67 Q1263.06 1477.06 1263.06 1468.33 Q1263.06 1459.58 1266.12 1455 Q1269.19 1450.39 1275 1450.39 Z" fill="#000000" fill-rule="evenodd" fill-opacity="1" /><path clip-path="url(#clip640)" d="M1305.17 1454.1 Q1301.55 1454.1 1299.73 1457.66 Q1297.92 1461.2 1297.92 1468.33 Q1297.92 1475.44 1299.73 1479.01 Q1301.55 1482.55 1305.17 1482.55 Q1308.8 1482.55 1310.61 1479.01 Q1312.43 1475.44 1312.43 1468.33 Q1312.43 1461.2 1310.61 1457.66 Q1308.8 1454.1 1305.17 1454.1 M1305.17 1450.39 Q1310.98 1450.39 1314.03 1455 Q1317.11 1459.58 1317.11 1468.33 Q1317.11 1477.06 1314.03 1481.67 Q1310.98 1486.25 1305.17 1486.25 Q1299.36 1486.25 1296.28 1481.67 Q1293.22 1477.06 1293.22 1468.33 Q1293.22 1459.58 1296.28 1455 Q1299.36 1450.39 1305.17 1450.39 Z" fill="#000000" fill-rule="evenodd" fill-opacity="1" /><path clip-path="url(#clip640)" d="M1685.09 1466.44 Q1681.94 1466.44 1680.09 1468.59 Q1678.26 1470.74 1678.26 1474.49 Q1678.26 1478.22 1680.09 1480.39 Q1681.94 1482.55 1685.09 1482.55 Q1688.23 1482.55 1690.06 1480.39 Q1691.91 1478.22 1691.91 1474.49 Q1691.91 1470.74 1690.06 1468.59 Q1688.23 1466.44 1685.09 1466.44 M1694.37 1451.78 L1694.37 1456.04 Q1692.61 1455.21 1690.8 1454.77 Q1689.02 1454.33 1687.26 1454.33 Q1682.63 1454.33 1680.18 1457.45 Q1677.75 1460.58 1677.4 1466.9 Q1678.77 1464.89 1680.83 1463.82 Q1682.89 1462.73 1685.36 1462.73 Q1690.57 1462.73 1693.58 1465.9 Q1696.61 1469.05 1696.61 1474.49 Q1696.61 1479.82 1693.47 1483.03 Q1690.32 1486.25 1685.09 1486.25 Q1679.09 1486.25 1675.92 1481.67 Q1672.75 1477.06 1672.75 1468.33 Q1672.75 1460.14 1676.64 1455.28 Q1680.53 1450.39 1687.08 1450.39 Q1688.84 1450.39 1690.62 1450.74 Q1692.42 1451.09 1694.37 1451.78 Z" fill="#000000" fill-rule="evenodd" fill-opacity="1" /><path clip-path="url(#clip640)" d="M1714.67 1454.1 Q1711.06 1454.1 1709.23 1457.66 Q1707.42 1461.2 1707.42 1468.33 Q1707.42 1475.44 1709.23 1479.01 Q1711.06 1482.55 1714.67 1482.55 Q1718.3 1482.55 1720.11 1479.01 Q1721.94 1475.44 1721.94 1468.33 Q1721.94 1461.2 1720.11 1457.66 Q1718.3 1454.1 1714.67 1454.1 M1714.67 1450.39 Q1720.48 1450.39 1723.54 1455 Q1726.61 1459.58 1726.61 1468.33 Q1726.61 1477.06 1723.54 1481.67 Q1720.48 1486.25 1714.67 1486.25 Q1708.86 1486.25 1705.78 1481.67 Q1702.72 1477.06 1702.72 1468.33 Q1702.72 1459.58 1705.78 1455 Q1708.86 1450.39 1714.67 1450.39 Z" fill="#000000" fill-rule="evenodd" fill-opacity="1" /><path clip-path="url(#clip640)" d="M1744.83 1454.1 Q1741.22 1454.1 1739.39 1457.66 Q1737.59 1461.2 1737.59 1468.33 Q1737.59 1475.44 1739.39 1479.01 Q1741.22 1482.55 1744.83 1482.55 Q1748.47 1482.55 1750.27 1479.01 Q1752.1 1475.44 1752.1 1468.33 Q1752.1 1461.2 1750.27 1457.66 Q1748.47 1454.1 1744.83 1454.1 M1744.83 1450.39 Q1750.64 1450.39 1753.7 1455 Q1756.78 1459.58 1756.78 1468.33 Q1756.78 1477.06 1753.7 1481.67 Q1750.64 1486.25 1744.83 1486.25 Q1739.02 1486.25 1735.94 1481.67 Q1732.89 1477.06 1732.89 1468.33 Q1732.89 1459.58 1735.94 1455 Q1739.02 1450.39 1744.83 1450.39 Z" fill="#000000" fill-rule="evenodd" fill-opacity="1" /><path clip-path="url(#clip640)" d="M2124.72 1469.17 Q2121.38 1469.17 2119.46 1470.95 Q2117.56 1472.73 2117.56 1475.86 Q2117.56 1478.98 2119.46 1480.77 Q2121.38 1482.55 2124.72 1482.55 Q2128.05 1482.55 2129.97 1480.77 Q2131.89 1478.96 2131.89 1475.86 Q2131.89 1472.73 2129.97 1470.95 Q2128.07 1469.17 2124.72 1469.17 M2120.04 1467.18 Q2117.03 1466.44 2115.34 1464.38 Q2113.67 1462.32 2113.67 1459.35 Q2113.67 1455.21 2116.61 1452.8 Q2119.58 1450.39 2124.72 1450.39 Q2129.88 1450.39 2132.82 1452.8 Q2135.76 1455.21 2135.76 1459.35 Q2135.76 1462.32 2134.07 1464.38 Q2132.4 1466.44 2129.42 1467.18 Q2132.8 1467.96 2134.67 1470.26 Q2136.57 1472.55 2136.57 1475.86 Q2136.57 1480.88 2133.49 1483.57 Q2130.43 1486.25 2124.72 1486.25 Q2119 1486.25 2115.92 1483.57 Q2112.86 1480.88 2112.86 1475.86 Q2112.86 1472.55 2114.76 1470.26 Q2116.66 1467.96 2120.04 1467.18 M2118.33 1459.79 Q2118.33 1462.48 2119.99 1463.98 Q2121.68 1465.49 2124.72 1465.49 Q2127.73 1465.49 2129.42 1463.98 Q2131.13 1462.48 2131.13 1459.79 Q2131.13 1457.11 2129.42 1455.6 Q2127.73 1454.1 2124.72 1454.1 Q2121.68 1454.1 2119.99 1455.6 Q2118.33 1457.11 2118.33 1459.79 Z" fill="#000000" fill-rule="evenodd" fill-opacity="1" /><path clip-path="url(#clip640)" d="M2154.88 1454.1 Q2151.27 1454.1 2149.44 1457.66 Q2147.63 1461.2 2147.63 1468.33 Q2147.63 1475.44 2149.44 1479.01 Q2151.27 1482.55 2154.88 1482.55 Q2158.51 1482.55 2160.32 1479.01 Q2162.15 1475.44 2162.15 1468.33 Q2162.15 1461.2 2160.32 1457.66 Q2158.51 1454.1 2154.88 1454.1 M2154.88 1450.39 Q2160.69 1450.39 2163.74 1455 Q2166.82 1459.58 2166.82 1468.33 Q2166.82 1477.06 2163.74 1481.67 Q2160.69 1486.25 2154.88 1486.25 Q2149.07 1486.25 2145.99 1481.67 Q2142.93 1477.06 2142.93 1468.33 Q2142.93 1459.58 2145.99 1455 Q2149.07 1450.39 2154.88 1450.39 Z" fill="#000000" fill-rule="evenodd" fill-opacity="1" /><path clip-path="url(#clip640)" d="M2185.04 1454.1 Q2181.43 1454.1 2179.6 1457.66 Q2177.79 1461.2 2177.79 1468.33 Q2177.79 1475.44 2179.6 1479.01 Q2181.43 1482.55 2185.04 1482.55 Q2188.67 1482.55 2190.48 1479.01 Q2192.31 1475.44 2192.31 1468.33 Q2192.31 1461.2 2190.48 1457.66 Q2188.67 1454.1 2185.04 1454.1 M2185.04 1450.39 Q2190.85 1450.39 2193.91 1455 Q2196.98 1459.58 2196.98 1468.33 Q2196.98 1477.06 2193.91 1481.67 Q2190.85 1486.25 2185.04 1486.25 Q2179.23 1486.25 2176.15 1481.67 Q2173.1 1477.06 2173.1 1468.33 Q2173.1 1459.58 2176.15 1455 Q2179.23 1450.39 2185.04 1450.39 Z" fill="#000000" fill-rule="evenodd" fill-opacity="1" /><path clip-path="url(#clip640)" d="M1135.47 1522.08 L1135.47 1528.35 Q1131.81 1526.6 1128.56 1525.74 Q1125.32 1524.88 1122.29 1524.88 Q1117.04 1524.88 1114.18 1526.92 Q1111.34 1528.96 1111.34 1532.71 Q1111.34 1535.87 1113.22 1537.49 Q1115.13 1539.08 1120.41 1540.07 L1124.3 1540.86 Q1131.49 1542.23 1134.9 1545.7 Q1138.33 1549.14 1138.33 1554.93 Q1138.33 1561.84 1133.69 1565.4 Q1129.07 1568.97 1120.13 1568.97 Q1116.75 1568.97 1112.93 1568.2 Q1109.15 1567.44 1105.07 1565.94 L1105.07 1559.32 Q1108.99 1561.52 1112.74 1562.63 Q1116.5 1563.75 1120.13 1563.75 Q1125.63 1563.75 1128.63 1561.58 Q1131.62 1559.42 1131.62 1555.41 Q1131.62 1551.91 1129.45 1549.93 Q1127.32 1547.96 1122.42 1546.97 L1118.5 1546.21 Q1111.31 1544.78 1108.1 1541.72 Q1104.88 1538.67 1104.88 1533.22 Q1104.88 1526.92 1109.31 1523.29 Q1113.76 1519.66 1121.56 1519.66 Q1124.9 1519.66 1128.37 1520.27 Q1131.84 1520.87 1135.47 1522.08 Z" fill="#000000" fill-rule="evenodd" fill-opacity="1" /><path clip-path="url(#clip640)" d="M1153.9 1522.27 L1153.9 1532.4 L1165.96 1532.4 L1165.96 1536.95 L1153.9 1536.95 L1153.9 1556.3 Q1153.9 1560.66 1155.07 1561.9 Q1156.28 1563.14 1159.94 1563.14 L1165.96 1563.14 L1165.96 1568.04 L1159.94 1568.04 Q1153.17 1568.04 1150.59 1565.53 Q1148.01 1562.98 1148.01 1556.3 L1148.01 1536.95 L1143.71 1536.95 L1143.71 1532.4 L1148.01 1532.4 L1148.01 1522.27 L1153.9 1522.27 Z" fill="#000000" fill-rule="evenodd" fill-opacity="1" /><path clip-path="url(#clip640)" d="M1189.86 1550.12 Q1182.77 1550.12 1180.03 1551.75 Q1177.29 1553.37 1177.29 1557.29 Q1177.29 1560.4 1179.33 1562.25 Q1181.4 1564.07 1184.93 1564.07 Q1189.8 1564.07 1192.73 1560.63 Q1195.69 1557.16 1195.69 1551.43 L1195.69 1550.12 L1189.86 1550.12 M1201.54 1547.71 L1201.54 1568.04 L1195.69 1568.04 L1195.69 1562.63 Q1193.68 1565.88 1190.69 1567.44 Q1187.7 1568.97 1183.37 1568.97 Q1177.9 1568.97 1174.65 1565.91 Q1171.43 1562.82 1171.43 1557.67 Q1171.43 1551.65 1175.45 1548.6 Q1179.49 1545.54 1187.48 1545.54 L1195.69 1545.54 L1195.69 1544.97 Q1195.69 1540.93 1193.01 1538.73 Q1190.37 1536.5 1185.57 1536.5 Q1182.51 1536.5 1179.61 1537.23 Q1176.72 1537.97 1174.04 1539.43 L1174.04 1534.02 Q1177.26 1532.78 1180.28 1532.17 Q1183.31 1531.54 1186.17 1531.54 Q1193.91 1531.54 1197.73 1535.55 Q1201.54 1539.56 1201.54 1547.71 Z" fill="#000000" fill-rule="evenodd" fill-opacity="1" /><path clip-path="url(#clip640)" d="M1234.26 1537.87 Q1233.28 1537.3 1232.1 1537.04 Q1230.95 1536.76 1229.55 1536.76 Q1224.59 1536.76 1221.91 1540 Q1219.27 1543.22 1219.27 1549.27 L1219.27 1568.04 L1213.38 1568.04 L1213.38 1532.4 L1219.27 1532.4 L1219.27 1537.93 Q1221.12 1534.69 1224.08 1533.13 Q1227.04 1531.54 1231.27 1531.54 Q1231.88 1531.54 1232.61 1531.63 Q1233.34 1531.7 1234.23 1531.85 L1234.26 1537.87 Z" fill="#000000" fill-rule="evenodd" fill-opacity="1" /><path clip-path="url(#clip640)" d="M1246.2 1522.27 L1246.2 1532.4 L1258.26 1532.4 L1258.26 1536.95 L1246.2 1536.95 L1246.2 1556.3 Q1246.2 1560.66 1247.38 1561.9 Q1248.59 1563.14 1252.25 1563.14 L1258.26 1563.14 L1258.26 1568.04 L1252.25 1568.04 Q1245.47 1568.04 1242.89 1565.53 Q1240.31 1562.98 1240.31 1556.3 L1240.31 1536.95 L1236.01 1536.95 L1236.01 1532.4 L1240.31 1532.4 L1240.31 1522.27 L1246.2 1522.27 Z" fill="#000000" fill-rule="evenodd" fill-opacity="1" /><path clip-path="url(#clip640)" d="M1265.97 1532.4 L1271.82 1532.4 L1271.82 1568.04 L1265.97 1568.04 L1265.97 1532.4 M1265.97 1518.52 L1271.82 1518.52 L1271.82 1525.93 L1265.97 1525.93 L1265.97 1518.52 Z" fill="#000000" fill-rule="evenodd" fill-opacity="1" /><path clip-path="url(#clip640)" d="M1313.71 1546.53 L1313.71 1568.04 L1307.85 1568.04 L1307.85 1546.72 Q1307.85 1541.66 1305.88 1539.14 Q1303.91 1536.63 1299.96 1536.63 Q1295.22 1536.63 1292.48 1539.65 Q1289.74 1542.68 1289.74 1547.9 L1289.74 1568.04 L1283.85 1568.04 L1283.85 1532.4 L1289.74 1532.4 L1289.74 1537.93 Q1291.84 1534.72 1294.67 1533.13 Q1297.54 1531.54 1301.26 1531.54 Q1307.41 1531.54 1310.56 1535.36 Q1313.71 1539.14 1313.71 1546.53 Z" fill="#000000" fill-rule="evenodd" fill-opacity="1" /><path clip-path="url(#clip640)" d="M1348.85 1549.81 Q1348.85 1543.44 1346.21 1539.94 Q1343.6 1536.44 1338.85 1536.44 Q1334.14 1536.44 1331.5 1539.94 Q1328.89 1543.44 1328.89 1549.81 Q1328.89 1556.14 1331.5 1559.64 Q1334.14 1563.14 1338.85 1563.14 Q1343.6 1563.14 1346.21 1559.64 Q1348.85 1556.14 1348.85 1549.81 M1354.7 1563.62 Q1354.7 1572.72 1350.66 1577.15 Q1346.62 1581.6 1338.28 1581.6 Q1335.19 1581.6 1332.46 1581.13 Q1329.72 1580.68 1327.14 1579.72 L1327.14 1574.03 Q1329.72 1575.43 1332.23 1576.1 Q1334.75 1576.76 1337.36 1576.76 Q1343.12 1576.76 1345.98 1573.74 Q1348.85 1570.75 1348.85 1564.67 L1348.85 1561.77 Q1347.03 1564.92 1344.2 1566.48 Q1341.37 1568.04 1337.42 1568.04 Q1330.86 1568.04 1326.85 1563.05 Q1322.84 1558.05 1322.84 1549.81 Q1322.84 1541.53 1326.85 1536.53 Q1330.86 1531.54 1337.42 1531.54 Q1341.37 1531.54 1344.2 1533.1 Q1347.03 1534.66 1348.85 1537.81 L1348.85 1532.4 L1354.7 1532.4 L1354.7 1563.62 Z" fill="#000000" fill-rule="evenodd" fill-opacity="1" /><path clip-path="url(#clip640)" d="M1415.24 1539.24 Q1417.44 1535.29 1420.49 1533.41 Q1423.55 1531.54 1427.69 1531.54 Q1433.26 1531.54 1436.28 1535.45 Q1439.3 1539.33 1439.3 1546.53 L1439.3 1568.04 L1433.42 1568.04 L1433.42 1546.72 Q1433.42 1541.59 1431.6 1539.11 Q1429.79 1536.63 1426.06 1536.63 Q1421.51 1536.63 1418.87 1539.65 Q1416.23 1542.68 1416.23 1547.9 L1416.23 1568.04 L1410.34 1568.04 L1410.34 1546.72 Q1410.34 1541.56 1408.53 1539.11 Q1406.71 1536.63 1402.92 1536.63 Q1398.44 1536.63 1395.79 1539.68 Q1393.15 1542.71 1393.15 1547.9 L1393.15 1568.04 L1387.26 1568.04 L1387.26 1532.4 L1393.15 1532.4 L1393.15 1537.93 Q1395.16 1534.66 1397.96 1533.1 Q1400.76 1531.54 1404.61 1531.54 Q1408.49 1531.54 1411.2 1533.51 Q1413.94 1535.48 1415.24 1539.24 Z" fill="#000000" fill-rule="evenodd" fill-opacity="1" /><path clip-path="url(#clip640)" d="M1464.8 1536.5 Q1460.09 1536.5 1457.35 1540.19 Q1454.61 1543.85 1454.61 1550.25 Q1454.61 1556.65 1457.32 1560.34 Q1460.06 1564 1464.8 1564 Q1469.48 1564 1472.21 1560.31 Q1474.95 1556.62 1474.95 1550.25 Q1474.95 1543.92 1472.21 1540.23 Q1469.48 1536.5 1464.8 1536.5 M1464.8 1531.54 Q1472.44 1531.54 1476.8 1536.5 Q1481.16 1541.47 1481.16 1550.25 Q1481.16 1559 1476.8 1564 Q1472.44 1568.97 1464.8 1568.97 Q1457.13 1568.97 1452.77 1564 Q1448.44 1559 1448.44 1550.25 Q1448.44 1541.47 1452.77 1536.5 Q1457.13 1531.54 1464.8 1531.54 Z" fill="#000000" fill-rule="evenodd" fill-opacity="1" /><path clip-path="url(#clip640)" d="M1520.5 1546.53 L1520.5 1568.04 L1514.64 1568.04 L1514.64 1546.72 Q1514.64 1541.66 1512.67 1539.14 Q1510.7 1536.63 1506.75 1536.63 Q1502.01 1536.63 1499.27 1539.65 Q1496.53 1542.68 1496.53 1547.9 L1496.53 1568.04 L1490.64 1568.04 L1490.64 1532.4 L1496.53 1532.4 L1496.53 1537.93 Q1498.63 1534.72 1501.46 1533.13 Q1504.33 1531.54 1508.05 1531.54 Q1514.2 1531.54 1517.35 1535.36 Q1520.5 1539.14 1520.5 1546.53 Z" fill="#000000" fill-rule="evenodd" fill-opacity="1" /><path clip-path="url(#clip640)" d="M1537.97 1522.27 L1537.97 1532.4 L1550.04 1532.4 L1550.04 1536.95 L1537.97 1536.95 L1537.97 1556.3 Q1537.97 1560.66 1539.15 1561.9 Q1540.36 1563.14 1544.02 1563.14 L1550.04 1563.14 L1550.04 1568.04 L1544.02 1568.04 Q1537.24 1568.04 1534.66 1565.53 Q1532.08 1562.98 1532.08 1556.3 L1532.08 1536.95 L1527.79 1536.95 L1527.79 1532.4 L1532.08 1532.4 L1532.08 1522.27 L1537.97 1522.27 Z" fill="#000000" fill-rule="evenodd" fill-opacity="1" /><path clip-path="url(#clip640)" d="M1587.37 1546.53 L1587.37 1568.04 L1581.51 1568.04 L1581.51 1546.72 Q1581.51 1541.66 1579.54 1539.14 Q1577.57 1536.63 1573.62 1536.63 Q1568.88 1536.63 1566.14 1539.65 Q1563.4 1542.68 1563.4 1547.9 L1563.4 1568.04 L1557.51 1568.04 L1557.51 1518.52 L1563.4 1518.52 L1563.4 1537.93 Q1565.5 1534.72 1568.34 1533.13 Q1571.2 1531.54 1574.92 1531.54 Q1581.07 1531.54 1584.22 1535.36 Q1587.37 1539.14 1587.37 1546.53 Z" fill="#000000" fill-rule="evenodd" fill-opacity="1" /><polyline clip-path="url(#clip642)" style="stroke:#000000; stroke-linecap:butt; stroke-linejoin:round; stroke-width:2; stroke-opacity:0.1; fill:none" points="
  339.495,1283.54 2352.76,1283.54 
  "/>
<polyline clip-path="url(#clip642)" style="stroke:#000000; stroke-linecap:butt; stroke-linejoin:round; stroke-width:2; stroke-opacity:0.1; fill:none" points="
  339.495,1008.92 2352.76,1008.92 
  "/>
<polyline clip-path="url(#clip642)" style="stroke:#000000; stroke-linecap:butt; stroke-linejoin:round; stroke-width:2; stroke-opacity:0.1; fill:none" points="
  339.495,734.302 2352.76,734.302 
  "/>
<polyline clip-path="url(#clip642)" style="stroke:#000000; stroke-linecap:butt; stroke-linejoin:round; stroke-width:2; stroke-opacity:0.1; fill:none" points="
  339.495,459.682 2352.76,459.682 
  "/>
<polyline clip-path="url(#clip642)" style="stroke:#000000; stroke-linecap:butt; stroke-linejoin:round; stroke-width:2; stroke-opacity:0.1; fill:none" points="
  339.495,185.061 2352.76,185.061 
  "/>
<polyline clip-path="url(#clip640)" style="stroke:#000000; stroke-linecap:butt; stroke-linejoin:round; stroke-width:4; stroke-opacity:1; fill:none" points="
  339.495,1423.18 339.495,123.472 
  "/>
<polyline clip-path="url(#clip640)" style="stroke:#000000; stroke-linecap:butt; stroke-linejoin:round; stroke-width:4; stroke-opacity:1; fill:none" points="
  339.495,1283.54 358.393,1283.54 
  "/>
<polyline clip-path="url(#clip640)" style="stroke:#000000; stroke-linecap:butt; stroke-linejoin:round; stroke-width:4; stroke-opacity:1; fill:none" points="
  339.495,1008.92 358.393,1008.92 
  "/>
<polyline clip-path="url(#clip640)" style="stroke:#000000; stroke-linecap:butt; stroke-linejoin:round; stroke-width:4; stroke-opacity:1; fill:none" points="
  339.495,734.302 358.393,734.302 
  "/>
<polyline clip-path="url(#clip640)" style="stroke:#000000; stroke-linecap:butt; stroke-linejoin:round; stroke-width:4; stroke-opacity:1; fill:none" points="
  339.495,459.682 358.393,459.682 
  "/>
<polyline clip-path="url(#clip640)" style="stroke:#000000; stroke-linecap:butt; stroke-linejoin:round; stroke-width:4; stroke-opacity:1; fill:none" points="
  339.495,185.061 358.393,185.061 
  "/>
<path clip-path="url(#clip640)" d="M121.043 1303.34 L137.362 1303.34 L137.362 1307.27 L115.418 1307.27 L115.418 1303.34 Q118.08 1300.58 122.663 1295.95 Q127.269 1291.3 128.45 1289.96 Q130.695 1287.43 131.575 1285.7 Q132.478 1283.94 132.478 1282.25 Q132.478 1279.49 130.533 1277.76 Q128.612 1276.02 125.51 1276.02 Q123.311 1276.02 120.857 1276.78 Q118.427 1277.55 115.649 1279.1 L115.649 1274.38 Q118.473 1273.24 120.927 1272.66 Q123.38 1272.09 125.418 1272.09 Q130.788 1272.09 133.982 1274.77 Q137.177 1277.46 137.177 1281.95 Q137.177 1284.08 136.367 1286 Q135.579 1287.9 133.473 1290.49 Q132.894 1291.16 129.792 1294.38 Q126.691 1297.57 121.043 1303.34 Z" fill="#000000" fill-rule="evenodd" fill-opacity="1" /><path clip-path="url(#clip640)" d="M147.177 1301.39 L152.061 1301.39 L152.061 1307.27 L147.177 1307.27 L147.177 1301.39 Z" fill="#000000" fill-rule="evenodd" fill-opacity="1" /><path clip-path="url(#clip640)" d="M172.246 1275.79 Q168.635 1275.79 166.806 1279.35 Q165.001 1282.9 165.001 1290.03 Q165.001 1297.13 166.806 1300.7 Q168.635 1304.24 172.246 1304.24 Q175.88 1304.24 177.686 1300.7 Q179.514 1297.13 179.514 1290.03 Q179.514 1282.9 177.686 1279.35 Q175.88 1275.79 172.246 1275.79 M172.246 1272.09 Q178.056 1272.09 181.112 1276.69 Q184.19 1281.28 184.19 1290.03 Q184.19 1298.75 181.112 1303.36 Q178.056 1307.94 172.246 1307.94 Q166.436 1307.94 163.357 1303.36 Q160.302 1298.75 160.302 1290.03 Q160.302 1281.28 163.357 1276.69 Q166.436 1272.09 172.246 1272.09 Z" fill="#000000" fill-rule="evenodd" fill-opacity="1" /><path clip-path="url(#clip640)" d="M220.579 1281.81 L210 1292.43 L220.579 1303.01 L217.824 1305.81 L207.199 1295.19 L196.575 1305.81 L193.843 1303.01 L204.399 1292.43 L193.843 1281.81 L196.575 1279.01 L207.199 1289.63 L217.824 1279.01 L220.579 1281.81 Z" fill="#000000" fill-rule="evenodd" fill-opacity="1" /><path clip-path="url(#clip640)" d="M232.94 1303.34 L240.579 1303.34 L240.579 1276.97 L232.269 1278.64 L232.269 1274.38 L240.533 1272.71 L245.209 1272.71 L245.209 1303.34 L252.847 1303.34 L252.847 1307.27 L232.94 1307.27 L232.94 1303.34 Z" fill="#000000" fill-rule="evenodd" fill-opacity="1" /><path clip-path="url(#clip640)" d="M272.292 1275.79 Q268.681 1275.79 266.852 1279.35 Q265.046 1282.9 265.046 1290.03 Q265.046 1297.13 266.852 1300.7 Q268.681 1304.24 272.292 1304.24 Q275.926 1304.24 277.732 1300.7 Q279.56 1297.13 279.56 1290.03 Q279.56 1282.9 277.732 1279.35 Q275.926 1275.79 272.292 1275.79 M272.292 1272.09 Q278.102 1272.09 281.157 1276.69 Q284.236 1281.28 284.236 1290.03 Q284.236 1298.75 281.157 1303.36 Q278.102 1307.94 272.292 1307.94 Q266.482 1307.94 263.403 1303.36 Q260.347 1298.75 260.347 1290.03 Q260.347 1281.28 263.403 1276.69 Q266.482 1272.09 272.292 1272.09 Z" fill="#000000" fill-rule="evenodd" fill-opacity="1" /><path clip-path="url(#clip640)" d="M293.866 1266.53 Q291.157 1266.53 289.596 1267.97 Q288.054 1269.42 288.054 1271.96 Q288.054 1274.5 289.596 1275.95 Q291.157 1277.4 293.866 1277.4 Q296.574 1277.4 298.135 1275.95 Q299.696 1274.48 299.696 1271.96 Q299.696 1269.42 298.135 1267.97 Q296.593 1266.53 293.866 1266.53 M290.067 1264.91 Q287.621 1264.31 286.249 1262.63 Q284.894 1260.96 284.894 1258.55 Q284.894 1255.18 287.283 1253.23 Q289.69 1251.27 293.866 1251.27 Q298.06 1251.27 300.448 1253.23 Q302.837 1255.18 302.837 1258.55 Q302.837 1260.96 301.464 1262.63 Q300.11 1264.31 297.684 1264.91 Q300.43 1265.55 301.953 1267.41 Q303.495 1269.27 303.495 1271.96 Q303.495 1276.04 300.994 1278.22 Q298.511 1280.41 293.866 1280.41 Q289.22 1280.41 286.719 1278.22 Q284.236 1276.04 284.236 1271.96 Q284.236 1269.27 285.778 1267.41 Q287.321 1265.55 290.067 1264.91 M288.675 1258.91 Q288.675 1261.09 290.029 1262.31 Q291.402 1263.53 293.866 1263.53 Q296.311 1263.53 297.684 1262.31 Q299.075 1261.09 299.075 1258.91 Q299.075 1256.73 297.684 1255.5 Q296.311 1254.28 293.866 1254.28 Q291.402 1254.28 290.029 1255.5 Q288.675 1256.73 288.675 1258.91 Z" fill="#000000" fill-rule="evenodd" fill-opacity="1" /><path clip-path="url(#clip640)" d="M129.862 1002.16 L118.056 1020.61 L129.862 1020.61 L129.862 1002.16 M128.635 998.09 L134.515 998.09 L134.515 1020.61 L139.445 1020.61 L139.445 1024.5 L134.515 1024.5 L134.515 1032.65 L129.862 1032.65 L129.862 1024.5 L114.26 1024.5 L114.26 1019.99 L128.635 998.09 Z" fill="#000000" fill-rule="evenodd" fill-opacity="1" /><path clip-path="url(#clip640)" d="M147.177 1026.77 L152.061 1026.77 L152.061 1032.65 L147.177 1032.65 L147.177 1026.77 Z" fill="#000000" fill-rule="evenodd" fill-opacity="1" /><path clip-path="url(#clip640)" d="M172.246 1001.17 Q168.635 1001.17 166.806 1004.73 Q165.001 1008.28 165.001 1015.4 Q165.001 1022.51 166.806 1026.08 Q168.635 1029.62 172.246 1029.62 Q175.88 1029.62 177.686 1026.08 Q179.514 1022.51 179.514 1015.4 Q179.514 1008.28 177.686 1004.73 Q175.88 1001.17 172.246 1001.17 M172.246 997.465 Q178.056 997.465 181.112 1002.07 Q184.19 1006.65 184.19 1015.4 Q184.19 1024.13 181.112 1028.74 Q178.056 1033.32 172.246 1033.32 Q166.436 1033.32 163.357 1028.74 Q160.302 1024.13 160.302 1015.4 Q160.302 1006.65 163.357 1002.07 Q166.436 997.465 172.246 997.465 Z" fill="#000000" fill-rule="evenodd" fill-opacity="1" /><path clip-path="url(#clip640)" d="M220.579 1007.19 L210 1017.81 L220.579 1028.39 L217.824 1031.19 L207.199 1020.57 L196.575 1031.19 L193.843 1028.39 L204.399 1017.81 L193.843 1007.19 L196.575 1004.39 L207.199 1015.01 L217.824 1004.39 L220.579 1007.19 Z" fill="#000000" fill-rule="evenodd" fill-opacity="1" /><path clip-path="url(#clip640)" d="M232.94 1028.71 L240.579 1028.71 L240.579 1002.35 L232.269 1004.02 L232.269 999.757 L240.533 998.09 L245.209 998.09 L245.209 1028.71 L252.847 1028.71 L252.847 1032.65 L232.94 1032.65 L232.94 1028.71 Z" fill="#000000" fill-rule="evenodd" fill-opacity="1" /><path clip-path="url(#clip640)" d="M272.292 1001.17 Q268.681 1001.17 266.852 1004.73 Q265.046 1008.28 265.046 1015.4 Q265.046 1022.51 266.852 1026.08 Q268.681 1029.62 272.292 1029.62 Q275.926 1029.62 277.732 1026.08 Q279.56 1022.51 279.56 1015.4 Q279.56 1008.28 277.732 1004.73 Q275.926 1001.17 272.292 1001.17 M272.292 997.465 Q278.102 997.465 281.157 1002.07 Q284.236 1006.65 284.236 1015.4 Q284.236 1024.13 281.157 1028.74 Q278.102 1033.32 272.292 1033.32 Q266.482 1033.32 263.403 1028.74 Q260.347 1024.13 260.347 1015.4 Q260.347 1006.65 263.403 1002.07 Q266.482 997.465 272.292 997.465 Z" fill="#000000" fill-rule="evenodd" fill-opacity="1" /><path clip-path="url(#clip640)" d="M293.866 991.905 Q291.157 991.905 289.596 993.353 Q288.054 994.801 288.054 997.34 Q288.054 999.879 289.596 1001.33 Q291.157 1002.78 293.866 1002.78 Q296.574 1002.78 298.135 1001.33 Q299.696 999.861 299.696 997.34 Q299.696 994.801 298.135 993.353 Q296.593 991.905 293.866 991.905 M290.067 990.287 Q287.621 989.686 286.249 988.012 Q284.894 986.338 284.894 983.93 Q284.894 980.564 287.283 978.608 Q289.69 976.652 293.866 976.652 Q298.06 976.652 300.448 978.608 Q302.837 980.564 302.837 983.93 Q302.837 986.338 301.464 988.012 Q300.11 989.686 297.684 990.287 Q300.43 990.927 301.953 992.789 Q303.495 994.651 303.495 997.34 Q303.495 1001.42 300.994 1003.6 Q298.511 1005.79 293.866 1005.79 Q289.22 1005.79 286.719 1003.6 Q284.236 1001.42 284.236 997.34 Q284.236 994.651 285.778 992.789 Q287.321 990.927 290.067 990.287 M288.675 984.288 Q288.675 986.47 290.029 987.692 Q291.402 988.915 293.866 988.915 Q296.311 988.915 297.684 987.692 Q299.075 986.47 299.075 984.288 Q299.075 982.106 297.684 980.884 Q296.311 979.661 293.866 979.661 Q291.402 979.661 290.029 980.884 Q288.675 982.106 288.675 984.288 Z" fill="#000000" fill-rule="evenodd" fill-opacity="1" /><path clip-path="url(#clip640)" d="M127.593 738.886 Q124.445 738.886 122.593 741.039 Q120.765 743.192 120.765 746.942 Q120.765 750.669 122.593 752.845 Q124.445 754.997 127.593 754.997 Q130.742 754.997 132.57 752.845 Q134.422 750.669 134.422 746.942 Q134.422 743.192 132.57 741.039 Q130.742 738.886 127.593 738.886 M136.876 724.234 L136.876 728.493 Q135.117 727.659 133.311 727.22 Q131.529 726.78 129.769 726.78 Q125.14 726.78 122.686 729.905 Q120.255 733.03 119.908 739.349 Q121.274 737.335 123.334 736.271 Q125.394 735.183 127.871 735.183 Q133.08 735.183 136.089 738.354 Q139.121 741.502 139.121 746.942 Q139.121 752.266 135.973 755.483 Q132.825 758.701 127.593 758.701 Q121.598 758.701 118.427 754.118 Q115.256 749.511 115.256 740.784 Q115.256 732.59 119.144 727.729 Q123.033 722.845 129.584 722.845 Q131.343 722.845 133.126 723.192 Q134.931 723.539 136.876 724.234 Z" fill="#000000" fill-rule="evenodd" fill-opacity="1" /><path clip-path="url(#clip640)" d="M147.177 752.15 L152.061 752.15 L152.061 758.03 L147.177 758.03 L147.177 752.15 Z" fill="#000000" fill-rule="evenodd" fill-opacity="1" /><path clip-path="url(#clip640)" d="M172.246 726.548 Q168.635 726.548 166.806 730.113 Q165.001 733.655 165.001 740.784 Q165.001 747.891 166.806 751.456 Q168.635 754.997 172.246 754.997 Q175.88 754.997 177.686 751.456 Q179.514 747.891 179.514 740.784 Q179.514 733.655 177.686 730.113 Q175.88 726.548 172.246 726.548 M172.246 722.845 Q178.056 722.845 181.112 727.451 Q184.19 732.034 184.19 740.784 Q184.19 749.511 181.112 754.118 Q178.056 758.701 172.246 758.701 Q166.436 758.701 163.357 754.118 Q160.302 749.511 160.302 740.784 Q160.302 732.034 163.357 727.451 Q166.436 722.845 172.246 722.845 Z" fill="#000000" fill-rule="evenodd" fill-opacity="1" /><path clip-path="url(#clip640)" d="M220.579 732.567 L210 743.192 L220.579 753.77 L217.824 756.571 L207.199 745.946 L196.575 756.571 L193.843 753.77 L204.399 743.192 L193.843 732.567 L196.575 729.766 L207.199 740.391 L217.824 729.766 L220.579 732.567 Z" fill="#000000" fill-rule="evenodd" fill-opacity="1" /><path clip-path="url(#clip640)" d="M232.94 754.095 L240.579 754.095 L240.579 727.729 L232.269 729.396 L232.269 725.136 L240.533 723.47 L245.209 723.47 L245.209 754.095 L252.847 754.095 L252.847 758.03 L232.94 758.03 L232.94 754.095 Z" fill="#000000" fill-rule="evenodd" fill-opacity="1" /><path clip-path="url(#clip640)" d="M272.292 726.548 Q268.681 726.548 266.852 730.113 Q265.046 733.655 265.046 740.784 Q265.046 747.891 266.852 751.456 Q268.681 754.997 272.292 754.997 Q275.926 754.997 277.732 751.456 Q279.56 747.891 279.56 740.784 Q279.56 733.655 277.732 730.113 Q275.926 726.548 272.292 726.548 M272.292 722.845 Q278.102 722.845 281.157 727.451 Q284.236 732.034 284.236 740.784 Q284.236 749.511 281.157 754.118 Q278.102 758.701 272.292 758.701 Q266.482 758.701 263.403 754.118 Q260.347 749.511 260.347 740.784 Q260.347 732.034 263.403 727.451 Q266.482 722.845 272.292 722.845 Z" fill="#000000" fill-rule="evenodd" fill-opacity="1" /><path clip-path="url(#clip640)" d="M293.866 717.285 Q291.157 717.285 289.596 718.733 Q288.054 720.181 288.054 722.72 Q288.054 725.259 289.596 726.707 Q291.157 728.155 293.866 728.155 Q296.574 728.155 298.135 726.707 Q299.696 725.24 299.696 722.72 Q299.696 720.181 298.135 718.733 Q296.593 717.285 293.866 717.285 M290.067 715.667 Q287.621 715.065 286.249 713.391 Q284.894 711.717 284.894 709.31 Q284.894 705.943 287.283 703.987 Q289.69 702.031 293.866 702.031 Q298.06 702.031 300.448 703.987 Q302.837 705.943 302.837 709.31 Q302.837 711.717 301.464 713.391 Q300.11 715.065 297.684 715.667 Q300.43 716.307 301.953 718.169 Q303.495 720.031 303.495 722.72 Q303.495 726.801 300.994 728.983 Q298.511 731.165 293.866 731.165 Q289.22 731.165 286.719 728.983 Q284.236 726.801 284.236 722.72 Q284.236 720.031 285.778 718.169 Q287.321 716.307 290.067 715.667 M288.675 709.667 Q288.675 711.849 290.029 713.072 Q291.402 714.294 293.866 714.294 Q296.311 714.294 297.684 713.072 Q299.075 711.849 299.075 709.667 Q299.075 707.486 297.684 706.263 Q296.311 705.041 293.866 705.041 Q291.402 705.041 290.029 706.263 Q288.675 707.486 288.675 709.667 Z" fill="#000000" fill-rule="evenodd" fill-opacity="1" /><path clip-path="url(#clip640)" d="M127.015 466.997 Q123.681 466.997 121.76 468.78 Q119.862 470.562 119.862 473.687 Q119.862 476.812 121.76 478.595 Q123.681 480.377 127.015 480.377 Q130.348 480.377 132.269 478.595 Q134.191 476.789 134.191 473.687 Q134.191 470.562 132.269 468.78 Q130.371 466.997 127.015 466.997 M122.339 465.007 Q119.33 464.266 117.64 462.206 Q115.973 460.146 115.973 457.183 Q115.973 453.039 118.913 450.632 Q121.876 448.224 127.015 448.224 Q132.177 448.224 135.117 450.632 Q138.056 453.039 138.056 457.183 Q138.056 460.146 136.367 462.206 Q134.7 464.266 131.714 465.007 Q135.093 465.794 136.968 468.085 Q138.867 470.377 138.867 473.687 Q138.867 478.71 135.788 481.395 Q132.732 484.081 127.015 484.081 Q121.297 484.081 118.218 481.395 Q115.163 478.71 115.163 473.687 Q115.163 470.377 117.061 468.085 Q118.959 465.794 122.339 465.007 M120.626 457.622 Q120.626 460.308 122.293 461.812 Q123.982 463.317 127.015 463.317 Q130.024 463.317 131.714 461.812 Q133.427 460.308 133.427 457.622 Q133.427 454.937 131.714 453.433 Q130.024 451.928 127.015 451.928 Q123.982 451.928 122.293 453.433 Q120.626 454.937 120.626 457.622 Z" fill="#000000" fill-rule="evenodd" fill-opacity="1" /><path clip-path="url(#clip640)" d="M147.177 477.53 L152.061 477.53 L152.061 483.409 L147.177 483.409 L147.177 477.53 Z" fill="#000000" fill-rule="evenodd" fill-opacity="1" /><path clip-path="url(#clip640)" d="M172.246 451.928 Q168.635 451.928 166.806 455.493 Q165.001 459.034 165.001 466.164 Q165.001 473.27 166.806 476.835 Q168.635 480.377 172.246 480.377 Q175.88 480.377 177.686 476.835 Q179.514 473.27 179.514 466.164 Q179.514 459.034 177.686 455.493 Q175.88 451.928 172.246 451.928 M172.246 448.224 Q178.056 448.224 181.112 452.831 Q184.19 457.414 184.19 466.164 Q184.19 474.891 181.112 479.497 Q178.056 484.081 172.246 484.081 Q166.436 484.081 163.357 479.497 Q160.302 474.891 160.302 466.164 Q160.302 457.414 163.357 452.831 Q166.436 448.224 172.246 448.224 Z" fill="#000000" fill-rule="evenodd" fill-opacity="1" /><path clip-path="url(#clip640)" d="M220.579 457.946 L210 468.571 L220.579 479.15 L217.824 481.951 L207.199 471.326 L196.575 481.951 L193.843 479.15 L204.399 468.571 L193.843 457.946 L196.575 455.146 L207.199 465.771 L217.824 455.146 L220.579 457.946 Z" fill="#000000" fill-rule="evenodd" fill-opacity="1" /><path clip-path="url(#clip640)" d="M232.94 479.474 L240.579 479.474 L240.579 453.109 L232.269 454.775 L232.269 450.516 L240.533 448.849 L245.209 448.849 L245.209 479.474 L252.847 479.474 L252.847 483.409 L232.94 483.409 L232.94 479.474 Z" fill="#000000" fill-rule="evenodd" fill-opacity="1" /><path clip-path="url(#clip640)" d="M272.292 451.928 Q268.681 451.928 266.852 455.493 Q265.046 459.034 265.046 466.164 Q265.046 473.27 266.852 476.835 Q268.681 480.377 272.292 480.377 Q275.926 480.377 277.732 476.835 Q279.56 473.27 279.56 466.164 Q279.56 459.034 277.732 455.493 Q275.926 451.928 272.292 451.928 M272.292 448.224 Q278.102 448.224 281.157 452.831 Q284.236 457.414 284.236 466.164 Q284.236 474.891 281.157 479.497 Q278.102 484.081 272.292 484.081 Q266.482 484.081 263.403 479.497 Q260.347 474.891 260.347 466.164 Q260.347 457.414 263.403 452.831 Q266.482 448.224 272.292 448.224 Z" fill="#000000" fill-rule="evenodd" fill-opacity="1" /><path clip-path="url(#clip640)" d="M293.866 442.664 Q291.157 442.664 289.596 444.112 Q288.054 445.561 288.054 448.1 Q288.054 450.639 289.596 452.087 Q291.157 453.535 293.866 453.535 Q296.574 453.535 298.135 452.087 Q299.696 450.62 299.696 448.1 Q299.696 445.561 298.135 444.112 Q296.593 442.664 293.866 442.664 M290.067 441.047 Q287.621 440.445 286.249 438.771 Q284.894 437.097 284.894 434.69 Q284.894 431.323 287.283 429.367 Q289.69 427.411 293.866 427.411 Q298.06 427.411 300.448 429.367 Q302.837 431.323 302.837 434.69 Q302.837 437.097 301.464 438.771 Q300.11 440.445 297.684 441.047 Q300.43 441.686 301.953 443.548 Q303.495 445.41 303.495 448.1 Q303.495 452.181 300.994 454.363 Q298.511 456.544 293.866 456.544 Q289.22 456.544 286.719 454.363 Q284.236 452.181 284.236 448.1 Q284.236 445.41 285.778 443.548 Q287.321 441.686 290.067 441.047 M288.675 435.047 Q288.675 437.229 290.029 438.451 Q291.402 439.674 293.866 439.674 Q296.311 439.674 297.684 438.451 Q299.075 437.229 299.075 435.047 Q299.075 432.865 297.684 431.643 Q296.311 430.42 293.866 430.42 Q291.402 430.42 290.029 431.643 Q288.675 432.865 288.675 435.047 Z" fill="#000000" fill-rule="evenodd" fill-opacity="1" /><path clip-path="url(#clip640)" d="M117.712 204.854 L125.351 204.854 L125.351 178.488 L117.041 180.155 L117.041 175.896 L125.305 174.229 L129.981 174.229 L129.981 204.854 L137.619 204.854 L137.619 208.789 L117.712 208.789 L117.712 204.854 Z" fill="#000000" fill-rule="evenodd" fill-opacity="1" /><path clip-path="url(#clip640)" d="M147.064 202.909 L151.948 202.909 L151.948 208.789 L147.064 208.789 L147.064 202.909 Z" fill="#000000" fill-rule="evenodd" fill-opacity="1" /><path clip-path="url(#clip640)" d="M172.133 177.308 Q168.522 177.308 166.693 180.872 Q164.888 184.414 164.888 191.544 Q164.888 198.65 166.693 202.215 Q168.522 205.757 172.133 205.757 Q175.767 205.757 177.573 202.215 Q179.402 198.65 179.402 191.544 Q179.402 184.414 177.573 180.872 Q175.767 177.308 172.133 177.308 M172.133 173.604 Q177.943 173.604 180.999 178.21 Q184.077 182.794 184.077 191.544 Q184.077 200.27 180.999 204.877 Q177.943 209.46 172.133 209.46 Q166.323 209.46 163.244 204.877 Q160.189 200.27 160.189 191.544 Q160.189 182.794 163.244 178.21 Q166.323 173.604 172.133 173.604 Z" fill="#000000" fill-rule="evenodd" fill-opacity="1" /><path clip-path="url(#clip640)" d="M220.466 183.326 L209.888 193.951 L220.466 204.53 L217.712 207.331 L207.087 196.706 L196.462 207.331 L193.73 204.53 L204.286 193.951 L193.73 183.326 L196.462 180.525 L207.087 191.15 L217.712 180.525 L220.466 183.326 Z" fill="#000000" fill-rule="evenodd" fill-opacity="1" /><path clip-path="url(#clip640)" d="M232.827 204.854 L240.466 204.854 L240.466 178.488 L232.156 180.155 L232.156 175.896 L240.42 174.229 L245.096 174.229 L245.096 204.854 L252.735 204.854 L252.735 208.789 L232.827 208.789 L232.827 204.854 Z" fill="#000000" fill-rule="evenodd" fill-opacity="1" /><path clip-path="url(#clip640)" d="M272.179 177.308 Q268.568 177.308 266.739 180.872 Q264.934 184.414 264.934 191.544 Q264.934 198.65 266.739 202.215 Q268.568 205.757 272.179 205.757 Q275.813 205.757 277.619 202.215 Q279.447 198.65 279.447 191.544 Q279.447 184.414 277.619 180.872 Q275.813 177.308 272.179 177.308 M272.179 173.604 Q277.989 173.604 281.045 178.21 Q284.123 182.794 284.123 191.544 Q284.123 200.27 281.045 204.877 Q277.989 209.46 272.179 209.46 Q266.369 209.46 263.29 204.877 Q260.234 200.27 260.234 191.544 Q260.234 182.794 263.29 178.21 Q266.369 173.604 272.179 173.604 Z" fill="#000000" fill-rule="evenodd" fill-opacity="1" /><path clip-path="url(#clip640)" d="M285.929 180.796 L285.929 177.335 Q287.358 178.012 288.825 178.369 Q290.292 178.727 291.703 178.727 Q295.464 178.727 297.439 176.206 Q299.433 173.667 299.715 168.514 Q298.624 170.132 296.95 170.997 Q295.276 171.862 293.245 171.862 Q289.032 171.862 286.568 169.323 Q284.123 166.765 284.123 162.345 Q284.123 158.019 286.681 155.405 Q289.239 152.791 293.49 152.791 Q298.361 152.791 300.919 156.533 Q303.495 160.257 303.495 167.367 Q303.495 174.006 300.336 177.974 Q297.195 181.924 291.872 181.924 Q290.443 181.924 288.976 181.642 Q287.509 181.36 285.929 180.796 M293.49 168.89 Q296.047 168.89 297.533 167.141 Q299.038 165.392 299.038 162.345 Q299.038 159.317 297.533 157.568 Q296.047 155.8 293.49 155.8 Q290.932 155.8 289.427 157.568 Q287.941 159.317 287.941 162.345 Q287.941 165.392 289.427 167.141 Q290.932 168.89 293.49 168.89 Z" fill="#000000" fill-rule="evenodd" fill-opacity="1" /><path clip-path="url(#clip640)" d="M57.2247 995.378 L44.4614 995.378 L44.4614 1005.88 L39.1779 1005.88 L39.1779 989.012 L59.58 989.012 Q62.2218 992.736 63.5904 997.224 Q64.9272 1001.71 64.9272 1006.8 Q64.9272 1017.94 58.4342 1024.25 Q51.9093 1030.52 40.2919 1030.52 Q28.6427 1030.52 22.1496 1024.25 Q15.6248 1017.94 15.6248 1006.8 Q15.6248 1002.16 16.7706 997.988 Q17.9164 993.786 20.1444 990.253 L26.9876 990.253 Q23.9639 993.818 22.4361 997.829 Q20.9083 1001.84 20.9083 1006.26 Q20.9083 1014.98 25.7781 1019.38 Q30.6479 1023.74 40.2919 1023.74 Q49.9041 1023.74 54.7739 1019.38 Q59.6436 1014.98 59.6436 1006.26 Q59.6436 1002.86 59.0707 1000.18 Q58.466 997.51 57.2247 995.378 Z" fill="#000000" fill-rule="evenodd" fill-opacity="1" /><path clip-path="url(#clip640)" d="M44.7161 947.03 L47.5806 947.03 L47.5806 973.957 Q53.6281 973.575 56.8109 970.329 Q59.9619 967.05 59.9619 961.226 Q59.9619 957.852 59.1344 954.701 Q58.3069 951.518 56.6518 948.399 L62.1899 948.399 Q63.5267 951.55 64.227 954.86 Q64.9272 958.17 64.9272 961.576 Q64.9272 970.106 59.9619 975.103 Q54.9967 980.068 46.5303 980.068 Q37.7774 980.068 32.6531 975.358 Q27.4968 970.615 27.4968 962.594 Q27.4968 955.401 32.1438 951.232 Q36.7589 947.03 44.7161 947.03 M42.9973 952.887 Q38.1912 952.95 35.3266 955.592 Q32.4621 958.202 32.4621 962.531 Q32.4621 967.432 35.2312 970.392 Q38.0002 973.321 43.0292 973.766 L42.9973 952.887 Z" fill="#000000" fill-rule="evenodd" fill-opacity="1" /><path clip-path="url(#clip640)" d="M42.4881 907.786 L64.0042 907.786 L64.0042 913.642 L42.679 913.642 Q37.6183 913.642 35.1038 915.615 Q32.5894 917.589 32.5894 921.536 Q32.5894 926.278 35.6131 929.015 Q38.6368 931.753 43.8567 931.753 L64.0042 931.753 L64.0042 937.641 L28.3562 937.641 L28.3562 931.753 L33.8944 931.753 Q30.6797 929.652 29.0883 926.819 Q27.4968 923.955 27.4968 920.231 Q27.4968 914.088 31.3163 910.937 Q35.1038 907.786 42.4881 907.786 Z" fill="#000000" fill-rule="evenodd" fill-opacity="1" /><path clip-path="url(#clip640)" d="M44.7161 865.613 L47.5806 865.613 L47.5806 892.54 Q53.6281 892.158 56.8109 888.911 Q59.9619 885.633 59.9619 879.808 Q59.9619 876.435 59.1344 873.283 Q58.3069 870.101 56.6518 866.981 L62.1899 866.981 Q63.5267 870.132 64.227 873.443 Q64.9272 876.753 64.9272 880.158 Q64.9272 888.689 59.9619 893.686 Q54.9967 898.651 46.5303 898.651 Q37.7774 898.651 32.6531 893.94 Q27.4968 889.198 27.4968 881.177 Q27.4968 873.984 32.1438 869.814 Q36.7589 865.613 44.7161 865.613 M42.9973 871.469 Q38.1912 871.533 35.3266 874.175 Q32.4621 876.785 32.4621 881.113 Q32.4621 886.015 35.2312 888.975 Q38.0002 891.903 43.0292 892.349 L42.9973 871.469 Z" fill="#000000" fill-rule="evenodd" fill-opacity="1" /><path clip-path="url(#clip640)" d="M33.8307 835.344 Q33.2578 836.331 33.0032 837.508 Q32.7167 838.654 32.7167 840.055 Q32.7167 845.02 35.9632 847.693 Q39.1779 850.335 45.2253 850.335 L64.0042 850.335 L64.0042 856.223 L28.3562 856.223 L28.3562 850.335 L33.8944 850.335 Q30.6479 848.489 29.0883 845.529 Q27.4968 842.569 27.4968 838.336 Q27.4968 837.731 27.5923 836.999 Q27.656 836.267 27.8151 835.376 L33.8307 835.344 Z" fill="#000000" fill-rule="evenodd" fill-opacity="1" /><path clip-path="url(#clip640)" d="M46.0847 813 Q46.0847 820.098 47.7079 822.835 Q49.3312 825.573 53.2461 825.573 Q56.3653 825.573 58.2114 823.535 Q60.0256 821.467 60.0256 817.934 Q60.0256 813.064 56.5881 810.136 Q53.1188 807.176 47.3897 807.176 L46.0847 807.176 L46.0847 813 M43.6657 801.319 L64.0042 801.319 L64.0042 807.176 L58.5933 807.176 Q61.8398 809.181 63.3994 812.173 Q64.9272 815.165 64.9272 819.493 Q64.9272 824.968 61.8716 828.214 Q58.7843 831.429 53.6281 831.429 Q47.6125 831.429 44.5569 827.419 Q41.5014 823.376 41.5014 815.387 L41.5014 807.176 L40.9285 807.176 Q36.8862 807.176 34.6901 809.849 Q32.4621 812.491 32.4621 817.297 Q32.4621 820.353 33.1941 823.249 Q33.9262 826.145 35.3903 828.819 L29.9795 828.819 Q28.7381 825.604 28.1334 822.581 Q27.4968 819.557 27.4968 816.692 Q27.4968 808.958 31.5072 805.139 Q35.5176 801.319 43.6657 801.319 Z" fill="#000000" fill-rule="evenodd" fill-opacity="1" /><path clip-path="url(#clip640)" d="M18.2347 783.463 L28.3562 783.463 L28.3562 771.4 L32.9077 771.4 L32.9077 783.463 L52.2594 783.463 Q56.6199 783.463 57.8613 782.286 Q59.1026 781.076 59.1026 777.416 L59.1026 771.4 L64.0042 771.4 L64.0042 777.416 Q64.0042 784.195 61.4897 786.774 Q58.9434 789.352 52.2594 789.352 L32.9077 789.352 L32.9077 793.649 L28.3562 793.649 L28.3562 789.352 L18.2347 789.352 L18.2347 783.463 Z" fill="#000000" fill-rule="evenodd" fill-opacity="1" /><path clip-path="url(#clip640)" d="M28.3562 763.698 L28.3562 757.841 L64.0042 757.841 L64.0042 763.698 L28.3562 763.698 M14.479 763.698 L14.479 757.841 L21.895 757.841 L21.895 763.698 L14.479 763.698 Z" fill="#000000" fill-rule="evenodd" fill-opacity="1" /><path clip-path="url(#clip640)" d="M32.4621 731.774 Q32.4621 736.484 36.1542 739.222 Q39.8145 741.959 46.212 741.959 Q52.6095 741.959 56.3017 739.254 Q59.9619 736.516 59.9619 731.774 Q59.9619 727.095 56.2698 724.358 Q52.5777 721.621 46.212 721.621 Q39.8781 721.621 36.186 724.358 Q32.4621 727.095 32.4621 731.774 M27.4968 731.774 Q27.4968 724.135 32.4621 719.774 Q37.4273 715.414 46.212 715.414 Q54.9649 715.414 59.9619 719.774 Q64.9272 724.135 64.9272 731.774 Q64.9272 739.445 59.9619 743.805 Q54.9649 748.134 46.212 748.134 Q37.4273 748.134 32.4621 743.805 Q27.4968 739.445 27.4968 731.774 Z" fill="#000000" fill-rule="evenodd" fill-opacity="1" /><path clip-path="url(#clip640)" d="M42.4881 676.074 L64.0042 676.074 L64.0042 681.93 L42.679 681.93 Q37.6183 681.93 35.1038 683.904 Q32.5894 685.877 32.5894 689.824 Q32.5894 694.566 35.6131 697.304 Q38.6368 700.041 43.8567 700.041 L64.0042 700.041 L64.0042 705.929 L28.3562 705.929 L28.3562 700.041 L33.8944 700.041 Q30.6797 697.94 29.0883 695.107 Q27.4968 692.243 27.4968 688.519 Q27.4968 682.376 31.3163 679.225 Q35.1038 676.074 42.4881 676.074 Z" fill="#000000" fill-rule="evenodd" fill-opacity="1" /><path clip-path="url(#clip640)" d="M29.7248 618.019 L35.1993 618.019 Q33.8307 620.501 33.1623 623.016 Q32.4621 625.498 32.4621 628.045 Q32.4621 633.742 36.0905 636.893 Q39.6872 640.044 46.212 640.044 Q52.7369 640.044 56.3653 636.893 Q59.9619 633.742 59.9619 628.045 Q59.9619 625.498 59.2935 623.016 Q58.5933 620.501 57.2247 618.019 L62.6355 618.019 Q63.7814 620.469 64.3543 623.111 Q64.9272 625.721 64.9272 628.681 Q64.9272 636.734 59.8664 641.476 Q54.8057 646.219 46.212 646.219 Q37.491 646.219 32.4939 641.444 Q27.4968 636.638 27.4968 628.299 Q27.4968 625.594 28.0697 623.016 Q28.6108 620.438 29.7248 618.019 Z" fill="#000000" fill-rule="evenodd" fill-opacity="1" /><path clip-path="url(#clip640)" d="M32.4621 594.02 Q32.4621 598.731 36.1542 601.468 Q39.8145 604.205 46.212 604.205 Q52.6095 604.205 56.3017 601.5 Q59.9619 598.762 59.9619 594.02 Q59.9619 589.341 56.2698 586.604 Q52.5777 583.867 46.212 583.867 Q39.8781 583.867 36.186 586.604 Q32.4621 589.341 32.4621 594.02 M27.4968 594.02 Q27.4968 586.381 32.4621 582.021 Q37.4273 577.66 46.212 577.66 Q54.9649 577.66 59.9619 582.021 Q64.9272 586.381 64.9272 594.02 Q64.9272 601.691 59.9619 606.051 Q54.9649 610.38 46.212 610.38 Q37.4273 610.38 32.4621 606.051 Q27.4968 601.691 27.4968 594.02 Z" fill="#000000" fill-rule="evenodd" fill-opacity="1" /><path clip-path="url(#clip640)" d="M29.4065 545.227 L34.9447 545.227 Q33.6716 547.709 33.035 550.383 Q32.3984 553.057 32.3984 555.921 Q32.3984 560.282 33.7352 562.478 Q35.072 564.642 37.7456 564.642 Q39.7826 564.642 40.9603 563.083 Q42.1061 561.523 43.1565 556.812 L43.6021 554.807 Q44.9389 548.569 47.3897 545.959 Q49.8086 543.317 54.1691 543.317 Q59.1344 543.317 62.0308 547.264 Q64.9272 551.179 64.9272 558.054 Q64.9272 560.918 64.3543 564.037 Q63.8132 567.125 62.6992 570.562 L56.6518 570.562 Q58.3387 567.316 59.198 564.165 Q60.0256 561.014 60.0256 557.926 Q60.0256 553.789 58.6251 551.561 Q57.1929 549.333 54.6147 549.333 Q52.2276 549.333 50.9545 550.956 Q49.6813 552.547 48.5037 557.99 L48.0262 560.027 Q46.8804 565.47 44.5251 567.889 Q42.138 570.308 38.0002 570.308 Q32.9713 570.308 30.2341 566.743 Q27.4968 563.178 27.4968 556.621 Q27.4968 553.375 27.9743 550.51 Q28.4517 547.646 29.4065 545.227 Z" fill="#000000" fill-rule="evenodd" fill-opacity="1" /><path clip-path="url(#clip640)" d="M18.2347 528.199 L28.3562 528.199 L28.3562 516.136 L32.9077 516.136 L32.9077 528.199 L52.2594 528.199 Q56.6199 528.199 57.8613 527.021 Q59.1026 525.811 59.1026 522.151 L59.1026 516.136 L64.0042 516.136 L64.0042 522.151 Q64.0042 528.931 61.4897 531.509 Q58.9434 534.087 52.2594 534.087 L32.9077 534.087 L32.9077 538.384 L28.3562 538.384 L28.3562 534.087 L18.2347 534.087 L18.2347 528.199 Z" fill="#000000" fill-rule="evenodd" fill-opacity="1" /><path clip-path="url(#clip640)" d="M613.155 63.9476 L613.155 47.7034 L599.787 47.7034 L599.787 40.9789 L621.257 40.9789 L621.257 66.9452 Q616.517 70.3075 610.805 72.0494 Q605.094 73.7508 598.612 73.7508 Q584.434 73.7508 576.413 65.4869 Q568.433 57.1826 568.433 42.3968 Q568.433 27.5705 576.413 19.3066 Q584.434 11.0023 598.612 11.0023 Q604.527 11.0023 609.833 12.4606 Q615.18 13.9189 619.677 16.7545 L619.677 25.464 Q615.14 21.6156 610.036 19.6712 Q604.932 17.7268 599.301 17.7268 Q588.201 17.7268 582.611 23.9246 Q577.061 30.1225 577.061 42.3968 Q577.061 54.6305 582.611 60.8284 Q588.201 67.0263 599.301 67.0263 Q603.635 67.0263 607.038 66.2971 Q610.441 65.5274 613.155 63.9476 Z" fill="#000000" fill-rule="evenodd" fill-opacity="1" /><path clip-path="url(#clip640)" d="M674.688 48.0275 L674.688 51.6733 L640.418 51.6733 Q640.904 59.3701 645.036 63.421 Q649.208 67.4314 656.621 67.4314 Q660.915 67.4314 664.926 66.3781 Q668.976 65.3249 672.946 63.2184 L672.946 70.267 Q668.936 71.9684 664.723 72.8596 Q660.51 73.7508 656.176 73.7508 Q645.319 73.7508 638.959 67.4314 Q632.64 61.1119 632.64 50.3365 Q632.64 39.1965 638.635 32.6746 Q644.671 26.1121 654.879 26.1121 Q664.034 26.1121 669.341 32.0264 Q674.688 37.9003 674.688 48.0275 M667.235 45.84 Q667.154 39.7232 663.791 36.0774 Q660.47 32.4315 654.96 32.4315 Q648.722 32.4315 644.955 35.9558 Q641.228 39.4801 640.661 45.8805 L667.235 45.84 Z" fill="#000000" fill-rule="evenodd" fill-opacity="1" /><path clip-path="url(#clip640)" d="M724.636 45.1919 L724.636 72.576 L717.182 72.576 L717.182 45.4349 Q717.182 38.994 714.671 35.7938 Q712.159 32.5936 707.136 32.5936 Q701.1 32.5936 697.616 36.4419 Q694.133 40.2903 694.133 46.9338 L694.133 72.576 L686.638 72.576 L686.638 27.2059 L694.133 27.2059 L694.133 34.2544 Q696.806 30.163 700.411 28.1376 Q704.057 26.1121 708.797 26.1121 Q716.615 26.1121 720.625 30.9732 Q724.636 35.7938 724.636 45.1919 Z" fill="#000000" fill-rule="evenodd" fill-opacity="1" /><path clip-path="url(#clip640)" d="M778.31 48.0275 L778.31 51.6733 L744.04 51.6733 Q744.526 59.3701 748.658 63.421 Q752.83 67.4314 760.243 67.4314 Q764.537 67.4314 768.548 66.3781 Q772.599 65.3249 776.568 63.2184 L776.568 70.267 Q772.558 71.9684 768.345 72.8596 Q764.132 73.7508 759.798 73.7508 Q748.941 73.7508 742.581 67.4314 Q736.262 61.1119 736.262 50.3365 Q736.262 39.1965 742.257 32.6746 Q748.293 26.1121 758.501 26.1121 Q767.656 26.1121 772.963 32.0264 Q778.31 37.9003 778.31 48.0275 M770.857 45.84 Q770.776 39.7232 767.413 36.0774 Q764.092 32.4315 758.582 32.4315 Q752.344 32.4315 748.577 35.9558 Q744.85 39.4801 744.283 45.8805 L770.857 45.84 Z" fill="#000000" fill-rule="evenodd" fill-opacity="1" /><path clip-path="url(#clip640)" d="M816.834 34.1734 Q815.579 33.4443 814.08 33.1202 Q812.621 32.7556 810.839 32.7556 Q804.52 32.7556 801.117 36.8875 Q797.755 40.9789 797.755 48.6757 L797.755 72.576 L790.261 72.576 L790.261 27.2059 L797.755 27.2059 L797.755 34.2544 Q800.104 30.1225 803.872 28.1376 Q807.639 26.1121 813.027 26.1121 Q813.796 26.1121 814.728 26.2337 Q815.66 26.3147 816.794 26.5172 L816.834 34.1734 Z" fill="#000000" fill-rule="evenodd" fill-opacity="1" /><path clip-path="url(#clip640)" d="M845.272 49.7694 Q836.238 49.7694 832.754 51.8354 Q829.271 53.9013 829.271 58.8839 Q829.271 62.8538 831.863 65.2034 Q834.496 67.5124 838.993 67.5124 Q845.191 67.5124 848.918 63.1374 Q852.685 58.7219 852.685 51.4303 L852.685 49.7694 L845.272 49.7694 M860.139 46.6907 L860.139 72.576 L852.685 72.576 L852.685 65.6895 Q850.133 69.8214 846.325 71.8063 Q842.517 73.7508 837.008 73.7508 Q830.04 73.7508 825.908 69.8619 Q821.817 65.9325 821.817 59.3701 Q821.817 51.7138 826.921 47.825 Q832.066 43.9361 842.234 43.9361 L852.685 43.9361 L852.685 43.2069 Q852.685 38.0623 849.282 35.2672 Q845.92 32.4315 839.803 32.4315 Q835.914 32.4315 832.228 33.3632 Q828.542 34.295 825.139 36.1584 L825.139 29.2718 Q829.23 27.692 833.079 26.9223 Q836.927 26.1121 840.573 26.1121 Q850.416 26.1121 855.278 31.2163 Q860.139 36.3204 860.139 46.6907 Z" fill="#000000" fill-rule="evenodd" fill-opacity="1" /><path clip-path="url(#clip640)" d="M882.864 14.324 L882.864 27.2059 L898.217 27.2059 L898.217 32.9987 L882.864 32.9987 L882.864 57.6282 Q882.864 63.1779 884.363 64.7578 Q885.902 66.3376 890.561 66.3376 L898.217 66.3376 L898.217 72.576 L890.561 72.576 Q881.932 72.576 878.651 69.3758 Q875.37 66.1351 875.37 57.6282 L875.37 32.9987 L869.901 32.9987 L869.901 27.2059 L875.37 27.2059 L875.37 14.324 L882.864 14.324 Z" fill="#000000" fill-rule="evenodd" fill-opacity="1" /><path clip-path="url(#clip640)" d="M908.02 27.2059 L915.474 27.2059 L915.474 72.576 L908.02 72.576 L908.02 27.2059 M908.02 9.54393 L915.474 9.54393 L915.474 18.9825 L908.02 18.9825 L908.02 9.54393 Z" fill="#000000" fill-rule="evenodd" fill-opacity="1" /><path clip-path="url(#clip640)" d="M948.651 32.4315 Q942.656 32.4315 939.172 37.1306 Q935.688 41.7891 935.688 49.9314 Q935.688 58.0738 939.131 62.7728 Q942.615 67.4314 948.651 67.4314 Q954.606 67.4314 958.089 62.7323 Q961.573 58.0333 961.573 49.9314 Q961.573 41.8701 958.089 37.1711 Q954.606 32.4315 948.651 32.4315 M948.651 26.1121 Q958.373 26.1121 963.923 32.4315 Q969.473 38.7509 969.473 49.9314 Q969.473 61.0714 963.923 67.4314 Q958.373 73.7508 948.651 73.7508 Q938.888 73.7508 933.338 67.4314 Q927.829 61.0714 927.829 49.9314 Q927.829 38.7509 933.338 32.4315 Q938.888 26.1121 948.651 26.1121 Z" fill="#000000" fill-rule="evenodd" fill-opacity="1" /><path clip-path="url(#clip640)" d="M1019.54 45.1919 L1019.54 72.576 L1012.09 72.576 L1012.09 45.4349 Q1012.09 38.994 1009.58 35.7938 Q1007.06 32.5936 1002.04 32.5936 Q996.006 32.5936 992.522 36.4419 Q989.038 40.2903 989.038 46.9338 L989.038 72.576 L981.544 72.576 L981.544 27.2059 L989.038 27.2059 L989.038 34.2544 Q991.712 30.163 995.317 28.1376 Q998.963 26.1121 1003.7 26.1121 Q1011.52 26.1121 1015.53 30.9732 Q1019.54 35.7938 1019.54 45.1919 Z" fill="#000000" fill-rule="evenodd" fill-opacity="1" /><path clip-path="url(#clip640)" d="M1093.43 28.9478 L1093.43 35.9153 Q1090.27 34.1734 1087.07 33.3227 Q1083.91 32.4315 1080.67 32.4315 Q1073.42 32.4315 1069.41 37.0496 Q1065.4 41.6271 1065.4 49.9314 Q1065.4 58.2358 1069.41 62.8538 Q1073.42 67.4314 1080.67 67.4314 Q1083.91 67.4314 1087.07 66.5807 Q1090.27 65.6895 1093.43 63.9476 L1093.43 70.8341 Q1090.31 72.2924 1086.95 73.0216 Q1083.63 73.7508 1079.86 73.7508 Q1069.61 73.7508 1063.58 67.3098 Q1057.54 60.8689 1057.54 49.9314 Q1057.54 38.832 1063.62 32.472 Q1069.73 26.1121 1080.35 26.1121 Q1083.79 26.1121 1087.07 26.8413 Q1090.35 27.5299 1093.43 28.9478 Z" fill="#000000" fill-rule="evenodd" fill-opacity="1" /><path clip-path="url(#clip640)" d="M1123.97 32.4315 Q1117.98 32.4315 1114.49 37.1306 Q1111.01 41.7891 1111.01 49.9314 Q1111.01 58.0738 1114.45 62.7728 Q1117.94 67.4314 1123.97 67.4314 Q1129.93 67.4314 1133.41 62.7323 Q1136.9 58.0333 1136.9 49.9314 Q1136.9 41.8701 1133.41 37.1711 Q1129.93 32.4315 1123.97 32.4315 M1123.97 26.1121 Q1133.7 26.1121 1139.25 32.4315 Q1144.8 38.7509 1144.8 49.9314 Q1144.8 61.0714 1139.25 67.4314 Q1133.7 73.7508 1123.97 73.7508 Q1114.21 73.7508 1108.66 67.4314 Q1103.15 61.0714 1103.15 49.9314 Q1103.15 38.7509 1108.66 32.4315 Q1114.21 26.1121 1123.97 26.1121 Z" fill="#000000" fill-rule="evenodd" fill-opacity="1" /><path clip-path="url(#clip640)" d="M1186.07 28.5427 L1186.07 35.5912 Q1182.91 33.9709 1179.51 33.1607 Q1176.11 32.3505 1172.46 32.3505 Q1166.91 32.3505 1164.12 34.0519 Q1161.36 35.7533 1161.36 39.156 Q1161.36 41.7486 1163.35 43.2475 Q1165.33 44.7058 1171.33 46.0426 L1173.88 46.6097 Q1181.82 48.3111 1185.14 51.4303 Q1188.5 54.509 1188.5 60.0587 Q1188.5 66.3781 1183.48 70.0644 Q1178.5 73.7508 1169.75 73.7508 Q1166.1 73.7508 1162.13 73.0216 Q1158.2 72.3329 1153.83 70.9151 L1153.83 63.2184 Q1157.96 65.3654 1161.97 66.4591 Q1165.98 67.5124 1169.91 67.5124 Q1175.18 67.5124 1178.01 65.73 Q1180.85 63.9071 1180.85 60.6258 Q1180.85 57.5877 1178.78 55.9673 Q1176.76 54.3469 1169.83 52.8481 L1167.24 52.2405 Q1160.31 50.7821 1157.23 47.7845 Q1154.15 44.7463 1154.15 39.4801 Q1154.15 33.0797 1158.69 29.5959 Q1163.23 26.1121 1171.57 26.1121 Q1175.7 26.1121 1179.35 26.7198 Q1183 27.3274 1186.07 28.5427 Z" fill="#000000" fill-rule="evenodd" fill-opacity="1" /><path clip-path="url(#clip640)" d="M1207.75 14.324 L1207.75 27.2059 L1223.1 27.2059 L1223.1 32.9987 L1207.75 32.9987 L1207.75 57.6282 Q1207.75 63.1779 1209.25 64.7578 Q1210.78 66.3376 1215.44 66.3376 L1223.1 66.3376 L1223.1 72.576 L1215.44 72.576 Q1206.81 72.576 1203.53 69.3758 Q1200.25 66.1351 1200.25 57.6282 L1200.25 32.9987 L1194.78 32.9987 L1194.78 27.2059 L1200.25 27.2059 L1200.25 14.324 L1207.75 14.324 Z" fill="#000000" fill-rule="evenodd" fill-opacity="1" /><path clip-path="url(#clip640)" d="M1259.27 27.2059 L1266.73 27.2059 L1266.73 72.576 L1259.27 72.576 L1259.27 27.2059 M1259.27 9.54393 L1266.73 9.54393 L1266.73 18.9825 L1259.27 18.9825 L1259.27 9.54393 Z" fill="#000000" fill-rule="evenodd" fill-opacity="1" /><path clip-path="url(#clip640)" d="M1320.04 45.1919 L1320.04 72.576 L1312.58 72.576 L1312.58 45.4349 Q1312.58 38.994 1310.07 35.7938 Q1307.56 32.5936 1302.54 32.5936 Q1296.5 32.5936 1293.02 36.4419 Q1289.53 40.2903 1289.53 46.9338 L1289.53 72.576 L1282.04 72.576 L1282.04 27.2059 L1289.53 27.2059 L1289.53 34.2544 Q1292.21 30.163 1295.81 28.1376 Q1299.46 26.1121 1304.2 26.1121 Q1312.02 26.1121 1316.03 30.9732 Q1320.04 35.7938 1320.04 45.1919 Z" fill="#000000" fill-rule="evenodd" fill-opacity="1" /><path clip-path="url(#clip640)" d="M1391.13 34.0924 L1391.13 9.54393 L1398.58 9.54393 L1398.58 72.576 L1391.13 72.576 L1391.13 65.7705 Q1388.78 69.8214 1385.18 71.8063 Q1381.61 73.7508 1376.59 73.7508 Q1368.37 73.7508 1363.18 67.1883 Q1358.04 60.6258 1358.04 49.9314 Q1358.04 39.2371 1363.18 32.6746 Q1368.37 26.1121 1376.59 26.1121 Q1381.61 26.1121 1385.18 28.0971 Q1388.78 30.0415 1391.13 34.0924 M1365.73 49.9314 Q1365.73 58.1548 1369.09 62.8538 Q1372.5 67.5124 1378.41 67.5124 Q1384.33 67.5124 1387.73 62.8538 Q1391.13 58.1548 1391.13 49.9314 Q1391.13 41.7081 1387.73 37.0496 Q1384.33 32.3505 1378.41 32.3505 Q1372.5 32.3505 1369.09 37.0496 Q1365.73 41.7081 1365.73 49.9314 Z" fill="#000000" fill-rule="evenodd" fill-opacity="1" /><path clip-path="url(#clip640)" d="M1413.94 27.2059 L1421.39 27.2059 L1421.39 72.576 L1413.94 72.576 L1413.94 27.2059 M1413.94 9.54393 L1421.39 9.54393 L1421.39 18.9825 L1413.94 18.9825 L1413.94 9.54393 Z" fill="#000000" fill-rule="evenodd" fill-opacity="1" /><path clip-path="url(#clip640)" d="M1459.96 9.54393 L1459.96 15.7418 L1452.83 15.7418 Q1448.82 15.7418 1447.24 17.3622 Q1445.7 18.9825 1445.7 23.1955 L1445.7 27.2059 L1457.97 27.2059 L1457.97 32.9987 L1445.7 32.9987 L1445.7 72.576 L1438.2 72.576 L1438.2 32.9987 L1431.07 32.9987 L1431.07 27.2059 L1438.2 27.2059 L1438.2 24.0462 Q1438.2 16.471 1441.73 13.0277 Q1445.25 9.54393 1452.91 9.54393 L1459.96 9.54393 Z" fill="#000000" fill-rule="evenodd" fill-opacity="1" /><path clip-path="url(#clip640)" d="M1489.16 9.54393 L1489.16 15.7418 L1482.03 15.7418 Q1478.02 15.7418 1476.44 17.3622 Q1474.9 18.9825 1474.9 23.1955 L1474.9 27.2059 L1487.18 27.2059 L1487.18 32.9987 L1474.9 32.9987 L1474.9 72.576 L1467.41 72.576 L1467.41 32.9987 L1460.28 32.9987 L1460.28 27.2059 L1467.41 27.2059 L1467.41 24.0462 Q1467.41 16.471 1470.93 13.0277 Q1474.46 9.54393 1482.11 9.54393 L1489.16 9.54393 Z" fill="#000000" fill-rule="evenodd" fill-opacity="1" /><path clip-path="url(#clip640)" d="M1534.21 48.0275 L1534.21 51.6733 L1499.94 51.6733 Q1500.42 59.3701 1504.56 63.421 Q1508.73 67.4314 1516.14 67.4314 Q1520.44 67.4314 1524.45 66.3781 Q1528.5 65.3249 1532.47 63.2184 L1532.47 70.267 Q1528.46 71.9684 1524.24 72.8596 Q1520.03 73.7508 1515.7 73.7508 Q1504.84 73.7508 1498.48 67.4314 Q1492.16 61.1119 1492.16 50.3365 Q1492.16 39.1965 1498.16 32.6746 Q1504.19 26.1121 1514.4 26.1121 Q1523.56 26.1121 1528.86 32.0264 Q1534.21 37.9003 1534.21 48.0275 M1526.76 45.84 Q1526.67 39.7232 1523.31 36.0774 Q1519.99 32.4315 1514.48 32.4315 Q1508.24 32.4315 1504.48 35.9558 Q1500.75 39.4801 1500.18 45.8805 L1526.76 45.84 Z" fill="#000000" fill-rule="evenodd" fill-opacity="1" /><path clip-path="url(#clip640)" d="M1572.73 34.1734 Q1571.48 33.4443 1569.98 33.1202 Q1568.52 32.7556 1566.74 32.7556 Q1560.42 32.7556 1557.02 36.8875 Q1553.65 40.9789 1553.65 48.6757 L1553.65 72.576 L1546.16 72.576 L1546.16 27.2059 L1553.65 27.2059 L1553.65 34.2544 Q1556 30.1225 1559.77 28.1376 Q1563.54 26.1121 1568.93 26.1121 Q1569.69 26.1121 1570.63 26.2337 Q1571.56 26.3147 1572.69 26.5172 L1572.73 34.1734 Z" fill="#000000" fill-rule="evenodd" fill-opacity="1" /><path clip-path="url(#clip640)" d="M1617.54 48.0275 L1617.54 51.6733 L1583.27 51.6733 Q1583.75 59.3701 1587.88 63.421 Q1592.06 67.4314 1599.47 67.4314 Q1603.76 67.4314 1607.77 66.3781 Q1611.82 65.3249 1615.79 63.2184 L1615.79 70.267 Q1611.78 71.9684 1607.57 72.8596 Q1603.36 73.7508 1599.02 73.7508 Q1588.17 73.7508 1581.81 67.4314 Q1575.49 61.1119 1575.49 50.3365 Q1575.49 39.1965 1581.48 32.6746 Q1587.52 26.1121 1597.73 26.1121 Q1606.88 26.1121 1612.19 32.0264 Q1617.54 37.9003 1617.54 48.0275 M1610.08 45.84 Q1610 39.7232 1606.64 36.0774 Q1603.32 32.4315 1597.81 32.4315 Q1591.57 32.4315 1587.8 35.9558 Q1584.08 39.4801 1583.51 45.8805 L1610.08 45.84 Z" fill="#000000" fill-rule="evenodd" fill-opacity="1" /><path clip-path="url(#clip640)" d="M1667.48 45.1919 L1667.48 72.576 L1660.03 72.576 L1660.03 45.4349 Q1660.03 38.994 1657.52 35.7938 Q1655.01 32.5936 1649.98 32.5936 Q1643.95 32.5936 1640.46 36.4419 Q1636.98 40.2903 1636.98 46.9338 L1636.98 72.576 L1629.49 72.576 L1629.49 27.2059 L1636.98 27.2059 L1636.98 34.2544 Q1639.65 30.163 1643.26 28.1376 Q1646.91 26.1121 1651.64 26.1121 Q1659.46 26.1121 1663.47 30.9732 Q1667.48 35.7938 1667.48 45.1919 Z" fill="#000000" fill-rule="evenodd" fill-opacity="1" /><path clip-path="url(#clip640)" d="M1689.72 14.324 L1689.72 27.2059 L1705.08 27.2059 L1705.08 32.9987 L1689.72 32.9987 L1689.72 57.6282 Q1689.72 63.1779 1691.22 64.7578 Q1692.76 66.3376 1697.42 66.3376 L1705.08 66.3376 L1705.08 72.576 L1697.42 72.576 Q1688.79 72.576 1685.51 69.3758 Q1682.23 66.1351 1682.23 57.6282 L1682.23 32.9987 L1676.76 32.9987 L1676.76 27.2059 L1682.23 27.2059 L1682.23 14.324 L1689.72 14.324 Z" fill="#000000" fill-rule="evenodd" fill-opacity="1" /><path clip-path="url(#clip640)" d="M1770.17 28.5427 L1770.17 35.5912 Q1767.01 33.9709 1763.61 33.1607 Q1760.21 32.3505 1756.56 32.3505 Q1751.01 32.3505 1748.22 34.0519 Q1745.46 35.7533 1745.46 39.156 Q1745.46 41.7486 1747.45 43.2475 Q1749.43 44.7058 1755.43 46.0426 L1757.98 46.6097 Q1765.92 48.3111 1769.24 51.4303 Q1772.6 54.509 1772.6 60.0587 Q1772.6 66.3781 1767.58 70.0644 Q1762.6 73.7508 1753.85 73.7508 Q1750.2 73.7508 1746.23 73.0216 Q1742.3 72.3329 1737.93 70.9151 L1737.93 63.2184 Q1742.06 65.3654 1746.07 66.4591 Q1750.08 67.5124 1754.01 67.5124 Q1759.28 67.5124 1762.11 65.73 Q1764.95 63.9071 1764.95 60.6258 Q1764.95 57.5877 1762.88 55.9673 Q1760.86 54.3469 1753.93 52.8481 L1751.34 52.2405 Q1744.41 50.7821 1741.33 47.7845 Q1738.25 44.7463 1738.25 39.4801 Q1738.25 33.0797 1742.79 29.5959 Q1747.33 26.1121 1755.67 26.1121 Q1759.8 26.1121 1763.45 26.7198 Q1767.1 27.3274 1770.17 28.5427 Z" fill="#000000" fill-rule="evenodd" fill-opacity="1" /><path clip-path="url(#clip640)" d="M1817.12 28.9478 L1817.12 35.9153 Q1813.96 34.1734 1810.76 33.3227 Q1807.6 32.4315 1804.36 32.4315 Q1797.11 32.4315 1793.1 37.0496 Q1789.09 41.6271 1789.09 49.9314 Q1789.09 58.2358 1793.1 62.8538 Q1797.11 67.4314 1804.36 67.4314 Q1807.6 67.4314 1810.76 66.5807 Q1813.96 65.6895 1817.12 63.9476 L1817.12 70.8341 Q1814.01 72.2924 1810.64 73.0216 Q1807.32 73.7508 1803.55 73.7508 Q1793.3 73.7508 1787.27 67.3098 Q1781.23 60.8689 1781.23 49.9314 Q1781.23 38.832 1787.31 32.472 Q1793.43 26.1121 1804.04 26.1121 Q1807.48 26.1121 1810.76 26.8413 Q1814.05 27.5299 1817.12 28.9478 Z" fill="#000000" fill-rule="evenodd" fill-opacity="1" /><path clip-path="url(#clip640)" d="M1868.89 48.0275 L1868.89 51.6733 L1834.62 51.6733 Q1835.11 59.3701 1839.24 63.421 Q1843.41 67.4314 1850.83 67.4314 Q1855.12 67.4314 1859.13 66.3781 Q1863.18 65.3249 1867.15 63.2184 L1867.15 70.267 Q1863.14 71.9684 1858.93 72.8596 Q1854.72 73.7508 1850.38 73.7508 Q1839.53 73.7508 1833.17 67.4314 Q1826.85 61.1119 1826.85 50.3365 Q1826.85 39.1965 1832.84 32.6746 Q1838.88 26.1121 1849.09 26.1121 Q1858.24 26.1121 1863.55 32.0264 Q1868.89 37.9003 1868.89 48.0275 M1861.44 45.84 Q1861.36 39.7232 1858 36.0774 Q1854.68 32.4315 1849.17 32.4315 Q1842.93 32.4315 1839.16 35.9558 Q1835.43 39.4801 1834.87 45.8805 L1861.44 45.84 Z" fill="#000000" fill-rule="evenodd" fill-opacity="1" /><path clip-path="url(#clip640)" d="M1918.84 45.1919 L1918.84 72.576 L1911.39 72.576 L1911.39 45.4349 Q1911.39 38.994 1908.88 35.7938 Q1906.37 32.5936 1901.34 32.5936 Q1895.31 32.5936 1891.82 36.4419 Q1888.34 40.2903 1888.34 46.9338 L1888.34 72.576 L1880.84 72.576 L1880.84 27.2059 L1888.34 27.2059 L1888.34 34.2544 Q1891.01 30.163 1894.62 28.1376 Q1898.26 26.1121 1903 26.1121 Q1910.82 26.1121 1914.83 30.9732 Q1918.84 35.7938 1918.84 45.1919 Z" fill="#000000" fill-rule="evenodd" fill-opacity="1" /><path clip-path="url(#clip640)" d="M1954.33 49.7694 Q1945.29 49.7694 1941.81 51.8354 Q1938.33 53.9013 1938.33 58.8839 Q1938.33 62.8538 1940.92 65.2034 Q1943.55 67.5124 1948.05 67.5124 Q1954.25 67.5124 1957.97 63.1374 Q1961.74 58.7219 1961.74 51.4303 L1961.74 49.7694 L1954.33 49.7694 M1969.2 46.6907 L1969.2 72.576 L1961.74 72.576 L1961.74 65.6895 Q1959.19 69.8214 1955.38 71.8063 Q1951.57 73.7508 1946.06 73.7508 Q1939.1 73.7508 1934.97 69.8619 Q1930.87 65.9325 1930.87 59.3701 Q1930.87 51.7138 1935.98 47.825 Q1941.12 43.9361 1951.29 43.9361 L1961.74 43.9361 L1961.74 43.2069 Q1961.74 38.0623 1958.34 35.2672 Q1954.98 32.4315 1948.86 32.4315 Q1944.97 32.4315 1941.28 33.3632 Q1937.6 34.295 1934.2 36.1584 L1934.2 29.2718 Q1938.29 27.692 1942.14 26.9223 Q1945.98 26.1121 1949.63 26.1121 Q1959.47 26.1121 1964.33 31.2163 Q1969.2 36.3204 1969.2 46.6907 Z" fill="#000000" fill-rule="evenodd" fill-opacity="1" /><path clip-path="url(#clip640)" d="M2010.84 34.1734 Q2009.58 33.4443 2008.08 33.1202 Q2006.63 32.7556 2004.84 32.7556 Q1998.52 32.7556 1995.12 36.8875 Q1991.76 40.9789 1991.76 48.6757 L1991.76 72.576 L1984.26 72.576 L1984.26 27.2059 L1991.76 27.2059 L1991.76 34.2544 Q1994.11 30.1225 1997.88 28.1376 Q2001.64 26.1121 2007.03 26.1121 Q2007.8 26.1121 2008.73 26.2337 Q2009.66 26.3147 2010.8 26.5172 L2010.84 34.1734 Z" fill="#000000" fill-rule="evenodd" fill-opacity="1" /><path clip-path="url(#clip640)" d="M2018.66 27.2059 L2026.11 27.2059 L2026.11 72.576 L2018.66 72.576 L2018.66 27.2059 M2018.66 9.54393 L2026.11 9.54393 L2026.11 18.9825 L2018.66 18.9825 L2018.66 9.54393 Z" fill="#000000" fill-rule="evenodd" fill-opacity="1" /><path clip-path="url(#clip640)" d="M2059.29 32.4315 Q2053.29 32.4315 2049.81 37.1306 Q2046.32 41.7891 2046.32 49.9314 Q2046.32 58.0738 2049.77 62.7728 Q2053.25 67.4314 2059.29 67.4314 Q2065.24 67.4314 2068.73 62.7323 Q2072.21 58.0333 2072.21 49.9314 Q2072.21 41.8701 2068.73 37.1711 Q2065.24 32.4315 2059.29 32.4315 M2059.29 26.1121 Q2069.01 26.1121 2074.56 32.4315 Q2080.11 38.7509 2080.11 49.9314 Q2080.11 61.0714 2074.56 67.4314 Q2069.01 73.7508 2059.29 73.7508 Q2049.52 73.7508 2043.97 67.4314 Q2038.47 61.0714 2038.47 49.9314 Q2038.47 38.7509 2043.97 32.4315 Q2049.52 26.1121 2059.29 26.1121 Z" fill="#000000" fill-rule="evenodd" fill-opacity="1" /><path clip-path="url(#clip640)" d="M2121.39 28.5427 L2121.39 35.5912 Q2118.23 33.9709 2114.83 33.1607 Q2111.42 32.3505 2107.78 32.3505 Q2102.23 32.3505 2099.43 34.0519 Q2096.68 35.7533 2096.68 39.156 Q2096.68 41.7486 2098.66 43.2475 Q2100.65 44.7058 2106.64 46.0426 L2109.19 46.6097 Q2117.13 48.3111 2120.46 51.4303 Q2123.82 54.509 2123.82 60.0587 Q2123.82 66.3781 2118.8 70.0644 Q2113.81 73.7508 2105.06 73.7508 Q2101.42 73.7508 2097.45 73.0216 Q2093.52 72.3329 2089.14 70.9151 L2089.14 63.2184 Q2093.27 65.3654 2097.28 66.4591 Q2101.3 67.5124 2105.22 67.5124 Q2110.49 67.5124 2113.33 65.73 Q2116.16 63.9071 2116.16 60.6258 Q2116.16 57.5877 2114.1 55.9673 Q2112.07 54.3469 2105.14 52.8481 L2102.55 52.2405 Q2095.62 50.7821 2092.55 47.7845 Q2089.47 44.7463 2089.47 39.4801 Q2089.47 33.0797 2094 29.5959 Q2098.54 26.1121 2106.89 26.1121 Q2111.02 26.1121 2114.66 26.7198 Q2118.31 27.3274 2121.39 28.5427 Z" fill="#000000" fill-rule="evenodd" fill-opacity="1" /><polyline clip-path="url(#clip642)" style="stroke:#009af9; stroke-linecap:butt; stroke-linejoin:round; stroke-width:4; stroke-opacity:1; fill:none" points="
  396.474,840.218 398.675,834.084 400.876,816.772 403.077,779.179 405.278,720.9 407.478,673.685 409.679,658.632 411.88,663.479 414.081,689.971 416.282,701.226 
  418.482,713.629 420.683,718.01 422.884,674.877 425.085,635.763 427.286,582.501 429.487,549.943 431.687,520.872 433.888,524.02 436.089,536.64 438.29,566.991 
  440.491,607.849 442.691,640.712 444.892,650.608 447.093,671.804 449.294,666.804 451.495,610.749 453.695,575.614 455.896,569.046 458.097,571.746 460.298,593.295 
  462.499,632.093 464.7,677.91 466.9,728.71 469.101,780.833 471.302,813.266 473.503,855.976 475.704,854.856 477.904,817.544 480.105,798.329 482.306,798.68 
  484.507,810.237 486.708,833.721 488.909,868.88 491.109,902.035 493.31,927.177 495.511,945.805 497.712,948.425 499.913,933.579 502.113,928.312 504.314,914.49 
  506.515,879.27 508.716,848.141 510.917,822.998 513.117,817.985 515.318,832.441 517.519,855.713 519.72,875.582 521.921,896.519 524.122,872.076 526.322,885.853 
  528.523,881.034 530.724,870.284 532.925,880.799 535.126,858.865 537.326,860.441 539.527,873.272 541.728,878.775 543.929,910.957 546.13,935.065 548.33,959.235 
  550.531,979.472 552.732,975.653 554.933,952.431 557.134,916.77 559.335,892.799 561.535,875.58 563.736,869.174 565.937,881.639 568.138,912.576 570.339,955.767 
  572.539,993.641 574.74,1026.2 576.941,1042.93 579.142,1057.35 581.343,1054.13 583.544,1033.22 585.744,1013.88 587.945,1007.86 590.146,1010.57 592.347,1015.48 
  594.548,1027.23 596.748,1041.27 598.949,1066.55 601.15,1089.51 603.351,1103.37 605.552,1102.09 607.752,1087.01 609.953,1065.05 612.154,1040.91 614.355,1025.79 
  616.556,1032.17 618.757,1044.67 620.957,1072.03 623.158,1093.83 625.359,1113.35 627.56,1126.96 629.761,1135.73 631.961,1133.38 634.162,1128.63 636.363,1114.62 
  638.564,1084.19 640.765,1050.54 642.966,1037.09 645.166,1039.68 647.367,1065.37 649.568,1088.42 651.769,1104.56 653.97,1120.73 656.17,1126.79 658.371,1124.59 
  660.572,1112.49 662.773,1094.37 664.974,1087.18 667.174,1085.03 669.375,1081.26 671.576,1086.44 673.777,1101.92 675.978,1121.3 678.179,1134.07 680.379,1140.23 
  682.58,1133.39 684.781,1128.2 686.982,1117.8 689.183,1107.21 691.383,1091.9 693.584,1069.17 695.785,1056.85 697.986,1057.29 700.187,1065.49 702.387,1080.29 
  704.588,1093.64 706.789,1096.28 708.99,1090.59 711.191,1078.87 713.392,1068.64 715.592,1042.07 717.793,991.456 719.994,914.568 722.195,891.297 724.396,896.076 
  726.596,892.026 728.797,899.23 730.998,896.935 733.199,892.813 735.4,877.78 737.601,870.269 739.801,843.335 742.002,821.784 744.203,794.282 746.404,755.862 
  748.605,750.149 750.805,768.958 753.006,805.179 755.207,836.572 757.408,836.552 759.609,818.071 761.809,782.921 764.01,743.409 766.211,714.3 768.412,716.037 
  770.613,702.69 772.814,687.273 775.014,669.634 777.215,668.963 779.416,659.674 781.617,643.999 783.818,623.538 786.018,591.414 788.219,556.259 790.42,518.831 
  792.621,502.657 794.822,489.211 797.022,474.897 799.223,453.053 801.424,444.239 803.625,443.94 805.826,447.257 808.027,445.486 810.227,444.237 812.428,446.539 
  814.629,430.152 816.83,389.401 819.031,371.159 821.231,366.769 823.432,356.804 825.633,301.912 827.834,258.531 830.035,245.619 832.236,257.403 834.436,283.036 
  836.637,312.232 838.838,320.537 841.039,326.202 843.24,339.105 845.44,319.268 847.641,286.311 849.842,243.154 852.043,192.728 854.244,170.116 856.444,177.823 
  858.645,203.493 860.846,235.669 863.047,248.259 865.248,282.886 867.449,313.187 869.649,333.389 871.85,329.355 874.051,299.045 876.252,245.502 878.453,189.538 
  880.653,160.256 882.854,168.07 885.055,187.671 887.256,220.547 889.457,255.591 891.657,291.534 893.858,325.728 896.059,327.048 898.26,300.605 900.461,279.769 
  902.662,225.275 904.862,184.851 907.063,171.275 909.264,180.738 911.465,212.823 913.666,252.691 915.866,289.995 918.067,337.965 920.268,353.133 922.469,384.116 
  924.67,398.66 926.871,350.898 929.071,284.994 931.272,220.48 933.473,190.775 935.674,206.03 937.875,237.505 940.075,279.274 942.276,330.945 944.477,389.342 
  946.678,426.025 948.879,448.175 951.079,452.29 953.28,455.53 955.481,428.392 957.682,353.919 959.883,326.515 962.084,342.133 964.284,364.991 966.485,396.922 
  968.686,440.135 970.887,470.726 973.088,490.96 975.288,502.744 977.489,495.468 979.69,494.179 981.891,515.149 984.092,524.162 986.292,519.867 988.493,550.457 
  990.694,590.964 992.895,635.654 995.096,680.277 997.297,707.088 999.497,713.103 1001.7,731.603 1003.9,740.292 1006.1,731.817 1008.3,714.696 1010.5,719.816 
  1012.7,729.814 1014.9,728.12 1017.1,738.951 1019.3,752.115 1021.51,791.656 1023.71,814.524 1025.91,822.769 1028.11,842.258 1030.31,841.663 1032.51,843.812 
  1034.71,852.317 1036.91,864.538 1039.11,864.629 1041.31,885.12 1043.51,901.159 1045.71,917.901 1047.92,963.918 1050.12,997.106 1052.32,1021.73 1054.52,1038.57 
  1056.72,1035.51 1058.92,1030.56 1061.12,1039.47 1063.32,1039.87 1065.52,1042.79 1067.72,1046.21 1069.92,1053.3 1072.12,1070.88 1074.33,1085.13 1076.53,1100.67 
  1078.73,1115.54 1080.93,1120.02 1083.13,1118.54 1085.33,1109.48 1087.53,1092.78 1089.73,1068.85 1091.93,1043.84 1094.13,1037.59 1096.33,1044.93 1098.53,1050.21 
  1100.73,1061.13 1102.94,1049.39 1105.14,1058.57 1107.34,1061.88 1109.54,1060.9 1111.74,1056.56 1113.94,1035.24 1116.14,1018.68 1118.34,1013.74 1120.54,1016.15 
  1122.74,1021.77 1124.94,1041 1127.14,1057.26 1129.35,1063.84 1131.55,1070.27 1133.75,1076.43 1135.95,1086.27 1138.15,1064.22 1140.35,1046.83 1142.55,1030.69 
  1144.75,1015.51 1146.95,1024.86 1149.15,1041.65 1151.35,1063.23 1153.55,1078.42 1155.76,1086.06 1157.96,1082.96 1160.16,1067.87 1162.36,1053.96 1164.56,1041.87 
  1166.76,1023.69 1168.96,987.992 1171.16,971.798 1173.36,977.978 1175.56,994.882 1177.76,1017.36 1179.96,1032.05 1182.16,1045.64 1184.37,1050.33 1186.57,1045.95 
  1188.77,1037.74 1190.97,1016.2 1193.17,966.472 1195.37,870.052 1197.57,823.34 1199.77,803.113 1201.97,802.979 1204.17,820.614 1206.37,846.148 1208.57,842.519 
  1210.78,830.382 1212.98,824.798 1215.18,802.56 1217.38,786.341 1219.58,736.334 1221.78,685.253 1223.98,678.037 1226.18,695.453 1228.38,726.378 1230.58,764.355 
  1232.78,811.186 1234.98,849.663 1237.19,864.166 1239.39,874.673 1241.59,895.189 1243.79,849.584 1245.99,787.201 1248.19,760.603 1250.39,770.25 1252.59,800.43 
  1254.79,843.514 1256.99,893.85 1259.19,935.93 1261.39,963.165 1263.6,968.872 1265.8,972.643 1268,967.662 1270.2,968.994 1272.4,946.834 1274.6,935.04 
  1276.8,940.608 1279,958.009 1281.2,978.119 1283.4,990.081 1285.6,1000.07 1287.8,1008.32 1290,1009.42 1292.21,1001.25 1294.41,993.763 1296.61,991.31 
  1298.81,982.67 1301.01,966.787 1303.21,959.765 1305.41,951.095 1307.61,950.543 1309.81,945.305 1312.01,941.137 1314.21,939.66 1316.41,931.509 1318.62,924.816 
  1320.82,923.624 1323.02,910.716 1325.22,874.398 1327.42,797.166 1329.62,764.983 1331.82,765.921 1334.02,781.458 1336.22,806.303 1338.42,839.969 1340.62,863.204 
  1342.82,877.896 1345.03,889.066 1347.23,863.991 1349.43,801.645 1351.63,732.376 1353.83,677.464 1356.03,657.831 1358.23,667.406 1360.43,689.587 1362.63,723.215 
  1364.83,762.065 1367.03,788.763 1369.23,822.693 1371.43,833.937 1373.64,816.19 1375.84,777.913 1378.04,754.101 1380.24,712.969 1382.44,709.343 1384.64,727.91 
  1386.84,765.341 1389.04,808.443 1391.24,856.481 1393.44,903.633 1395.64,944.585 1397.84,919.696 1400.05,900.277 1402.25,897.957 1404.45,881.638 1406.65,874.555 
  1408.85,876.446 1411.05,905.608 1413.25,927.635 1415.45,968.392 1417.65,1025 1419.85,1084.04 1422.05,1112.84 1424.25,1123.52 1426.46,1127.19 1428.66,1095.26 
  1430.86,1046.65 1433.06,1002.74 1435.26,1006.14 1437.46,1019.14 1439.66,1038.55 1441.86,1058.73 1444.06,1106.78 1446.26,1149.29 1448.46,1174.81 1450.66,1193.25 
  1452.87,1181.87 1455.07,1180.96 1457.27,1199.47 1459.47,1208.37 1461.67,1216.24 1463.87,1226.9 1466.07,1235.14 1468.27,1245.7 1470.47,1260.46 1472.67,1276.54 
  1474.87,1285.15 1477.07,1281.08 1479.27,1275.36 1481.48,1273.8 1483.68,1265.37 1485.88,1259.62 1488.08,1259.29 1490.28,1269.99 1492.48,1279.91 1494.68,1289.95 
  1496.88,1300.82 1499.08,1307.07 1501.28,1305.69 1503.48,1307.75 1505.68,1305.95 1507.89,1297.34 1510.09,1289.44 1512.29,1286 1514.49,1280.62 1516.69,1281.9 
  1518.89,1288.7 1521.09,1297.54 1523.29,1306.23 1525.49,1314.48 1527.69,1322.24 1529.89,1331.84 1532.09,1333.33 1534.3,1320.87 1536.5,1317 1538.7,1302.2 
  1540.9,1283.76 1543.1,1284.25 1545.3,1287.46 1547.5,1304.41 1549.7,1325.69 1551.9,1341.55 1554.1,1355.41 1556.3,1353.88 1558.5,1343.25 1560.7,1337.04 
  1562.91,1330.08 1565.11,1332.68 1567.31,1338.24 1569.51,1349 1571.71,1360.33 1573.91,1369.99 1576.11,1377.46 1578.31,1384.35 1580.51,1384.47 1582.71,1376.83 
  1584.91,1362 1587.11,1360.77 1589.32,1359.7 1591.52,1358.18 1593.72,1360.07 1595.92,1366.64 1598.12,1370.13 1600.32,1379.34 1602.52,1384.57 1604.72,1386.4 
  1606.92,1384.16 1609.12,1380.72 1611.32,1372.52 1613.52,1354.79 1615.73,1336.55 1617.93,1337.15 1620.13,1335.76 1622.33,1341.56 1624.53,1350.78 1626.73,1362.87 
  1628.93,1373.07 1631.13,1375.16 1633.33,1371.07 1635.53,1362.31 1637.73,1353.11 1639.93,1345.1 1642.14,1344.63 1644.34,1337.83 1646.54,1340.99 1648.74,1346.96 
  1650.94,1354.88 1653.14,1362.22 1655.34,1367.38 1657.54,1368.97 1659.74,1370.45 1661.94,1361.91 1664.14,1353.44 1666.34,1342.95 1668.54,1334.4 1670.75,1332 
  1672.95,1333.34 1675.15,1331.47 1677.35,1337.01 1679.55,1342.03 1681.75,1346.55 1683.95,1347.96 1686.15,1343.58 1688.35,1340.25 1690.55,1330.15 1692.75,1322.36 
  1694.95,1310.2 1697.16,1304.05 1699.36,1301.35 1701.56,1301.81 1703.76,1307.49 1705.96,1311.84 1708.16,1315.81 1710.36,1319.45 1712.56,1317.51 1714.76,1309.11 
  1716.96,1302.52 1719.16,1291.22 1721.36,1286.04 1723.57,1284.1 1725.77,1279.29 1727.97,1286.35 1730.17,1296.91 1732.37,1308.42 1734.57,1318.66 1736.77,1326 
  1738.97,1327.26 1741.17,1326.69 1743.37,1323.54 1745.57,1313.95 1747.77,1303.53 1749.97,1285.76 1752.18,1275.55 1754.38,1275.24 1756.58,1274.83 1758.78,1271.89 
  1760.98,1279.54 1763.18,1290.97 1765.38,1291.58 1767.58,1295.33 1769.78,1288.23 1771.98,1274.73 1774.18,1272.4 1776.38,1274.13 1778.59,1272.18 1780.79,1272.37 
  1782.99,1278.89 1785.19,1288.38 1787.39,1292.07 1789.59,1299.15 1791.79,1299.27 1793.99,1299.57 1796.19,1298.16 1798.39,1283.85 1800.59,1265.88 1802.79,1247.27 
  1805,1226.57 1807.2,1220.75 1809.4,1232.64 1811.6,1249.71 1813.8,1267.7 1816,1277.93 1818.2,1283.88 1820.4,1287.9 1822.6,1285.41 1824.8,1277.73 
  1827,1268.81 1829.2,1262.28 1831.41,1265.61 1833.61,1269.95 1835.81,1282.39 1838.01,1292.21 1840.21,1297.9 1842.41,1302.49 1844.61,1307.3 1846.81,1306.31 
  1849.01,1300.48 1851.21,1295.15 1853.41,1288.32 1855.61,1288.22 1857.81,1285.63 1860.02,1278.17 1862.22,1280.41 1864.42,1289.35 1866.62,1302.36 1868.82,1315.99 
  1871.02,1324.78 1873.22,1333.39 1875.42,1338.23 1877.62,1335.42 1879.82,1330.32 1882.02,1322.25 1884.22,1321.6 1886.43,1317.19 1888.63,1320.24 1890.83,1333.6 
  1893.03,1346.79 1895.23,1354.27 1897.43,1358.32 1899.63,1361.3 1901.83,1346.84 1904.03,1339.34 1906.23,1330.81 1908.43,1325.44 1910.63,1328.68 1912.84,1331.94 
  1915.04,1342.07 1917.24,1346.98 1919.44,1348.48 1921.64,1343.81 1923.84,1340.34 1926.04,1333.43 1928.24,1333.65 1930.44,1313.49 1932.64,1311.85 1934.84,1311.79 
  1937.04,1312.43 1939.24,1315.85 1941.45,1322.35 1943.65,1328.65 1945.85,1332.31 1948.05,1328.88 1950.25,1326.68 1952.45,1323.16 1954.65,1317.62 1956.85,1316.81 
  1959.05,1309.61 1961.25,1301.88 1963.45,1291.33 1965.65,1289.57 1967.86,1288.49 1970.06,1289.88 1972.26,1289.54 1974.46,1289.32 1976.66,1280.57 1978.86,1269.51 
  1981.06,1256.91 1983.26,1248.57 1985.46,1232.43 1987.66,1216.29 1989.86,1210.57 1992.06,1204.72 1994.27,1204.95 1996.47,1208.61 1998.67,1212.59 2000.87,1211.85 
  2003.07,1207.07 2005.27,1202.37 2007.47,1193.7 2009.67,1184.47 2011.87,1171.47 2014.07,1163.83 2016.27,1160.91 2018.47,1163.7 2020.68,1169.48 2022.88,1174.12 
  2025.08,1180 2027.28,1176.57 2029.48,1160.29 2031.68,1149.09 2033.88,1142.24 2036.08,1128.37 2038.28,1119.24 2040.48,1108.08 2042.68,1103.65 2044.88,1104.84 
  2047.08,1108.84 2049.29,1114.28 2051.49,1128.25 2053.69,1143.71 2055.89,1148.12 2058.09,1148.55 2060.29,1146.29 2062.49,1135.06 2064.69,1114.62 2066.89,1109.02 
  2069.09,1107.11 2071.29,1111.84 2073.49,1121.24 2075.7,1130.4 2077.9,1145.8 2080.1,1158.37 2082.3,1158.91 2084.5,1153.34 2086.7,1146.95 2088.9,1137.72 
  2091.1,1134.47 2093.3,1127.39 2095.5,1128.15 2097.7,1137.23 2099.9,1148.43 2102.11,1157.35 2104.31,1162.73 2106.51,1161.64 2108.71,1157.01 2110.91,1145.58 
  2113.11,1131.39 2115.31,1098.96 2117.51,1066.93 2119.71,1049.52 2121.91,1044.77 2124.11,1048.8 2126.31,1047.92 2128.51,1056.14 2130.72,1066.2 2132.92,1084.59 
  2135.12,1087.67 2137.32,1091.85 2139.52,1084.85 2141.72,1075.14 2143.92,1056.27 2146.12,1035.33 2148.32,1026.23 2150.52,1025.41 2152.72,1041.12 2154.92,1057.92 
  2157.13,1072.69 2159.33,1077.87 2161.53,1063.47 2163.73,1071.09 2165.93,1076.27 2168.13,1061.52 2170.33,1052.72 2172.53,1031.01 2174.73,1029.28 2176.93,1044.88 
  2179.13,1060.95 2181.33,1070.79 2183.54,1099.01 2185.74,1123.23 2187.94,1139.17 2190.14,1145.37 2192.34,1135.72 2194.54,1122 2196.74,1093.33 2198.94,1062.49 
  2201.14,1060.05 2203.34,1072.5 2205.54,1094.77 2207.74,1114.55 2209.95,1139.22 2212.15,1141.48 2214.35,1140.96 2216.55,1145.58 2218.75,1137.08 2220.95,1127.41 
  2223.15,1113.36 2225.35,1110.95 2227.55,1116.68 2229.75,1130.76 2231.95,1150.02 2234.15,1169 2236.35,1193.18 2238.56,1213.84 2240.76,1220.39 2242.96,1226.98 
  2245.16,1222.37 2247.36,1199.18 2249.56,1164.85 2251.76,1144.87 2253.96,1149.39 2256.16,1160.6 2258.36,1185.33 2260.56,1212.52 2262.76,1229.82 2264.97,1236.24 
  2267.17,1235.99 2269.37,1234.34 2271.57,1224.06 2273.77,1212.39 2275.97,1192.22 2278.17,1173.47 2280.37,1161.76 2282.57,1180.24 2284.77,1207.64 2286.97,1230.37 
  2289.17,1246.2 2291.38,1257.38 2293.58,1262.05 2295.78,1259.06 
  "/>
</svg>
